<?xml version="1.0" encoding="UTF-8"?><svg xmlns="http://www.w3.org/2000/svg" viewBox="0 0 1344.75 114.31"><defs></defs><g id="a"/><g id="b"><g id="c"><path class="d" d="M1343.43,86.86c-14.05-15.01-32.72-25.45-55.51-31.04-19.71-4.83-42.02-5.77-64.53-2.71-27.21,3.7-53.64,12.15-79.2,20.33-8.54,2.73-17.26,5.52-26.02,8.14-12.17-9.3-25.73-17.04-40.26-22.9-25.95-10.46-53.85-14.48-80.66-11.6-22.77,2.44-44.81,9.54-66.13,16.41-22.97,7.4-46.71,15.05-70.78,16.52-34.55,2.1-68.65-8.66-101.2-25.19,42.4-12.15,85.09-12.64,122.73-.41,2.57,.83,5.33-.57,6.16-3.14,.83-2.57-.57-5.33-3.14-6.16-42.31-13.75-90.58-12.2-137.92,3.25-25.1-13.95-49.17-30.88-71.7-47.42-.06-.04-.13-.07-.19-.11-.15-.1-.3-.19-.45-.27-.14-.07-.27-.14-.41-.19-.15-.06-.3-.11-.45-.15-.15-.05-.31-.09-.47-.12-.15-.03-.3-.05-.46-.06-.16-.01-.31-.03-.47-.03-.16,0-.32,.01-.48,.03-.15,.01-.3,.03-.45,.06-.16,.03-.31,.07-.47,.12-.15,.05-.3,.09-.45,.15-.14,.06-.28,.12-.41,.19-.16,.08-.31,.17-.46,.27-.06,.04-.13,.07-.18,.11-22.53,16.54-46.6,33.47-71.7,47.42-47.34-15.45-95.61-16.99-137.92-3.25-2.57,.83-3.98,3.59-3.14,6.16,.83,2.57,3.59,3.98,6.16,3.14,37.64-12.23,80.33-11.73,122.73,.41-32.55,16.53-66.64,27.29-101.2,25.19-24.07-1.47-47.82-9.12-70.78-16.52-21.32-6.87-43.36-13.97-66.13-16.41-26.82-2.87-54.71,1.14-80.66,11.6-14.53,5.86-28.09,13.6-40.26,22.9-8.76-2.61-17.48-5.4-26.02-8.14-25.56-8.18-51.99-16.63-79.2-20.33-22.51-3.06-44.82-2.12-64.53,2.71-22.79,5.59-41.46,16.03-55.51,31.04-1.85,1.97-1.74,5.07,.23,6.92,1.97,1.85,5.07,1.74,6.92-.23,12.73-13.6,29.78-23.09,50.69-28.22,18.53-4.54,39.58-5.41,60.89-2.52,26.36,3.58,52.37,11.9,77.53,19.95,6.55,2.1,13.21,4.23,19.93,6.29-6.05,5.34-11.68,11.09-16.82,17.22-1.74,2.07-1.46,5.16,.61,6.89,.92,.77,2.03,1.14,3.14,1.14,1.4,0,2.78-.6,3.75-1.75,6.13-7.31,13-14.06,20.48-20.17,3.73,1.08,7.47,2.13,11.2,3.12,23.83,6.31,45.43,9.46,65.04,9.46,22.76,0,42.85-4.25,60.61-12.77,2.44-1.17,3.46-4.09,2.3-6.53-1.17-2.44-4.09-3.47-6.53-2.3-30.88,14.8-69.77,15.68-118.91,2.67-1.28-.34-2.57-.69-3.86-1.05,9.88-6.85,20.6-12.66,31.98-17.25,24.47-9.86,50.73-13.65,75.96-10.95,21.77,2.33,43.33,9.28,64.17,16,23.54,7.59,47.89,15.43,73.19,16.98,3.11,.19,6.21,.28,9.31,.28,36.51,0,72.04-12.88,105.64-31.09,24.21,8.34,48.15,20.45,70.81,36.17h.01c.2,.14,.4,.26,.61,.36,.05,.03,.1,.04,.16,.07,.15,.07,.31,.13,.47,.18,.08,.03,.15,.05,.23,.07,.14,.04,.29,.07,.43,.1,.08,.01,.15,.03,.23,.04,.2,.03,.41,.04,.62,.05,.01,0,.02,0,.03,0h0s.02,0,.03,0c.21,0,.41-.02,.61-.05,.08-.01,.16-.03,.24-.04,.14-.03,.28-.06,.42-.1,.08-.02,.16-.05,.24-.07,.15-.05,.3-.11,.45-.18,.06-.03,.11-.05,.17-.07,.21-.1,.41-.22,.6-.35h.01c22.66-15.72,46.59-27.84,70.81-36.18,36.45,19.76,75.17,33.23,114.96,30.8,25.3-1.54,49.64-9.39,73.19-16.98,20.85-6.72,42.4-13.67,64.17-16,25.23-2.7,51.49,1.08,75.96,10.95,11.37,4.58,22.1,10.4,31.98,17.25-1.29,.35-2.57,.71-3.86,1.05-49.14,13.01-88.03,12.14-118.91-2.67-2.44-1.17-5.36-.14-6.53,2.3-1.17,2.44-.14,5.36,2.3,6.53,17.76,8.52,37.84,12.77,60.61,12.77,19.61,0,41.21-3.16,65.04-9.46,3.74-.99,7.47-2.03,11.2-3.12,7.49,6.1,14.36,12.86,20.48,20.17,.97,1.15,2.35,1.75,3.75,1.75,1.11,0,2.22-.37,3.14-1.14,2.07-1.74,2.34-4.82,.61-6.89-5.14-6.13-10.77-11.88-16.82-17.22,6.72-2.06,13.38-4.19,19.93-6.29,25.16-8.05,51.17-16.37,77.53-19.95,21.3-2.89,42.36-2.02,60.89,2.52,20.91,5.13,37.97,14.62,50.69,28.22,1.85,1.97,4.94,2.07,6.92,.23,1.97-1.85,2.07-4.94,.23-6.92Zm-671.05-1.64c-20.05-13.6-41.05-24.5-62.37-32.57,21.76-12.68,42.64-27.29,62.37-41.71,19.73,14.43,40.61,29.04,62.37,41.71-21.32,8.07-42.31,18.97-62.37,32.56Z"/></g></g></svg>