<?xml version="1.0" encoding="utf-8"?>
<!-- Generator: Adobe Illustrator 26.2.1, SVG Export Plug-In . SVG Version: 6.00 Build 0)  -->
<svg version="1.1" id="레이어_1" xmlns="http://www.w3.org/2000/svg" xmlns:xlink="http://www.w3.org/1999/xlink" x="0px"
	 y="0px" viewBox="0 0 311 707" style="enable-background:new 0 0 311 707;" xml:space="preserve">
<style type="text/css">
	.st0{fill:#818B95;}
</style>
<path class="st0" d="M26.7,247.6C46,329.5,80.4,409.5,137.4,471.3C187,525,253,564.6,290.6,627.3c13.4,22.5,22.7,50.9,11,74.3
	c-15.5,31-57.1,35.7-91.8,35.4C103.4,736-3,726.5-107.9,708.5c-10.2-1.8-22.5-5.4-24.8-15.5c-2.1-9.1,5.3-17.3,11.6-24.1
	c61.8-66,76-164,69.5-254.1c-6.5-90.2-30.5-178.6-33.2-269c-0.9-32.3,1-65.4,13.1-95.3C-46.1-12.7-5.1-13.1,1,56.2
	C6.6,120.5,11.8,184.5,26.7,247.6z"/>
</svg>
