<?xml version="1.0" encoding="utf-8"?>
<!-- Generator: Adobe Illustrator 26.2.1, SVG Export Plug-In . SVG Version: 6.00 Build 0)  -->
<svg version="1.1" id="레이어_1" xmlns="http://www.w3.org/2000/svg" xmlns:xlink="http://www.w3.org/1999/xlink" x="0px"
	 y="0px" viewBox="0 0 574.1 615.4" style="enable-background:new 0 0 574.1 615.4;" xml:space="preserve">
<style type="text/css">
	.st0{fill:#D2DAE0;}
</style>
<path class="st0" d="M547.7,594.4c-34.9-18-73.7-26.8-111.6-37.1c-81.8-22.2-161.5-51.9-237.9-88.6c-31.7-15.2-64.2-32.9-83.2-62.5
	c-22.7-35.4-21.6-80.3-26.7-122.1C83.5,245,72.6,206.7,56,171c-14.7-31.6-33.8-61.4-44-94.7C-5.1,20.4,6.1-44.5,44.7-88.3
	c35.1-39.9,87.7-59.3,138.9-73.6c140.1-39.3,298.8-50.1,423.5,24.8c25.1,15.1,48.7,33.9,64.3,58.7c14.1,22.4,21,48.7,25.2,74.8
	c13.9,86.1,1.2,174.3,9,261.2c12.9,142.7,80.6,275.7,97.1,418.1c5.9,51.1,5.1,110.7-28.2,153.2c-27.3,34.9-74.7,55.1-111.1,22.2
	c-38.2-34.4-30.3-86.7-32.6-132.2C628,662,598.2,620.4,547.7,594.4z"/>
</svg>
