<?xml version="1.0" encoding="utf-8"?>
<!-- Generator: Adobe Illustrator 26.2.1, SVG Export Plug-In . SVG Version: 6.00 Build 0)  -->
<svg version="1.1" id="레이어_1" xmlns="http://www.w3.org/2000/svg" xmlns:xlink="http://www.w3.org/1999/xlink" x="0px"
	 y="0px" viewBox="0 0 854 81" style="enable-background:new 0 0 854 81;" xml:space="preserve">
<style type="text/css">
	.st0{fill:#C2A38E;}
</style>
<g>
	<path class="st0" d="M661.6,34.3c-2-1-1.5-4.1,0.7-4.4c34.4-4.7,74.8,1.7,106.2,15.2c16.2,6,24.8,12.5,36.5,22c0,0,0.1,0.1,0.1,0.1
		l8.7,8c0.8,0.7,1.9,0.8,2.8,0.3c19.8-12.2,5-2.9-14.2-18.7c-0.1-0.1-0.2-0.1-0.2-0.2C757.2,28.4,713,18.9,660.3,24.1
		c-0.1,0-0.1,0-0.2,0c-23.1,4.4-53,3.1-76,8.6c-11.3,1.7-24.7,13.1-33.2,14.1c-1.7,0.2-3.1-1.5-2.5-3.1c0.5-1.5,1.5-3,2.2-3.3
		c19.6-15.4,1-29.5-25.6-30.7c-0.2,0-0.5-0.1-0.7-0.1c-6.6-2.3-30.1,5.2-43.9,6.7c-1.1,0.1-2.1-0.6-2.5-1.7c-0.5-1.8-6-2.5-19.5-3.1
		c-15-0.8-27.1,1.5-38.2,4.6c-0.6,0.2-1.3,0.1-1.8-0.3c-28.8-17.5-63.6-10.6-88.7,9.3c-17.5,13.9-48.3,19.7-62.1,1.6
		c-3-4.1-2.8-5,1-6c13.8-4.4,34.5-10.6,46.4-8c0.2,0,0.3,0.1,0.5,0.2c36.1,16,18.1-7.1-5.7-7.1c-9.2-2.3-32.6,6.4-45.3,9.3
		c-0.1,0-0.2,0.1-0.3,0.1c-65.6,26.6-142.7,41-212.8,49.8c-14.3,2.1-19.1,2-28.8,4.2c-49.8,14,24.6,3.5,55.1-0.4
		c42.5-5.9,94.1-16,132.4-28.9c9.4-2.8,22.6-6.6,31-9.5c0.1,0,0.2,0,0.2-0.1c5.1-1,16.7-9.4,19.3-3.1c0.1,0.2,0.2,0.5,0.4,0.6
		c32.3,41.3,70.3-1,104.8-13.1c8.3-3,30.3-2,39.6,2.8c1.6,0.8,1.7,3.1,0.2,4.1c-10.6,6.3-48.7,14.1-55,4.6c-1.3-1.9-4.4-1-6.5,0.3
		c-1.1,0.7-1.5,2.2-0.7,3.2c4.9,7.1,29.3,11.7,40.4,7.4c0.2-0.1,0.4-0.1,0.6-0.1c10.9-1.1,26.9-13.8,36.7-9.5
		c20.8,9.1,39.3,6.6,60.3-2.5c0.1,0,0.2-0.1,0.3-0.1c7.5-2.2,4.7-3.8,9.5,0.5c0.3,0.3,0.7,0.5,1,0.5c8.5,1.7,33.7,21.8,7.2,18.6
		c-0.2,0-0.4,0-0.5,0c-52.2,5.2,5.2,43.2,48.8,12c0.5-0.3,1-0.5,1.6-0.4c25,2.8,60.4-11.1,86.5-19.5c0.1,0,0.2-0.1,0.3-0.1
		c19.7-4,53.9,2.1,65.7,20.2c0,0.1,0.1,0.1,0.1,0.2c5.8,11.1,20.7,20.4,32.9,19.1c0.3,0,0.5-0.1,0.8-0.2c13.5-6.6,12-13,9.6-26.7
		c0-0.1,0-0.3,0-0.4c-0.1-6.1,0-6.6,1.7-8c1.6-1.3,1.7-1.6,0.8-2.2c-18-1.2,4.7,31.6-13.7,32.7c-28.3,5.6-31.1-36.3-70.9-36.9
		C662.2,34.5,661.9,34.4,661.6,34.3L661.6,34.3z M622.3,33.2c-16.4,5.1-35.7,13.9-53.9,16.8C533,54.8,617.4,24.7,622.3,33.2z
		 M493.6,21.2c10.1-7.9,79.4-7.8,53.9,16.1c-7.2,4.4-0.1,11.5-4.4,15.5c-15.2,9.6-36.1,15.5-52.9,9.2c-15-7.6-1.1-14.9,13.4-11.9
		c3.4,0.7,4.3,0.6,7.9-1.1c15.9-6.9-6.6-25.9-16.1-27.3C493.9,22,493.4,21.9,493.6,21.2z M473.9,19.1c-5.6,5.2-40.1,5.9-45.6,3.4
		C433.9,16.7,468.7,18.4,473.9,19.1z"/>
</g>
</svg>
