<?xml version="1.0" encoding="utf-8"?>
<!-- Generator: Adobe Illustrator 26.2.1, SVG Export Plug-In . SVG Version: 6.00 Build 0)  -->
<svg version="1.1" id="레이어_1" xmlns="http://www.w3.org/2000/svg" xmlns:xlink="http://www.w3.org/1999/xlink" x="0px"
	 y="0px" viewBox="0 0 558 412" style="enable-background:new 0 0 558 412;" xml:space="preserve">
<style type="text/css">
	.st0{fill:none;stroke:#C2A38E;stroke-width:6;stroke-miterlimit:10;}
</style>
<path class="st0" d="M-98.7,560.2C-63.9,450.2,23.1,364,118.1,298.4S318.2,183,413,117.3c51.6-35.8,101.4-78,128.9-134.5
	c18.7-38.4,25.9-81.5,27.7-124.2c1.8-44.3-2.3-89.7-20.4-130.1c-17.7-39.4-47.5-71.8-77.1-103.2c-86.2-91.5-179.2-191-192.3-316
	c-3.3-31.5-4.6-69.5-32-85.3c-10.8-6.2-23.8-7.4-36.3-7c-86.3,2.8-154.8,72.1-236.6,99.8c-30.6,10.4-63.6,15.1-91.1,32.1
	c-39.7,24.5-60.9,70-76.1,114.1c-38.1,110.9-51.6,228.6-60.8,345.6c-11.8,151.2-16.7,302.8-21.5,454.4c-3.1,96-6.1,192.3,2.6,288
	c5.7,62.7,20.1,309.5,106.5,310.1c57.3,0.3,48.9-54.8,47.7-95C-119.9,696.9-119.7,626.7-98.7,560.2z"/>
</svg>
