<?xml version="1.0" encoding="utf-8"?>
<!-- Generator: Adobe Illustrator 26.2.1, SVG Export Plug-In . SVG Version: 6.00 Build 0)  -->
<svg version="1.1" id="레이어_1" xmlns="http://www.w3.org/2000/svg" xmlns:xlink="http://www.w3.org/1999/xlink" x="0px"
	 y="0px" viewBox="0 0 2279.4 625.9" xml:space="preserve">
<style type="text/css">
	.st0{fill-rule:evenodd;clip-rule:evenodd;fill:#0C0E0F;}
	.st1{fill:none;stroke:#0C0E0F;stroke-width:4.9026;stroke-miterlimit:33.89;}
</style>
<path class="st0" d="M474.1,204.8c-26.5,0-48.6,9.7-63.6,29.1h-0.9V109.5h-48.6l-30,42.4h30v298.4l51.2,0.9V306.3
	c0-32.7,21.2-52.1,48.6-52.1s47.7,19.4,47.7,52.1v144.8l45.9-0.9V288.7C554.4,233.9,511.2,204.8,474.1,204.8L474.1,204.8z
	 M557.1,625.9V0V625.9L557.1,625.9z"/>
<path class="st1" d="M557.1,625.9V0"/>
<path class="st0" d="M717.7,452H0H717.7L717.7,452z"/>
<path class="st1" d="M717.7,452H0"/>
<path class="st0" d="M705.4,116.5c-5.3-5.3-14.1-8.8-23.8-8.8c-11.5,0-19.4,2.7-27.4,10.6c-7.1-7.1-15-10.6-24.7-10.6
	c-7.1,0-16.8,3.5-22.1,9.7v-8.8h-30l-17.7,25.6h17.7v73.3h30v-59.2c0-11.5,8.8-13.2,12.4-13.2c4.4,0,12.4,1.8,12.4,13.2v59.2h30
	v-59.2c0-11.5,7.9-13.2,12.4-13.2c3.5,0,11.5,1.8,11.5,13.2v59.2h30v-62.7C716,134.2,714.2,124.5,705.4,116.5L705.4,116.5z
	 M319.6,236.6c-14.1-18.5-35.3-31.8-65.3-31.8c-24.7,0-46.8,11.5-62.7,28.2v-25.6H143l-30,41.5h30v299.3h48.6V424.6
	c18.5,16.8,38,25.6,62.7,25.6c30,0,47.7-10.6,61.8-29.1c13.2-16.8,20.3-32.7,20.3-91.8C336.3,269.3,332.8,253.4,319.6,236.6
	L319.6,236.6z M240.1,404.3c-45,0-47.7-40.6-47.7-75.1c0-35.3,2.6-75.9,47.7-75.9c45.9,0,48.6,38,48.6,75.9
	C288.7,366.4,286,404.3,240.1,404.3z M1753.3,360.2c-12.4,0-21.2,4.4-29.1,12.4c-7-7.1-13.2-12.4-26.5-12.4
	c-9.7,0-18.5,4.4-24.7,11.5V362h-18.5l-12.4,15.9h12.4v77.7h18.5V399c0-12.3,8-19.4,18.5-19.4c10.6,0,18.5,7.1,18.5,19.4v56.5h18.5
	V399c0-12.3,7.9-19.4,18.5-19.4c10.6,0,18.5,7.1,18.5,19.4v56.5h19.4v-62.7C1785,371.6,1768.3,360.2,1753.3,360.2L1753.3,360.2z
	 M1853.9,417.5c0,12.4-7.9,20.3-18.5,20.3c-10.6,0-18.5-8-18.5-20.3v-55.6h-19.4v61.8c0,21.2,16.8,32.7,31.8,32.7
	c9.7,0,18.5-3.5,23.8-11.5h0.9v10.6h18.5v-93.6h-18.5L1853.9,417.5L1853.9,417.5L1853.9,417.5z M1931.6,399l-15-0.9
	c-9.7-0.9-12.4-4.4-12.4-8.8c0-6.2,3.5-11.5,15.9-11.5c10.6,0,17.7,3.5,24.7,8.8l12.4-13.2c-9.7-8-20.3-13.2-37.1-13.2
	c-19.4,0-35.3,9.7-35.3,29.1c0,15.9,11.5,25.6,27.4,26.5l16.8,1.8c6.2,0,11.5,2.7,11.5,8.8c0,8-8,12.4-18.5,12.4
	c-12.4,0-21.2-4.4-30-12.4l-12.4,13.2c10.7,10.9,25.4,16.9,40.6,16.8c22.1,0,38.8-10.6,38.8-29.1
	C1958.9,412.3,1951,400.8,1931.6,399L1931.6,399z M2004.9,360.2c-18.5,0-38.9,12.4-38.9,48.6c0,37.9,22.1,47.7,41.5,47.7
	c12.4,0,24.7-4.4,33.6-15l-13.2-11.5c-5.3,5.3-13.2,8.8-20.3,8.8c-13.2,0-23-8-23-23h58.3v-15.9
	C2042.8,376.1,2025.2,360.2,2004.9,360.2L2004.9,360.2z M1984.6,399.9c0.9-14.1,8.8-22.1,20.3-22.1c10.6,0,18.5,8,19.4,22.1H1984.6z
	 M2111.7,417.5c0,12.4-7.9,20.3-18.5,20.3c-10.6,0-18.5-8-18.5-20.3v-55.6h-19.4v61.8c0,21.2,16.8,32.7,31.8,32.7
	c9.7,0,18.5-3.5,23.8-11.5h0.9v10.6h18.5v-93.6h-18.5L2111.7,417.5L2111.7,417.5L2111.7,417.5z M2247.6,360.2
	c-12.4,0-21.2,4.4-29.2,12.4c-7-7.1-13.2-12.4-26.5-12.4c-9.7,0-18.5,4.4-24.7,11.5V362h-18.5v93.6h18.5V399
	c0-12.3,8-19.4,18.5-19.4c10.6,0,18.5,7.1,18.5,19.4v56.5h18.5V399c0-12.3,7.9-19.4,18.5-19.4c10.6,0,18.5,7.1,18.5,19.4v56.5h19.4
	v-62.7C2279.4,371.6,2262.6,360.2,2247.6,360.2L2247.6,360.2z M859.9,408.7c0,13.2-1.8,16.8-5.3,22.1c-2.6,3.5-8,7.1-15,7.1
	c-6.2,0-12.4-3.5-15-7.1c-3.5-5.3-4.4-8.8-4.4-22.1c0-14.1,0.9-17.7,4.4-23c2.7-3.5,8.8-6.2,15-6.2c7.1,0,12.4,2.6,15,6.2
	C858.1,391.1,859.9,394.6,859.9,408.7z M801.6,408.7c0,20.3,2.6,27.4,9.7,35.3c5.3,6.2,14.1,12.4,28.2,12.4c15,0,23.8-6.2,28.2-12.4
	c7.9-8,10.6-15,10.6-35.3c0-20.3-2.6-28.2-10.6-36.2c-4.4-5.3-13.2-12.4-28.2-12.4c-14.1,0-23,7.1-28.2,12.4
	C804.2,380.5,801.6,388.4,801.6,408.7z M945.5,389.3h-0.9l-19.4,66.2h-16.8l-29.1-93.6h19.4l17.7,65.3h0.9l21.2-65.3h13.2l21.2,65.3
	h0.9l17.7-65.3h20.3l-30,93.6h-16.8L945.5,389.3L945.5,389.3z M1031.1,399.9c0-14.1,8-22.1,19.4-22.1s19.4,8,19.4,22.1H1031.1z
	 M1089.4,415.8v-15.9c0-23.8-18.5-39.7-38.8-39.7c-18.5,0-38.8,12.4-38.8,48.6c0,37.9,23,47.7,41.5,47.7c13.2,0,24.7-4.4,34.4-15
	l-14.1-11.5c-5.3,5.3-13.2,8.8-20.3,8.8c-13.2,0-22.1-8-22.1-23L1089.4,415.8L1089.4,415.8z M1101.7,361.9h18.5v9.7
	c6.2-7.2,15.2-11.4,24.7-11.5c7.9,0,12.4,3.5,15.9,6.2l-10.6,16.8c-4.4-2.6-7.1-3.5-11.5-3.5c-9.7,0-18.5,5.3-18.5,19.4v56.5h-18.5
	L1101.7,361.9L1101.7,361.9z M1316.3,408.7c0,13.2-0.9,16.8-4.4,22.1c-2.6,3.5-8.8,7.1-15,7.1s-12.4-3.5-15-7.1
	c-3.5-5.3-4.4-8.8-4.4-22.1c0-14.1,0.9-17.7,4.4-23c2.7-3.5,8.8-6.2,15-6.2s12.4,2.6,15,6.2C1315.4,391.1,1316.3,394.6,1316.3,408.7
	z M1258,408.7c0,20.3,3.5,27.4,10.6,35.3c5.3,6.2,13.2,12.4,28.2,12.4c14.1,0,23-6.2,28.2-12.4c7.1-8,10.6-15,10.6-35.3
	c0-20.3-3.5-28.2-10.6-36.2c-5.3-5.3-14.1-12.4-28.2-12.4c-15,0-23,7.1-28.2,12.4C1261.5,380.5,1258,388.4,1258,408.7z M1348,361.9
	h18.5v55.6c0,12.4,8,20.3,18.5,20.3s18.5-8,18.5-20.3v-55.6h18.5v93.6h-18.5v-10.6c-6.2,7.9-15,11.5-24.7,11.5
	c-15,0-30.9-11.5-30.9-32.7L1348,361.9L1348,361.9L1348,361.9z M1442.5,426.4c8,8,16.8,12.4,29.1,12.4c10.6,0,18.5-4.4,18.5-12.4
	c0-6.2-5.3-8.8-11.5-8.8l-16.8-1.8c-15-0.9-26.5-10.6-26.5-26.5c0-18.5,15-29.1,34.4-29.1c16.8,0,27.4,5.3,37.1,13.2l-11.5,13.2
	c-7.9-5.3-15-8.8-25.6-8.8c-11.5,0-15.9,5.3-15.9,11.5c0,4.4,2.7,8,12.4,8.8l15.9,1.8c18.5,0.9,26.5,12.4,26.5,27.4
	c0,18.5-16.8,29.1-38.9,29.1c-15.3,0.2-29.9-5.9-40.6-16.8L1442.5,426.4L1442.5,426.4z M1535.2,399.9c0-14.1,7.9-22.1,19.4-22.1
	c10.6,0,19.4,8,19.4,22.1H1535.2z M1593.5,415.8v-15.9c0-23.8-18.5-39.7-38.9-39.7c-18.5,0-38.8,12.4-38.8,48.6
	c0,37.9,22.1,47.7,41.5,47.7c12.4,0,24.7-4.4,33.5-15l-13.2-11.5c-5.3,5.3-13.2,8.8-20.3,8.8c-13.2,0-22.1-8-22.1-23L1593.5,415.8
	L1593.5,415.8z M1214.7,361.1c-10.6,0-18.5,3.5-24.7,11.5V324h-19.4l-11.5,16.8h11.5v115.7h19.4v-56.5c0-12.4,8-20.3,18.5-20.3
	s18.5,7.9,18.5,20.3v56.5h18.5v-62.7C1245.7,372.5,1228.9,361.1,1214.7,361.1z M785.7,372.5c-5.3-7.1-14.1-12.4-25.6-12.4
	c-9.7,0-17.7,4.4-23.8,11.5V362h-19.4l-11.5,15.9h11.5v115.6h19.4v-47.7c7.1,6.2,14.1,10.6,23.8,10.6c11.5,0,20.3-5.3,25.6-12.4
	c5.3-6.2,6.2-12.4,6.2-35.3C791.9,385.8,791,379.6,785.7,372.5L785.7,372.5z M754.8,437.9c-17.7,0-18.5-15.9-18.5-29.1
	c0-14.1,0.9-29.1,18.5-29.1s18.5,14.1,18.5,29.1C773.3,422.9,772.5,437.9,754.8,437.9z M718.6,570.3c5.3,5.3,10.6,7.1,17.7,7.1
	c6.2,0,10.6-1.8,10.6-7.1c0-3.5-2.6-5.3-6.2-5.3l-9.7-0.9c-9.7-0.9-16.8-6.2-16.8-15.9c0-11.5,9.7-16.8,21.2-16.8
	c9.7,0,15.9,2.7,22.1,7.1l-7.1,8c-4.4-2.7-8.8-4.4-15-4.4c-7.1,0-9.7,2.7-9.7,6.2c0,2.7,1.8,5.3,7.1,5.3l9.7,0.9
	c11.5,0.9,15.9,8,15.9,16.8c0,10.6-9.7,16.8-23,16.8c-8.8,0-17.7-3.5-24.7-9.7L718.6,570.3L718.6,570.3z M810.4,578.2
	c-4.4,6.2-11.5,9.7-19.4,9.7c-13.2,0-25.6-7.9-25.6-28.2c0-20.3,12.4-28.2,25.6-28.2c7.9,0,15,3.5,19.4,9.7l-8,7.1
	c-2.6-3.5-7.1-6.2-11.5-6.2c-8.8,0-14.1,5.3-14.1,17.7c0,12.4,5.3,17.7,14.1,17.7c4.4,0,8.8-2.6,11.5-6.2L810.4,578.2z M818.4,531.4
	h11.5v55.6h-11.5V531.4z M818.4,509.4h11.5v11.5h-11.5V509.4z M852.8,554.4c0.9-7.9,5.3-12.4,12.4-12.4c6.2,0,11.5,4.4,11.5,12.4
	H852.8L852.8,554.4z M888.1,564.1v-9.7c0-14.1-10.6-23-23-23c-10.6,0-23,7.1-23,28.2c0,23,13.2,28.2,24.7,28.2
	c7.5,0.1,14.6-3.1,19.4-8.8l-8-7.1c-2.6,3.5-7.9,5.3-12.4,5.3c-7.1,0-13.2-4.4-13.2-13.2H888.1z M899.6,531.4h11.5v6.2
	c3.5-4.4,8.8-6.2,14.1-6.2c8.8,0,18.5,6.2,18.5,19.4v36.2h-10.6v-32.7c0-7.9-5.3-12.4-11.5-12.4c-6.2,0-10.6,4.4-10.6,12.4v32.7
	h-11.5L899.6,531.4L899.6,531.4z M999.3,578.2c-4.4,6.2-11.5,9.7-20.3,9.7c-12.4,0-24.7-7.9-24.7-28.2c0-20.3,12.4-28.2,24.7-28.2
	c8.8,0,15.9,3.5,20.3,9.7l-7.9,7.1c-2.6-3.5-7.1-6.2-11.5-6.2c-8.8,0-14.1,5.3-14.1,17.7c0,12.4,5.3,17.7,14.1,17.7
	c4.4,0,8.8-2.6,11.5-6.2L999.3,578.2z M1015.2,554.4c0.9-7.9,5.3-12.4,12.4-12.4c6.2,0,11.5,4.4,11.5,12.4H1015.2L1015.2,554.4z
	 M1050.5,564.1v-9.7c0-14.1-10.6-23-23-23c-10.6,0-23,7.1-23,28.2c0,23,13.2,28.2,24.7,28.2c7.5,0.1,14.6-3.1,19.4-8.8l-8-7.1
	c-2.6,3.5-7.9,5.3-12.4,5.3c-7.1,0-13.2-4.4-13.2-13.2H1050.5z M1092.9,532.3h8.8v22.9h23.8v8.8h-23.8v23h-8.8v-23h-23v-8.8h23
	V532.3z M1169.7,542c10.6,0,11.5,9.7,11.5,17.7c0,8-0.9,17.7-11.5,17.7c-10.6,0-10.6-8.8-10.6-17.7
	C1159.1,550.9,1159.1,542,1169.7,542z M1181.2,587.1h10.6v-77.7h-10.6v28.2c-4.4-3.5-8.8-6.2-15-6.2s-11.5,2.7-15,7.1
	c-2.7,3.5-3.5,7.1-3.5,21.2c0,13.2,0.9,17.7,3.5,21.2c3.5,4.4,8.8,7,15,7s11.5-2.6,15-6.2V587.1L1181.2,587.1z M1213,554.4
	c0-7.9,5.3-12.4,11.5-12.4c7.1,0,11.5,4.4,12.4,12.4H1213L1213,554.4z M1247.4,564.1v-9.7c0-14.1-10.6-23-23-23
	c-10.6,0-23,7.1-23,28.2c0,23,13.2,28.2,24.7,28.2c7.9,0,15-2.6,20.3-8.8l-7.9-7.1c-3.2,3.3-7.7,5.3-12.4,5.3
	c-8,0-13.2-4.4-13.2-13.2H1247.4z M1260.6,570.3c5.3,5.3,10.6,7.1,17.7,7.1c6.2,0,11.5-1.8,11.5-7.1c0-3.5-3.5-5.3-7.1-5.3l-9.7-0.9
	c-9.7-0.9-15.9-6.2-15.9-15.9c0-11.5,8.8-16.8,20.3-16.8c9.7,0,16.8,2.7,22.1,7.1l-7,8c-4.4-2.7-8.8-4.4-15-4.4
	c-7.1,0-9.7,2.7-9.7,6.2c0,2.7,1.8,5.3,7.9,5.3l8.8,0.9c11.5,0.9,15.9,8,15.9,16.8c0,10.6-9.7,16.8-23,16.8
	c-8.8,0-16.8-3.5-23.8-9.7L1260.6,570.3L1260.6,570.3z M1312.7,531.4h10.6v55.6h-10.6V531.4z M1312.7,509.4h10.6v11.5h-10.6V509.4z
	 M1347.2,559.7c0-8.8,0.9-10.6,2.7-13.2c1.8-1.8,4.4-4.4,8.8-4.4c4.4,0,7.1,2.7,8.8,4.4c1.8,2.6,1.8,4.4,1.8,13.2
	c0,8.8,0,10.6-1.8,13.2c-1.8,1.8-4.4,4.4-8.8,4.4c-4.4,0-7-2.6-8.8-4.4C1348,570.3,1347.2,568.5,1347.2,559.7z M1369.2,587.1
	c0,7.9-5.3,12.3-12.4,12.3c-4.4,0-8-2.6-10.6-5.3l-8.8,7.1c4.4,5.3,12.4,9.7,19.4,9.7c12.4,0,23.8-8,23.8-24.7v-54.7h-11.5v6.2
	c-3.5-4.4-8-6.2-14.1-6.2c-7.1,0-12.4,3.5-15,6.2c-2.7,4.4-3.5,6.2-3.5,22.1c0,15,0.9,17.7,3.5,21.2c2.6,3.5,7.9,7,15,7
	c6.2,0,10.6-2.6,14.1-6.2L1369.2,587.1L1369.2,587.1z M1394.8,531.4h11.5v6.2c3.5-4.4,8.8-6.2,15-6.2c8.8,0,18.5,6.2,18.5,19.4v36.2
	h-11.5v-32.7c0-7.9-4.4-12.4-10.6-12.4c-7,0-11.5,4.4-11.5,12.4v32.7h-11.5L1394.8,531.4L1394.8,531.4z"/>
</svg>
