<?xml version="1.0" encoding="utf-8"?>
<!-- Generator: Adobe Illustrator 26.2.1, SVG Export Plug-In . SVG Version: 6.00 Build 0)  -->
<svg version="1.1" id="레이어_1" xmlns="http://www.w3.org/2000/svg" xmlns:xlink="http://www.w3.org/1999/xlink" x="0px"
	 y="0px" viewBox="0 0 961 727" style="enable-background:new 0 0 961 727;" xml:space="preserve">
<style type="text/css">
	.st0{fill:#9A8C98;}
</style>
<g>
	<path class="st0" d="M949.5,705.8L949.5,705.8c2.8-2.8,2.8-3,1.7-4.7c-0.7-1-1.2-2.5-1.2-3.4c0-0.9-0.4-1.9-0.8-2.2
		c-0.5-0.3-5.7-0.6-11.7-0.7c-11.4-0.2-16.8-0.8-16.8-1.8c0-0.3,3.5-0.4,7.7-0.2c6.7,0.3,8.2,0.2,11.3-1.2c2.8-1.2,3.8-2.2,4.7-4.4
		c0.6-1.6,1.4-3.4,1.8-4.1c2.2-4-1.1-4.9-5.3-1.4c-1.4,1.2-3.7,2.7-5.1,3.4c-2.9,1.5-11.3,4.2-13.1,4.2c-0.7,0-2,0.7-2.9,1.6
		c-1.6,1.6-3,1.6-11.2-0.1c-1.9-0.4-4.2-0.8-5.2-1c-6.7-1.1-22.8-9-31.5-15.6c-1-0.8-5.1-3.7-9-6.6c-10.7-7.8-30.4-27.5-40.2-40.2
		c-6-7.8-19.5-33.7-24.4-47c-7.7-20.8-10.9-43-10.6-75.4c0.1-18.3,0.8-25,3.2-35.2c0.9-3.9,3.4-8.5,4.5-8.5c1.1,0,0.8-2.4-0.6-3.9
		c-1.2-1.3-1.1-1.4,0.4-1.4c2.6,0,6.3,1.9,8.7,4.4c2.8,3,5,3,7.5,0c2.5-3,2.5-5.4-0.4-8.9c-4-5-11-5.8-19.1-2
		c-2.1,1-4.6,2.8-5.5,4.1c-1.9,2.7-1.5,4.3,0.8,3c0.8-0.4,2.2-0.7,3.1-0.5c1.3,0.2,0.9,0.6-2.1,2c-2.1,0.9-5.3,3.2-7.3,5.2
		s-3.7,3.3-4,3c-0.5-0.5,4.1-10,6.3-13.3c0.7-1.1,2.5-4.3,3.8-7.2c1.4-2.9,3.7-7.1,5.2-9.4c4-6.2,4.9-8.3,9.3-21.7
		c3.9-12,6.5-23.6,9.1-40.9c2.1-14.2,3.5-18.6,7.9-25.7c0.9-1.4,0.8-1.8-0.4-3.1c-1.4-1.5-1.4-1.5,0-1.5c2.5,0,7.3,2.7,9.9,5.5
		c3.3,3.6,7.1,3.8,10.5,0.6c2.8-2.7,2.5-4.7-1.5-9c-3.9-4.1-8-5.2-15.1-3.9c-6.7,1.2-10.9,2.6-12.7,4.2c-2,1.8-1.7,2.4,1.8,2.6
		c3.1,0.2,3,0.3-2.1,1.2c-2.9,0.5-7,2-9.2,3.3c-2.2,1.3-4.1,2.1-4.3,2c-0.4-0.4,4.6-6.6,7.9-10.1c1.2-1.3,2.3-2.7,2.3-3.1
		s1.3-3.1,2.9-5.9c1.6-2.8,4.7-10.3,6.8-16.5c3.8-11.2,4.4-13.5,7.5-28c4.7-21.8,9.9-35.8,15.4-41.5c4.7-4.8,2.7-6.9-6-6.3
		c-5.2,0.4-8.5,1.4-12.6,4.1c-4.8,3.1-3.3-0.6,6-14.3c6.2-9.2,13.7-22.2,13.7-23.9c0-0.3,0.7-2,1.4-3.8c0.8-1.7,2-5.2,2.7-7.7
		c0.7-2.5,2.6-8.5,4.2-13.4c1.6-4.9,2.8-9.4,2.5-10c-0.3-0.8-1.2-1-3.1-0.8c-2.2,0.3-2.6,0.1-2.3-0.9c0.7-2,5-17.6,5.8-20.7
		c0.4-1.6,1.1-3.7,1.4-4.5c1.9-4.2,3-11.2,3-20.2c0.1-15.6-2.2-25.9-6-25.9c-1.4,0-1.4-0.1,0-4.2c2.1-6.2,2.7-34.1,1.2-46.5
		c-2.4-19.1-9.9-31.9-20.6-35.8c-6.9-2.5-15.4-0.1-17,4.8c-0.3,1-1.2,1.5-2.5,1.5c-2.3,0-5.1,2.2-7.3,5.6c-1,1.6-1.4,3.6-1.5,6.8
		c0,5.4,1.9,8.8,6.7,11.9c2.7,1.8,3.5,1.9,7.2,1.5c5.2-0.6,8.2-3.4,8.2-7.5c0-3-1.4-4-4.1-2.7c-4,1.8-9.4-3.7-9.4-9.6
		c0-3.1,1.2-5.6,1.8-3.7c0.2,0.6,0.5,2.9,0.8,5.2c0.2,2.2,0.8,4.3,1.3,4.6s2.8,0.4,5.1,0.2c5.5-0.4,10.1,1.8,14.3,6.8
		c3.3,4.1,7.3,11.4,6.6,12.1c-0.2,0.2-1.4-0.3-2.6-1.1c-3-2.2-6.8-2.9-7.5-1.3c-0.3,0.8,0.1,1.9,1.1,2.9c2.7,2.8,5.4,9.8,7,17.9
		c1.3,6.6,1.5,9.8,1.2,21.6l-0.3,13.9L836,111c-5.7,16.8-11.6,29.3-13.4,28.7c-0.5-0.2-0.9-0.8-0.9-1.4c0-1.3-3.3-6.7-5.5-9.1
		c-0.8-0.9-2.1-1.7-2.9-1.7c-1.4,0-1.5,0.4-2.5,8c-0.5,4.1-4.7,17.9-9,29.9c-6,16.6-7.4,23.9-7.9,41.2c-0.3,9-0.7,15-1.2,15.2
		c-0.4,0.1-1.2-0.8-1.8-2.2c-2.5-5.7-9.3-10.2-14.4-9.4c-2,0.3-2,0.5-0.9,8.5c0.9,6.4-0.2,18-2.3,24.9c-1.7,5.6-7.8,22.1-9.4,25.4
		c-4.2,8.6-9,22-11.2,31c-2.4,9.6-3.3,19.5-3,32.7c0.2,8.5,0,12.4-0.5,12.4c-0.4,0-1.7-1.8-2.8-4.1c-1.1-2.3-3.3-5.5-4.8-7.2
		c-2.7-3-7.9-6.3-8.7-5.5c-0.2,0.2-0.2,3.3,0,6.9c0.3,5.2-0.1,9.3-2,20.7c-2.3,13.4-2.4,15.2-2.3,32.6c0.1,17.6,0.4,22.1,3.1,37.2
		c1.3,7.3,4.5,18.4,6.8,23.9c2.5,5.8,2.6,8.5,0.3,8.1c-4.5-0.8-5.2-0.5-5.5,1.6c-0.1,1.1,0.1,2.1,0.4,2.1c1.1,0,2.3,3.4,3.9,11.4
		c0.8,4.2,2.5,10.5,3.7,14.1c1.2,3.5,3.7,11.4,5.6,17.5c1.9,6.1,4.8,14.5,6.5,18.7c7.2,18,18.7,42.1,23.5,49.2
		c1.5,2.2,2.7,4.2,2.7,4.3c0,1.5,24.5,43,28.3,47.8c1.6,2,4.1,5.4,5.7,7.5c6.3,8.4,7.9,10.3,19.2,21.4
		c13.9,13.8,24.5,23.1,32.6,28.4c6,4,16.8,9.6,21.5,11.3c6.9,2.5,15.7,6.3,15.4,6.6c-0.4,0.4-3.1-0.3-13.3-3.7
		c-3.6-1.2-7.5-2.2-8.7-2.2c-1.2,0-4.3-0.7-6.9-1.5c-2.6-0.8-10.4-2.8-17.3-4.5c-13.2-3.2-32.1-9.2-39.4-12.5
		c-2.4-1.1-7.2-3.1-10.7-4.5s-8.1-3.4-10.3-4.4c-2.2-1-4.2-1.9-4.3-1.9c-0.2,0-3.9-1.7-8.2-3.8s-8.1-3.8-8.3-3.8
		c-0.9,0-12.9-6.3-21-11c-5-2.9-12.5-7-16.9-9.2s-8.4-4.4-9-4.9c-0.6-0.5-4.1-2.5-7.8-4.4s-7.4-4-8.2-4.5
		c-7.1-4.5-40.4-22-46.6-24.5c-3.4-1.4-8.2-3.5-14.3-6.3c-15.9-7.4-38.9-15-55.1-18.3c-25-5-40-4.3-54.7,2.5
		c-5.4,2.5-9.8,9.1-9.8,14.8c0,4.7,7,11.2,18.4,17.2c9.6,5,14.3,8.5,18.1,13.6c3.3,4.3,5.3,8.6,4.5,9.5c-0.3,0.3-5.3-1.1-11.2-3
		c-16.6-5.4-24-6.8-34.3-6.3c-9.6,0.4-16.3,2.5-22.8,7.1c-3.9,2.7-4.4,4.8-1.5,6.1c2.7,1.2,3.7,1.1,5.2-0.6c2.1-2.3,8.6-5,13.6-5.6
		c10.7-1.4,20.3-0.2,35.2,4.5c4.5,1.4,9.7,2.9,11.4,3.4c3.8,1,4,1.9,1,6c-5.6,7.7-12.1,10.5-25.9,11c-9.4,0.4-10,0.3-16.2-1.9
		c-6-2.1-12.2-5.5-20-10.7c-1.8-1.2-4.7-3.2-6.5-4.4c-1.8-1.2-4.1-2.6-5.1-3s-2.8-1.4-4-2.1c-3.3-2-15.9-7.3-20.6-8.7
		c-2.3-0.7-8.2-1.4-13.1-1.6c-11.6-0.5-18.9,1.1-30.9,6.9c-4.7,2.3-8.9,4.1-9.4,4.1c-0.5,0-3-0.7-5.5-1.4c-8.9-2.8-20.7-4-33.7-3.5
		c-17.6,0.7-21.6,1.8-18.7,5c1.4,1.6,1.4,1.6-0.1,1.2c-22.2-6.2-37.7-8.8-47.4-8c-19.1,1.6-30.3,6.5-33.7,14.7
		c-1.4,3.3-1.3,4.7,0.3,7.5c1.6,2.8,6.5,8.5,7.4,8.5c0.4,0,1.2,1.2,1.8,2.5c1,2.1,1,2.7,0.2,3.8c-0.8,1.1-1.2,1.2-2.1,0.4
		c-0.6-0.5-1.8-0.8-2.6-0.6c-0.8,0.2-2-0.2-2.6-0.9c-2.3-2.5-21.3-11.2-28.2-12.9c-3.7-0.9-19.1-3.5-24-4
		c-2.3-0.3-10.6-0.6-18.4-0.7c-11.3-0.2-14.8-0.5-16.7-1.5c-1.3-0.7-3.6-1.2-5.2-1.2c-1.6,0-6.9-0.6-11.8-1.2
		c-10.8-1.5-39.2-1.7-49.8-0.4c-12.9,1.6-22.9,3.3-24.3,4.1c-0.8,0.4-4.6,1.6-8.5,2.5c-3.9,1-7.9,2.2-9,2.8
		c-1.1,0.6-3.5,1.4-5.4,1.8c-10.9,2.7-30.4,12.1-45.3,21.7c-2.4,1.6-6.1,3.9-8.3,5.1c-2.1,1.2-4.9,3-6.2,3.9
		c-1.7,1.2-3.4,1.7-6.1,1.7c-2.1,0-3.8,0.3-3.8,0.7c0,0.7,10.6,8.3,11.6,8.3c0.2,0,0.7-0.7,1.2-1.4c1-1.8,0.2-4-1.2-3.5
		c-1.9,0.7-1.1-2.3,0.9-3.6c1.8-1.2,2.1-1.2,3.7-0.1c2.4,1.6,3.4,1.5,5.5-0.7c1-1,3.1-2.6,4.7-3.5c1.6-0.9,3.1-2.2,3.3-2.9
		c0.2-0.7,1.3-1.7,2.4-2.1c1.1-0.5,3.7-2,5.8-3.5c4.6-3.2,12.1-6.9,20.4-10c3.4-1.2,7.2-2.8,8.5-3.5c3.6-1.9,13.1-4.8,20.6-6.3
		c3.7-0.8,9.3-1.9,12.4-2.6c10.3-2.3,21.3-3.5,34.4-3.8c7.5-0.2,13.4-0.6,13.9-1.1c0.5-0.4,1.3-0.5,1.6-0.1
		c0.9,0.8,11.4,2.3,12.8,1.8c0.6-0.2,1.6-0.2,2.4,0.1c0.7,0.3,2.5,0.7,3.8,0.8c1.4,0.1,2.7,0.5,3,0.7c0.7,0.7-1.5,1.8-3.4,1.8
		c-0.9,0-2,0.6-2.3,1.2c-0.4,0.7-0.9,0.9-1.2,0.5c-0.5-0.9-10.7,1.6-18.6,4.5c-10.6,3.9-21.8,12.5-24.9,18.9
		c-3.5,7.4-8.5,11.1-18.5,13.5c-4.6,1.1-5.3,1.1-9.4,0c-7.9-2.3-9.8-6.6-7.1-16.1c1.8-6.1,1.6-9.6-0.5-13.9
		c-1.7-3.3-3.7-4.2-6.1-2.7c-0.9,0.6-0.8,0.9,0.8,2.2c1.7,1.4,1.8,1.9,1.7,8.2c-0.1,4.9-0.4,7.2-1.4,8.6c-1,1.5-1.1,2.8-0.7,5.5
		c0.7,4.5,3.6,8.3,8.1,10.6c1.9,0.9,3.6,2,3.9,2.4c0.6,0.9,5.4,0.9,6,0c0.3-0.4,1.4-0.8,2.5-0.8c1.1,0,3.7-0.8,5.8-1.9
		c2.1-1,4.2-1.9,4.8-1.9c1.1,0,7.7-5.1,8.2-6.2c0.1-0.3,1.6-2.1,3.2-4c1.6-1.9,2.9-3.8,2.9-4.3c0-1.7,5.3-7.2,8.5-8.8
		c1.7-0.9,3.8-2.1,4.6-2.8s3.2-1.9,5.2-2.6c2.1-0.7,5.3-2.2,7.3-3.1c1.9-1,4.5-1.8,5.8-1.8s7.2-0.7,13.3-1.6
		c11.3-1.6,15-1.5,21.2,0.4c1.9,0.6,6.1,1.8,9.3,2.7c3.3,0.9,7.8,2.5,10,3.5s5.1,1.8,6.3,1.8c1.3,0,4.2,1.1,6.6,2.6
		c2.4,1.4,5.1,2.6,6.1,2.6c1,0,3.5,0.5,5.5,1.1c2.1,0.6,4.4,1.3,5.2,1.5c15,3.5,24.4,4.6,31.3,3.4c4.3-0.7,5.6-0.7,7.2,0.2
		c1.1,0.6,5.5,2.9,9.9,5.1c4.3,2.2,9.2,4.5,10.9,4.9c3.2,0.9,16.7,3,19.9,3.1c4.8,0.2,7.3,0,9.4-0.7c12.3-3.8,12.6-4,16.2-7.4
		c4.6-4.4,5-7.6,1.4-11.2c-3.8-3.8-9.7-5.5-18.4-5.3c-10.4,0.2-10.5,0.2-11.4-1.7c-1.1-2.3,0.5-5.2,4.9-9.3c3.1-2.9,11.8-7.7,14-7.7
		c0.5,0,1.5-0.8,2.1-1.7l1.1-1.7l7,2.5c6.3,2.2,19.6,6.6,25.8,8.4c5.5,1.6,18.6,0.2,22.2-2.4c1.2-0.9,3.3-1.5,5.2-1.5
		c1.8,0,4.9-0.8,7.2-1.9c4.7-2.2,4.8-2.2,7.9-0.7c4.6,2.2,23.4,8.8,29.1,10.2c8.4,2.1,12.7,2.4,19.6,1.4
		c10.9-1.5,23.2-7.4,21.9-10.6c-0.3-0.7-1.8-1.6-3.4-2.2c-2.6-0.9-3-0.8-4.6,0.6c-5.1,4.7-18.4,6.1-31.1,3.2
		c-12.7-2.9-27-8.3-26.5-10c0.5-1.5,10.5-5,17.1-5.9c7.5-1.1,19.6-0.5,25.2,1.2c8.6,2.6,21.5,8.7,27.9,13.4c6.4,4.7,8.6,6,17.8,11
		c6.4,3.4,9.3,4.3,18.1,5.7c5.5,0.8,8.5,0.9,10.2,0.4c1.3-0.4,4.5-1.1,7.1-1.6c2.6-0.5,6.2-1.5,8-2.2c4.4-1.9,13.5-9.8,15.9-13.9
		c2.2-3.7,2.6-3.8,9-1.1c1.6,0.7,4.5,1.7,6.4,2.3c1.9,0.6,3.7,1.3,4.1,1.6c0.4,0.3,2.8,1.1,5.4,1.8c2.6,0.7,7.8,2.2,11.6,3.5
		c3.8,1.3,10.2,3.1,14.1,4.2c3.9,1,9.3,2.7,12,3.7c9.6,3.5,31.9,9.3,48.8,12.5c2.3,0.4,5.5,1.1,7.1,1.4c1.6,0.3,9.4,1.8,17.2,3.3
		c7.8,1.5,17.3,3.4,21,4.2c3.7,0.8,7.7,1.5,9,1.5c1.2,0,4.1,0.4,6.4,0.7s7.2,1.1,10.9,1.6c3.7,0.5,8.4,1.1,10.5,1.4
		c34.1,4.9,60.8,7,61.3,4.9c0.2-0.7-6.8-3.1-16.7-5.9c-2.3-0.6-6.2-1.3-8.6-1.6s-11.6-1.4-20.2-2.6c-8.7-1.2-21-2.7-27.4-3.4
		c-6.4-0.7-14.3-1.8-17.6-2.4s-10.6-1.9-16.1-2.9s-11.8-2.3-13.9-3c-2.1-0.6-6.8-1.7-10.5-2.3c-7-1.2-18.7-3.8-36.4-7.9
		c-5.6-1.3-11.3-2.6-12.8-3c-9-2.1-30-7.7-34.6-9.3c-3-1-9.5-3.1-14.5-4.6c-11.1-3.4-19.1-6.3-20.7-7.6c-0.8-0.6-1.1-1.8-0.8-3.3
		c0.5-3.2-4.3-12.5-8.4-16.3c-3.2-3-7.8-6.1-21.8-14.7c-9.7-5.9-11.7-8.9-9.3-13.4c3.2-6,9-8.1,23.2-8.6c11.4-0.4,22.6,1,39.7,5.2
		c8.5,2.1,36.5,11.7,38.6,13.2c0.5,0.4,3,1.4,5.7,2.4c2.7,0.9,5.2,2,5.6,2.3s5.1,2.9,10.5,5.6c23.8,12.3,30.4,15.8,37.1,19.7
		c3.9,2.3,10,5.5,13.5,7.3c3.5,1.7,10.6,5.5,15.7,8.4c21.2,11.8,54,27.7,72,34.8c3.9,1.5,11,4.4,15.8,6.3c4.7,1.9,11.7,4.5,15.4,5.8
		c3.7,1.2,7.1,2.5,7.5,2.9c0.4,0.3,2.1,0.8,3.8,1s6,1.3,9.8,2.4c16.7,4.9,29.8,7.5,43.5,8.6c7.3,0.6,9.3,0.5,10.5-0.3
		c1.3-0.9,1.7-0.9,2.3,0c0.5,0.8,3.7,1.3,11.2,1.8c5.8,0.4,13.1,1.3,16.4,1.9C946.2,709.1,946.2,709.1,949.5,705.8z M362.7,635.2
		c0-0.9,28.9-0.9,33.5,0c2,0.4,5.1,0.9,7,1.1c3.7,0.5,5.9,1.5,5.1,2.3c-0.5,0.5-12.2,1.5-20.4,1.7c-2.1,0.1-5.9-0.2-8.6-0.7l0,0
		C372.4,638.6,362.7,636,362.7,635.2z M277.2,667c0,0.6-3,0.3-9-0.9l0,0c-1.9-0.4-6.4-1.3-10.1-2c-3.7-0.7-7.1-1.5-7.5-1.8
		c-0.4-0.3-2.1-1-3.8-1.5c-1.7-0.5-3.7-1.3-4.5-1.9c-0.8-0.5-3.5-1.5-6-2.2c-2.5-0.7-5.1-1.6-5.8-2c-2.6-1.4-7.7-2.9-9.7-2.9
		c-1.1,0-2.2-0.4-2.5-0.8c-0.3-0.4-1.2-0.7-2.1-0.6c-1,0.1-1.7-0.2-1.9-1.1c-0.2-1.1,0.2-1.2,3.4-1c2,0.2,6.1,0.5,9.1,0.8
		c3,0.3,7.6,0.9,10.1,1.5s7.2,1.6,10.2,2.2c7.6,1.6,14.1,4.1,22.1,8.3C275.6,664.4,277.2,665.5,277.2,667z M343,637.3
		c0.2,0.7-0.3,0.8-1.8,0.5c-1.7-0.3-3.3,0.4-7.7,3.3c-6.9,4.5-11.3,9.2-13.1,13.9c-1.9,5.1-0.7,7.6,4.7,10.1
		c3.6,1.7,4.5,1.8,7.9,1.1c9.7-1.9,20,0.7,20,5.1c0,2.1-2.9,5.2-6.6,6.8c-4.5,2.1-9.6,2.8-16.6,2.4c-3.1-0.2-6.1-0.4-6.8-0.4l0,0
		c-2.5-0.1-10.4-2.2-12.5-3.2c-1.2-0.6-2.6-1.1-3.2-1.1c-1.5,0-11.3-4.9-13.8-6.9c-2.1-1.6-2.1-1.8-1.2-5.1
		c1.2-4.6,0.5-6.7-3.2-10.4c-4.2-4.1-5.8-6.7-5.8-9.2c0-6.8,19.2-13.5,34.9-12.1C326.2,632.6,342.6,636.1,343,637.3z"/>
	<path class="st0" d="M84.7,645.9l-1.7,1.4c-1.6,1.3-1.9,1.3-4.5,0.2c-3.4-1.4-11.6-1.7-15.2-0.4c-1.5,0.5-3.2,1.9-4,3.2l0,0
		c-1.4,2.4-4,3-4.7,1.1c-1.5-3.9,7.7-9.6,15.3-9.4c5.5,0.1,8.1,0.7,11.8,2.5L84.7,645.9z"/>
</g>
</svg>
