<?xml version="1.0" encoding="UTF-8"?><svg xmlns="http://www.w3.org/2000/svg" viewBox="0 0 723.3 248.96"><defs><style>.d{fill:#fff;}.e{fill:#4a4e69;}.f{fill:none;}</style></defs><g id="a"/><g id="b"><g id="c"><path class="d" d="M697.36,246.3l-675.38-1c-4.76,0-8.62-3.86-8.62-8.62l-.98-136.33c-.01-1.69-1.38-3.05-3.07-3.05h-.78c-3.96,0-7.17-3.21-7.17-7.17V9.92C1.36,5.16,4.6,.3,9.36,.3L359.36,3.3,712.74,1.3c4.76,0,8.62,3.86,8.62,8.62l.9,83.09c.06,5.11-4.08,9.29-9.19,9.29h-.02c-.94,0-1.7,.76-1.7,1.69l-.99,136.31c0,4.76-8.24,6-13,6Z"/><g><path class="f" d="M183.14,206.13c0,.4,.9,1,2.1,1.4,2.9,1.2,3,1.1,1-.6-1.9-1.6-3.1-1.9-3.1-.8Z"/><path class="f" d="M501.24,213.33l-3.7-.5-.5,2.8c-.4,2.2-.2,3,.9,3.8,1.6,1.2,3.5,1.3,5.5,.3,.8-.4,1.9-1.7,2.6-2.9,1.3-2.5,1.1-2.7-4.8-3.5Z"/><path class="f" d="M616.54,211.43c3.8,2.7,6,4,8.7,4.7,4.2,1.1,12.3,.3,16.1-1.6,4-2,3.5-2.6-.8-1.1-1.8,.6-5.9,1.2-9.1,1.2-6.3,0-10.7-1.4-15.5-5.1l-2.5-1.9-8.4,8.1c-4.6,4.5-8.7,8.4-9.1,8.8-.4,.4,1-.2,3.1-1.3,2.1-1.2,6.7-4.5,10.1-7.4,5.2-4.4,6.4-5.2,7.4-4.4Z"/><path class="f" d="M218.64,208.03c2-1.1,3.4-2.1,3.2-2.3-.5-.5-4.5,1.7-5.7,3.1-.6,.7,.5,.3,2.5-.8Z"/><path class="f" d="M208.64,208.03c-.6-.8-1.7-1-3-.8-2.4,.5-2.9-.4-2.9-4.9,0-2,.4-3.1,1.2-3.4,2.1-.8,5.1,.8,7,3.7l1.8,2.8,2.2-2.2c1.9-1.9,2.1-2.4,1.3-3.4-1.5-1.8-6.4-2.8-14.2-2.8-6,0-7.8,.2-10.8,1.7l-3.6,1.7,2.4,2.3c2.3,2.3,2.4,2.3,3.4,.8,2.5-3.5,4.3-4.9,6.5-4.9h2.2l-.2,4.3-.2,4.3h-2.6c-3.5,0-3.7,1.6-.9,6,1.2,1.9,2.7,5.2,3.2,7.2,.7,3.6,2,4.5,2,1.6,0-1.8,2.6-7.8,4.6-10.6,1.3-1.8,1.4-2.4,.6-3.4Z"/><path class="f" d="M166.24,228.73c-1.8,0-3.3,.3-3.3,.8s1.7,.7,3.8,.7c2.3,0,3.6-.3,3.3-.7-.3-.4-2-.8-3.8-.8Z"/><path class="f" d="M523.54,206.93l-2.6,.5v-4.1c0-3.4,.2-4.2,1.5-4.6,2.1-.7,5.7,1.5,6.8,4.1,.5,1.3,1.2,2.3,1.5,2.3s1.5-1,2.7-2.3c1.8-1.9,2-2.4,1.1-3-2.2-1.4-6.5-2.3-13.1-2.7-6.9-.4-11.6,.3-14.2,2.3-1.4,1-1.4,1.1,.9,3.3l2.4,2.2,1.9-2.9c1.9-2.9,4.6-4.2,6.8-3.4,.8,.3,1.1,1.6,1.1,4.5,0,3.4-.2,4.1-1.5,4.5-.8,.2-1.3,.1-1.1-.3,.6-.9-.9-.9-2.7,.1-1.4,.7-1.3,1,1.7,6.4,2.5,4.6,3.2,6.6,3.5,10.7,.09,1.11,.38,2.01,.73,2.75-.09-1.09-.02-2.47,.17-4.25,.4-3.5,1.3-5.9,4.7-11.6,2-3.4,1.1-5.1-2.3-4.5Z"/><path class="f" d="M615.44,223.23c-5.4,2.3-11.8,4.1-15.6,4.5l-4.5,.5,2.6-1.5c1.4-.8,3.5-1.9,4.5-2.5,5.2-2.9,10.5-6.9,10.5-8,0-1.3,.2-1.4-5.3,2.9-4.8,3.8-11.4,7.3-15.9,8.5-5.8,1.5-5.8,1.4-.7-1.7,4.9-3,22.2-19.4,21.7-20.6-.1-.4-4.8,3.7-10.3,9.1-7.4,7.2-11.3,10.4-14.6,12l-4.5,2.2h-25.9c-14.2,0-27-.2-28.3-.4-4.9-.8-4.8-5.9,.2-10.7l2.6-2.5,1.7,3.4c1.9,4,4.1,5.2,9.6,5.2,5,.1,6.3-1.1,5.7-5-.3-1.7-.8-3.7-1.2-4.4-1.1-2.1,1-2.4,4.1-.6,1.5,.9,3.5,2.7,4.4,4.2,2.1,3.1,3.1,3.3,2.6,.5-.2-1.1-.4-3.8-.4-5.9-.1-3.4-.3-3.9-2-4.7-1.1-.5-4-1.1-6.6-1.3-2.5-.3-5-.8-5.5-1.2-3.9-3.1,5.3-5,11.6-2.4l2.4,1,.3-4.2c.2-2.3,.2-4.5,0-4.8s-2-.6-4.1-.6c-2.9,0-5.2,.7-9.3,2.7-5,2.5-5.6,2.6-6.8,1.6-3.4-3-6.4-3.7-16-4.1-9.1-.4-9.7-.3-13.9,1.6-2.4,1.1-4.6,2.4-4.9,2.8-.3,.5-2.3-.1-5.6-1.7-4.1-2-6-2.5-9.7-2.5h-4.5l-.2,4.7-.2,4.7,2.2-1.2c3.6-1.8,13.6-1.4,13.6,.6,0,2.1-1.5,2.8-6.4,3-2.9,.1-6.1,.7-7.3,1.2-2,.9-2.1,1.1-2.1,6.9v6l2.9-3.3c2.8-3.1,7.2-5.7,7.9-4.5,.2,.3,0,1.9-.5,3.7-1.2,4.6-.4,6.7,2.6,7.3,5,.9,11.2-2.3,12.7-6.6,.7-2,2.6-1.6,5,.9,2.6,2.8,3.2,6.3,1.5,8.4l-1.3,1.6-152.4-.1c-115-.1-152.7-.3-153.5-1-2.2-1.9-.8-6.9,3.1-10.4q2-1.8,3.1-.4c.6,.8,1.1,1.8,1.1,2.3s.8,1.6,1.9,2.6c2.2,2.1,10.1,3.1,12,1.5,1.3-1.1,1.5-4.8,.3-8.2-.5-1.3-.7-2.6-.4-2.8,.7-.7,5,2,7.9,5.1l2.9,3.1-.2-5.5c-.2-5.2-.4-5.6-2.4-6.8-1.4-.9-3.7-1.3-6.7-1.3-3.8,0-4.7-.3-5.5-1.6-1.3-2.1-.3-3,3.8-3.5,2.9-.3,6.3,.2,9.6,1.6,.9,.4,1.1-.3,1.1-4.2v-4.7l-2.6-.2c-3.5-.3-8.4,1.1-12.4,3.7l-3.4,2.1-3.4-2.2c-4.1-2.6-7.6-3.3-16.3-3.2-7.2,.1-13,1.6-15.2,3.9-1.7,1.9-2,1.8-6.2-.3-4-2-11.1-3.8-13.3-3.4-1.2,.2-1.5,1-1.7,4.9l-.2,4.7,2.6-1.1c4.2-1.7,13.2-1.1,13.2,.9s-1.6,2.6-6.3,2.8c-3.4,.1-5.2,.5-5.7,1.2-.4,.6-.7,.8-.7,.5s-.7-.2-1.5,.2c-1.3,.7-1.5,1.6-1.5,6,0,2.9,.2,5.2,.4,5.2s1.5-1.2,2.8-2.7c2.1-2.3,7-5.3,7.7-4.6,.1,.1-.1,1.9-.4,4-1.1,6.9,0,8.2,6.1,7.4,4.3-.6,6.7-2.2,8.4-5.9,1.3-2.7,2.2-3.3,3.1-1.9,.3,.4,1.2,1.1,2.1,1.6,1.2,.6,.9,.1-.9-1.9-1.9-2-2.4-2.9-1.8-3.6,.6-.6,1.5,0,3.1,2.4,2.3,3.1,3.1,5.8,1.5,4.8-.6-.4-.6-.1,0,1,.5,.8,.8,2.6,.8,3.8,0,3.9-2.2,4.7-13.1,4.6-6.5,0-9.3,.2-9,.8,.6,1,22.8,.7,24.1-.3,2.2-1.6-.3-11.3-4.3-16.9-.9-1.2-1.6-2.7-1.6-3.3,0-1.8,2.2-3.5,4.4-3.5,1.8,0,2-.3,1.9-2.4-.1-4.5-3.6-3.5-6.4,1.8l-1.5,2.8-3.5-3.3c-3.3-3.2-3.4-3.4-2.2-4.8,2.8-3.1,15.4-5.2,22.5-3.7,4.1,.9,9.4,3.5,9.4,4.6,0,.7-6.5,7.3-7.2,7.3-.2,0-.3-.4-.3-1,0-1.6-4.6-6.6-5.9-6.4-.8,.2-1.2,1.1-1.3,2.9-.1,2.5,.1,2.6,1.9,2.4,1.3-.2,2.4,.2,3.4,1.3,1.4,1.5,1.3,1.7-1.7,7.7-3.2,6.4-4.5,12.1-3.2,14.1,.6,1,19.7,1.1,157.3,1.1h156.6l.2-3.4c.3-4.1-.9-8.1-4.1-13.5l-2.4-4.1,1.6-1.7c.9-.9,2.4-1.7,3.4-1.7,1.5,0,1.7-.4,1.7-2.6,0-3.6-2.3-3.5-5,.2-1.1,1.5-2.3,3.1-2.7,3.5-.7,.8-6.6-4.6-6.6-5.9,0-1.1,2.9-3,6.5-4.1,2.1-.7,5.5-.9,10.5-.6,8.1,.4,11.6,1.3,14.5,3.5l1.9,1.5-3.4,3.4c-1.9,1.9-3.6,3.4-3.9,3.4s-1.3-1.3-2.2-2.8c-3.3-5.5-5.9-6.3-5.9-1.8,0,2.5,.2,2.9,1.5,2.5,.9-.2,2.2,.3,3.4,1.5l1.9,1.9-2.2,3.5c-3.8,6-5.9,14.9-4,16.9,1.3,1.5,60.7,1.8,71.7,.7,10.2-1,21.8-4.5,21.8-6.5,0-.5-.5-.6-1.3-.2Zm-426.2-5.7c-1.8,4.1-7.7,5.8-10.6,3-1.6-1.6-1.7-2.3-1-5.9,.6-2.9,2.2-3.4,7.5-2.4,4.7,1,5.4,2,4.1,5.3Zm-2.6-11.9c3.7,2.2,4.7,3.3,4.7,4.7,.1,1.5-1,1.3-5.8-1-4.1-2-4.7-3-2.8-4.5,.9-.7,1.7-.6,3.9,.8Zm41.4,8.7c1.1,3.5,.2,5.8-2.7,6.9-2.1,.9-3,.9-5.2,0-2.3-.9-4.9-4.5-4.6-6.3s4-3.3,8.5-3.4c2.9,0,3.1,.1,4,2.8Zm-7.9-9.7c1.7-.7,2.3-.7,3.2,.2,1.2,1.2,.7,3.9-.6,3.2-.4-.2-2.5,.6-4.7,1.8-3.6,2.1-4.1,2.2-4.5,1.1-.5-1.4,2.9-4.7,6.6-6.3Zm-13.7,14.7c0-1.1,5.5-8.5,6.1-8.2,.8,.5,.9,2.6,0,2.6-.3,0-1.6,1.3-2.8,3-2,2.6-3.3,3.7-3.3,2.6Zm305.1-7.8c.9,0,4.7,5.9,4.4,6.9-.1,.3-1.3-.7-2.6-2.3-2.4-3-3-4.6-1.8-4.6Zm-4.5,6c-2,3.6-5.2,5-9,4-1.7-.4-3.1-4.1-2.5-6.5,.6-2.3,1.7-3.3,3.7-3.4,1.9,0,9.4,2,9.4,2.6,0,.2-.7,1.7-1.6,3.3Zm3.1-7.2c0,1.6-1.3,1.3-6.2-1.2-3.8-2-4.2-2.4-3.5-3.7,.4-.8,1.2-1.5,1.6-1.5,1.4,0,8.1,5.3,8.1,6.4Zm35.6,10.6c-1.5,1.4-6.3,1.4-8.4-.1-2.1-1.4-4.3-5.5-3.4-6.3,1.1-1,7.3-2.8,9.2-2.7,3.3,.2,5.1,6.5,2.6,9.1Zm-7.3-16c2.4-1.3,2.5-1.3,3.5,.2,1.4,1.9,.8,2.5-5,5.1-3.9,1.7-4.4,1.8-4.8,.7-.5-1.3,1.9-3.6,6.3-6Zm-13.2,14.7c-.1-2,4.6-8.4,5.4-7.5,.5,.5,.1,1.6-1.4,3.3-1.2,1.4-2.6,3.2-3.1,4-.7,1.2-.9,1.2-.9,.2Z"/><path class="f" d="M501.14,206.03c0,.5,4.8,2.9,6,3.1,.2,0-.6-.8-1.9-1.8-2.2-1.8-4.1-2.4-4.1-1.3Z"/><path class="f" d="M636.34,205.03c6.2,1.7,6.6,1.3,1.4-1.3-5.7-2.9-11.5-7.8-14.4-12.5l-2.1-3.4v2.5c0,6.5,5.9,12.2,15.1,14.7Z"/><path class="f" d="M614.84,192.23c-5.8,7.2-.5,17.6,10.5,20.6,4.3,1,12,.5,16.2-1.1,4-1.6,3.8-3.7-.4-4.3-5.3-.8-12.3-3.4-15.4-5.6-3.2-2.3-6.2-7.5-6.2-10.8,0-2.8-1.8-2.4-4.7,1.2Z"/><path class="f" d="M537.74,207.93c.9-.2,2-.8,2.5-1.4,1.3-1.6-.4-1.3-2.4,.4q-1.8,1.5-.1,1Z"/><path class="f" d="M541.44,220.33c2,.1,2.7-.3,3.3-1.7,.6-1.4,.6-2.4,0-3.8-.8-1.7-1.2-1.9-3.7-1.4-1.5,.3-3.6,.8-4.5,1.1-1.6,.6-1.7,.7-.6,2.8,1.3,2.5,2.1,2.9,5.5,3Z"/><path class="f" d="M180.24,213.73c-1.1,.4-1.6,1.2-1.6,2.7,0,4,2.6,5.1,6.7,2.9,2-1.1,3.6-3.8,2.7-4.7-.8-.8-6.3-1.5-7.8-.9Z"/><path class="f" d="M69.04,215.33c-1.6-1.6-2.9-1-2.9,1.2,0,1.1-.5,2.8-1.2,3.7-1.1,1.5-1,1.6,0,1.2,.7-.2,1.6-1,2-1.8,.4-.8,1.2-1.4,1.9-1.4,1.3,0,1.4-1.6,.2-2.9Z"/><path class="f" d="M74.84,216.93c-1.9-.2-2.8-1.6-1-1.7,.5,0,1.7-.7,2.7-1.5,2-1.7,2.1-5.8,.1-5.4-.6,.1-.9,0-.6-.3,1-1-1.1-2.6-3.6-2.6s-3.6,1.1-4.8,5.2l-.6,1.9-.1-1.8c-.1-2.4-2.9-5.3-5.1-5.3-2.5,0-4.5,3.3-3.6,5.9,.9,2.6,4.1,3.8,6.6,2.4,3.9-2.1,8.3,2.7,5.5,5.8-1,1.1-1,1.5,.4,3.7,1.3,2,2,2.4,3.9,2.2,1.6,0,2.7-.7,3.5-2.1,1-1.9,1-2.2-.1-4.1-.7-1.2-2-2.2-3.2-2.3Z"/><path class="f" d="M669.54,168.83h4.2l3-6.5c1.7-3.5,2.9-7.2,2.8-8-.1-.9-1.2-2.1-2.3-2.7-1.9-1.1-2.2-1-3.5,.3-.8,.8-2.5,4.2-3.8,7.5-1.3,3.3-2.9,6.8-3.5,7.7q-1.1,1.7,3.1,1.7Z"/><path class="f" d="M73.24,197.03c0-6.5,.2-7.3,2.6-12.1,2.6-5.2,6.8-9.5,9.2-9.5,2,0,1.6-2.7-.6-4.4-5.4-4.3-14.6,.9-17.2,9.6-2.5,8.7,.3,23.3,4.5,23.3,1.5,.1,1.5-.3,1.5-6.9Z"/><path class="f" d="M654.24,219.53c-2.1-1.3-1.9-3.2,.7-5,2.4-1.7,4.2-2,4.9-.8,1.4,2.2,7.1-1.1,7.1-4.1,0-3.9-4.6-5.5-7.5-2.6-.8,.8-1.5,2.3-1.5,3.4,0,1-.3,1.9-.8,1.9-.8,0-1-.9-.8-3,.2-2-2.5-3.8-5.2-3.6-5.6,.6-6.9,7.6-1.6,9.3,2.5,.8,2.5,1.8,.1,1.8-2.1,0-4.6,3.7-4.1,6,.4,1.8,2.2,3.8,3.5,3.8,.3-.1,1.4-.5,2.4-.9,.47-.19,1.02-.58,1.56-1.07l.53-.53c.4-.44,.75-.92,1.01-1.4,1.1-2.1,1.1-2.3-.3-3.2Z"/><path class="f" d="M122.44,221.93c2.3,1.2,4.2,2.3,4.3,2.3,0,0-3.9-3.9-8.7-8.6l-8.7-8.6-2.2,2.2c-3.8,3.7-8.2,5.2-15,5.2-4.3,0-6.9-.4-9.2-1.4-1.8-.8-3.2-1.1-3.2-.7,0,1.3,6.3,3.6,11.3,4.1,5.5,.5,9.8-.6,13.9-3.8,1.3-1,2.6-1.9,2.9-1.9s1.7,1.2,3.2,2.6c5.4,5,7.3,6.4,11.4,8.6Z"/><path class="f" d="M98.14,180.93c-1.4-.2-2.3-.8-2.8-2-1-2.6-1.9-2.9-5.4-1.3-4,1.8-7.7,5.9-10.5,11.9-2.3,5-4.1,12.9-3.4,14.8,.8,1.7,2.2,1.5,7.7-1,9.5-4.3,17.2-13.2,16.7-19.3-.2-2.5-.5-2.9-2.3-3.1Z"/><path class="f" d="M99.24,192.63c-3.3,5-8.1,8.9-14.3,11.7-4.7,2.1-4.4,2.3,1.5,.9,2.3-.5,5.1-1.5,6.4-2.2,5.4-2.8,9.4-8.4,9.4-13,0-1.7-.4-1.4-3,2.6Z"/><path class="f" d="M106.04,213.43c-4.7,4.7-15.6,5.8-23,2.4-2.4-1.1-4.7-1.9-5.1-1.6-1.5,.9-.4,2.4,4,5.3,6.2,4,8.4,4.8,14.9,5.5,.8-.1,2.9-.6,4.8-1.3,2.5-.8,4.1-2,5.4-3.9,2.9-4.3,2.1-9.5-1-6.4Z"/><path class="f" d="M112.54,223.23c6.2,2.4,8.4,3,7.5,2.2-.2-.2-2.6-1.8-5.4-3.7-4.9-3.2-5.1-3.3-5.9-1.9-1,1.8-1.3,1.5,3.8,3.4Z"/><path class="f" d="M87.94,206.33c-2.3,.5-5.1,1.2-6.2,1.6-1.2,.4-1.9,.4-1.6-.1,.2-.4,.1-.7-.4-.7-1.4,0-.9,2.9,.7,3.7,1.7,.9,9.4,2.9,11.6,3,.7-.1,3.3-.6,5.7-1.3,10.1-2.8,15.5-12.3,11.1-19.5-1.5-2.5-3.5-4-5.2-4-.5,0-.7,.5-.5,1.1,.7,1.8-1,6.4-3.4,9.2-3.3,3.7-6.9,5.9-11.8,7Z"/><path class="f" d="M151.94,228.83c-14.5,.1-18-1.6-33.1-16.5-4.2-4.2-8-7.4-8.4-7.2-.9,.6,14.4,15.9,19,19.1,2,1.4,4.5,2.7,5.6,3.1,1.8,.5,1.8,.6,.3,.7-2.2,.1-10.5-3-14.7-5.4-1.9-1.1-5-3.4-6.9-5-1.9-1.7-3.6-2.9-3.8-2.7-1.6,1.6,9.4,9.6,17,12.3q2.5,.9-1.5,.5c-5.5-.5-12.4-2.3-15.9-4.1-1.8-.9-3-1.2-3.3-.7-1.2,1.9,12.7,6.1,23.3,6.9,8.8,.5,31,.4,31.5-.3,.4-.6-2.4-.8-9.1-.7Z"/><path class="f" d="M225.74,219.13c1.2-1,1.4-1.9,1.1-3.4-.6-2.7-1.6-3.1-6-2.3-4.2,.8-4.8,2.1-2.1,5,2.1,2.4,4.8,2.6,7,.7Z"/><path class="f" d="M619.84,159.33c-.6,.6,3.8,9.4,4.7,9.4,.1,0-.9-2.2-2.1-4.8-1.3-2.7-2.5-4.7-2.6-4.6Z"/><path class="f" d="M67.04,171.83l1.6,1.2-2,2.4c-1.1,1.3-2.3,3.6-2.8,5.1-1,3.7-.9,10.4,.3,13.7,.9,2.4,.9,2.2,.6-3.2-.8-12.9,5.6-23.1,14.7-23.1,2.8,0,3.7,.4,5.8,2.6,2.9,2.9,3.4,5.7,1,5.7s-7.9,5.6-9.8,10c-1.7,3.9-3.1,13.1-2.2,13.7,.3,.2,.7-1.2,1-3,1.1-7.7,7.6-17.4,14-20.7,5.9-3,12.3-13.2,11.9-18.9-.2-3.4-.9-3.7-4.9-2.5-3.4,1.1-2.2-2,2.6-6.9,5.3-5.4,6.6-5.9,5.8-2.3-.3,1.3-.5,3.4-.5,4.5s.1,4,.2,6.4c.2,5-2.1,10.5-6.5,15.7-1.7,1.9-2.5,3.5-2.2,4.3,.3,.7,.7,1.2,1,1.2,1,0,5.2-5,9.8-11.8,7.1-10.4,13.9-15.6,18.8-14,1.1,.4,1.6,0,2.2-1.5,1-2.7,3.6-2.5,6.4,.5,3.1,3.3,3.1,6.1,0,6.4-1.2,.1-2.9,.8-3.6,1.5-1.7,1.5-3.8,.5-4.1-2.1-.6-3.9-9.2,.2-14.1,6.7-9.8,13-12.2,16.5-11.5,16.5,.4,0,1.1,.7,1.4,1.7,.6,1.6,.7,1.5,2.5-1.3,5.7-8.8,15.7-13,20.1-8.3,1.4,1.4,2.1,1.7,3.4,1.2,1.8-.7,2.9,.2,2.2,1.9-.6,1.5-7.2,5.8-8.1,5.2-.4-.3,1.1-1.6,3.2-3,3.5-2.2,3.7-2.5,2-2.6-1.1,0-2.6-.7-3.3-1.5-1.7-1.8-5.4-2.6-7.9-1.6-1.7,.7-1.5,.8,1.6,.8,2.1,0,4,.5,4.7,1.2,1.3,1.3,1.6,4.1,.4,4.1-.4,0-.8-.6-.8-1.3,0-1.9-1.5-3.2-3.8-3.2-2.7,0-8.9,4.9-12,9.5-3.1,4.5-2.9,4.3-3.4,3.8-.8-.8,5.3-8.7,9-11.6,1.2-.9,1.8-1.7,1.3-1.7-1.8,0-11.4,11.3-11.3,13.3,0,.3,1.4,1.3,3.1,2.1,4.7,2.2,6.2,4.8,6.2,10.4v4.6l9.8,9.3c9.6,9.2,14.5,12.6,19.8,13.6,1.5,.3,14.3,.5,28.5,.4,21.5-.2,26.3-.4,26.8-1.3,1.2-1.9,.7-4.4-1.5-6.8l-2.2-2.4-.5,2.1c-.9,3.4-4.9,6.4-9.6,7-2.2,.3-4.8,.3-5.7,0-2.2-.7-3.2-3.7-2.6-7.7,.5-3.2,.4-3.3-1-2.5-.8,.5-2.7,2.2-4.1,3.8-1.4,1.7-3,3-3.4,3-1.3,0-1.7-2.8-1.5-8.6q.2-5.2,3.1-6.7c1.6-.8,5-1.7,7.5-2,3.3-.4,4.2-.7,3.2-1.1-1.7-.8-9.5,0-10.5,1-.4,.4-1.4,.8-2.1,.8-1.2,0-1.3-.7-1.3-6,0-4.9,.2-6.1,1.3-6.7,1.7-.9,8.2-.3,10.8,1.1,1.1,.6,2.4,1.1,2.9,1.1s1.7,.6,2.7,1.4q1.8,1.4,7.2-1.3c5.3-2.7,5.4-2.7,14.5-2.7s9.3,.1,13.9,2.4l4.8,2.4,4.3-2.3c4.9-2.6,13.5-3.8,14.6-2.1,.3,.5,.7,3.3,.8,6.1,.3,5.9-.4,6.7-4.2,4.8-1.5-.8-3.7-1.1-6.2-1-5.8,.3-5.3,1.8,.8,2.3,3.1,.2,6.1,.9,7.5,1.8l2.4,1.4v6.6c0,6-.1,6.6-1.4,6.6-.8,0-2.2-.9-3.2-2.1-1-1.1-2.7-2.9-3.8-3.8l-2-1.8,.4,4.5c.4,4.2,.3,4.6-1.6,5.8-1.6,1-3,1.2-7,.9-4.5-.4-5.2-.6-7.1-2.9-1.1-1.4-2.1-2.9-2.1-3.4,0-1.8-2.2-.9-3.7,1.6-1.7,2.8-2,5.4-.7,6.2,.5,.3,8.2,.5,17.1,.5,23.9-.1,75.5-.1,186.8,.1,95.9,.2,99.4,.1,100.7-1.2,1.6-1.6,1.3-3.4-1.2-6.9l-1.5-2.2-1.2,1.8c-3,4.6-4.9,6-9,6.6-7.4,1.2-10.3-1.1-9.4-7.2,.3-1.9,.1-3.2-.3-3.2s-2.4,1.8-4.5,3.9c-2.6,2.7-4.1,3.7-4.6,3.1-.5-.5-.7-3.4-.6-7.1l.2-6.3,3.3-1.7c2.3-1.2,4.7-1.7,7.7-1.7,5,0,5.2-1.2,.2-1.9-2.5-.4-4.1-.1-6.8,1.1-1.9,.9-3.8,1.4-4.2,1.2-.4-.2-.7-2.9-.7-6,0-5.3,.1-5.6,1.9-6.5,2.6-1.2,9.9,.3,15.1,3.2,3.2,1.7,4,1.9,4.7,1.1,3.4-4.1,20.1-6.2,27.7-3.4,2.1,.8,5,2.1,6.4,3l2.6,1.6,2.9-1.8c4.9-3.1,12.3-4.8,15.5-3.6,1.9,.7,1.9,1,1.9,6.6,0,3.2-.2,6.1-.4,6.4-.2,.3-1.7-.2-3.4-1.1-4.3-2.3-12.8-2.1-11.4,.3,.3,.4,1.5,.6,2.9,.3,2.6-.5,9.6,1.3,10.8,2.8,.4,.5,.9,3.7,1.1,7.2,.5,7.8-.4,8.4-5,3.6-1.8-1.9-3.7-3.5-4.1-3.5s-.6,1.4-.3,3.6c.6,5.5-.6,6.6-7.2,6.4-6-.1-9-1.7-10.6-5.5-.5-1.2-1.2-2.3-1.6-2.3-.9,0-4.4,5.4-4.4,6.8,0,2.9,1.3,3,29,2.8,33.8-.3,31.2,.5,45.7-13.6,9.5-9.3,10.1-10,9.7-12.2-.6-3,1.3-9,3.4-11.3,.9-1,2.8-2,4.2-2.2,3.1-.6,3.3-2.3,.6-5.1-1-1.1-1.9-2.2-1.9-2.4,0-.8-6.5-7.2-8.2-8.1-1-.5-3.1-1.2-4.6-1.4-2.3-.4-3.1-.1-5.6,1.8-1.6,1.3-3.3,2.1-3.9,1.9-2-.8-.9,.7,2,2.8l2.9,2.1-.9-2.3c-.8-2.1-.7-2.5,.9-3.8,2.5-2,5.2-1.8,9.2,.7,3.3,2.1,8.6,7.8,10.4,11.2,1.4,2.7-.4,2-2.1-.8-1.8-3-8.5-9.6-10.4-10.4-4.1-1.6-8.1,.3-6.4,3.2,1.1,1.8,1.1,3.7,0,3.7-.5,0-2.7-1.2-4.9-2.8-4.3-2.9-5-5.1-1.7-5.1,1,0,2.8-.8,4-1.7,4.7-3.7,11.1-1.6,18,5.8,3.9,4.2,4.4,4.5,5.4,3.4,.6-.6,1.8-1.2,2.7-1.2,1.2,0,.9-.8-2.3-4.7-2.1-2.6-5.9-7.5-8.5-11-5.6-7.6-9.7-10.4-15.9-11-3.4-.3-4.2-.7-4.2-1.8,0-.7-.4-1.5-.9-1.6-1-.3-.2-2.1,.9-2.1,.4,0,1.1,.8,1.5,1.8,.6,1.4,1.6,1.9,4.4,2.3,6,.8,11,5.1,18.5,15.9,2,2.9,4.6,6.4,5.8,7.8l2.1,2.5,1.8-1.8,1.8-1.8-2.5-2.2c-1.9-1.8-2.1-1.8-.8-.3,2.2,2.5,2.3,4.5,.1,2.5-2.2-2-7.1-10.6-8.2-14.4-.8-2.6-.8-4,0-7s.8-4.1,0-5.5c-1.1-2-.5-4.1,1.1-4.1,1.3,0,1.5,1.2,.4,1.9-.5,.3-.4,1.2,.3,2.5,.9,1.8,.9,2.5,0,5-.6,1.6-1,3.6-1,4.4,0,.9,.3,.6,.7-.8,1.2-4,2.5-4.6,7.1-2.9,.8,.3-.3-1-2.4-3-2.2-1.9-3.9-3.8-3.9-4.2,0-1.4,2-.6,3,1.2,.6,1,1.4,1.9,1.9,1.9,1.3,0,4.1,2.9,4.1,4.2,0,1.6-2.1,2.2-4.2,1.1-2.1-1.1-4.1,0-4.1,2.3s2.9,9.4,4.7,11.5c.9,1.1,2.5,3,3.5,4.2s2.9,2.8,4.1,3.4c7.5,4,13.9,13.2,15.3,22.1l.7,4,.1-4.7c.1-6.8-2.1-12.4-7.1-17.2-2.2-2.1-4.7-4-5.7-4.1-2.5-.3-2-2.6,1.3-5.7,2.1-2,3.2-2.4,5.9-2.4,4.5,0,8.2,1.7,10.8,5.1,3.6,4.6,4.9,9.6,4.5,17.8-.3,6.4-.2,6.9,.7,4.7,.6-1.3,1-5.1,1.1-8.5,.1-6.3-.9-9.4-4-12.8-1.4-1.5-1.4-1.6,.4-2.5,2.4-1.3,5-7.8,7.1-17.6,1.8-8.5,3.4-12.1,6.2-14.2,1.8-1.3,2.3-1.4,4.3-.5,2.1,.9,6.1,5.8,6.1,7.5,0,1.4,1.3,.8,1.8-.9,.6-1.9,1.1-13.7,1.4-29.8,.3-15.3,1.2-16.4,14.8-17.2l7.9-.4-.3-25.1c-.2-17.8,0-24.9,.5-24.4s.9,7.6,1,20.3c.2,23.1,.5,29.6,1.5,29.6,.4,0,.5-6.6,.3-16.3-.2-9-.6-26.4-.8-38.6-.2-12.3-.8-23.3-1.2-24.5-1.7-5,1.3-4.7-60.9-4.6-31,0-67.6,.2-81.5,.4-13.8,.2-44.4,.6-67.9,.9-67.5,.9-201.5,.5-279.7-.9-11.1-.2-50.6-.5-87.8-.8-37.1-.2-75.8-.6-86-.8-10.9-.2-19.2-.1-20.3,.4-1.6,.6-1.4,.7,1.4,.9,1.8,.1,4.1,.2,5.3,.3,1.1,.1,31.4,.4,67.3,.6,35.9,.3,73.3,.6,83.2,.8,82.3,1.5,230.6,1.9,328.9,1,30.7-.3,86.6-.8,124.1-1.1l68.3-.5,2.2,1.9,2.2,1.9,.4,12.3c.2,6.7,.1,12.9-.1,13.8-.4,1.2-.6,1.1-.7-.8-.3-4.1-.6-11.9-.6-18.2,0-5.3-.3-6.4-1.7-7.8l-1.6-1.6h-67.9c-85.5,.6-138.6,1.1-163.2,1.6-21.1,.4-142.9,.4-159,0-5.6-.1-32.7-.5-60.4-.7-27.6-.2-63.9-.6-80.6-.8-106.3-1.4-149-1.5-151.7-.5-1.1,.4-2.2,1.5-2.4,2.5-.2,.9-.5,17.9-.6,37.7l-.2,36,3.7,.1c7.8,.3,13.6,1.1,15.2,2.2,3.6,2.4,4,4.3,4.4,24.5,.2,10.4,.7,21.1,1.2,23.7l.8,4.7,2.1-3.6c3.2-5.7,7.9-7.1,11.4-3.4,1.5,1.6,2.6,4.6,4.7,12.6,2.9,11.2,4.8,15.8,7.3,17.7Zm555.6,5.6c.6,.7,.6,1.1,.2,1.1-.5,0-1.1-.4-1.3-.8-.8-1.3,.1-1.6,1.1-.3Zm-34.7-25.4c2.1-2.2,3.7-2.5,3.7-.6,0,.6-.7,1.1-1.5,1.1-1,0-1.6,.6-1.7,1.7-.2,1.7,1.6,2.4,2.5,.9,.8-1.3,1.8-.8,2,.9,.3,2.1,1.7,1.5,1.7-.7,0-1.4,.4-1.7,2.7-1.7,3.3,0,9.5,3,12.2,5.8,4.8,5,12.3,16.7,10.8,16.7-.4,.1-2.3-2.5-4.5-5.7-5.3-7.7-11.6-13.9-15.2-15-2.7-.8-2.9-.7-3.5,.9-1,2.7-3.5,3.8-5.2,2.3-.7-.7-2-1.2-2.9-1.2s-2-.7-2.4-1.6c-.7-1.3-.5-1.9,1.3-3.8Z"/><path class="f" d="M131.44,151.93c1.3-.8,.9-1.9-.7-1.9-1.1,0-1.5,.5-1.5,1.7,0,1.6-.3,1.7-4.4,1.7-3.8,0-4.9,.4-7.7,2.3-3.2,2.3-7.2,6.9-9.8,11.5-2.3,3.6-1.1,2.6,1.4-1.3,2.9-4.5,8.1-9.6,10.9-10.6,1.2-.4,3.4-.8,5.1-.8,2.6,0,3,.2,3,1.9,0,1.2,.4,1.9,1.1,1.9,.6,0,1.1-.7,1.1-1.5,0-1.2,.4-1.4,2.2-1,1.3,.3,2.4,.1,2.7-.5,.6-1.1-1.1-2.4-2.4-1.9-1.2,.4-2-.8-1-1.5Z"/><path class="f" d="M20.04,14.53l2.3-1h-2c-1.1,0-3,.8-4.1,1.8-1.8,1.5-2.1,2.5-2.5,6.9-.9,9.4-.8,71.5,0,71.5,.3,0,.7-.1,.7-.2s.2-16.9,.5-37.3c.5-40.8,.3-39.7,5.1-41.7Z"/><path class="f" d="M607.14,222.73c-3.2,2.1-5.7,3.8-5.5,3.8,.2-.1,1.9-.5,3.8-1.1,7.2-2.2,10.6-4.6,8.3-6-.4-.2-3.3,1.3-6.6,3.3Z"/><path class="f" d="M62.04,215.63c-6.1-1.1-7.6-8.9-2.2-11l1.9-.7-2.6-3.6c-3.3-4.6-5.1-9.5-5.1-14,0-3.7-1.8-8-3.4-8-1.1,0-3.7,2.9-5.2,5.9-1.5,3.1-1.8,10.2-.4,12.8,1.9,3.7,4.7,6,7.2,6,1.5,0,2.6-.4,2.9-1.2,.2-.6,.8-1,1.2-.7,1.2,.7,.9,2.6-.4,2.6-.6,0-1.1,.5-1.1,1.2s-3,4.2-6.7,7.9c-3.7,3.7-6.7,7-6.7,7.4,0,1.3,7.7,4.4,11.1,4.4,1.7,.3,4.3-.1,5.6-.7,2.9-1.2,6.5-4.8,6.5-6.6,0-.8-.9-1.4-2.6-1.7Z"/><path class="f" d="M44.84,177.93c2.9-2.6,2.8-2.9-.3-1.3-3.1,1.6-8,7.2-9.9,11.4-1.4,3.1-1.7,5-1.8,11.6,0,7.5,.1,8.2,2.5,13,2.5,5.2,3.6,5.7,5.1,2.5,.8-1.7,.7-2.5-1.5-6.6-2.2-4.2-2.4-5.4-2.4-10.8s.3-6.6,2.8-11.8c1.5-3.1,4-6.7,5.5-8Z"/><path class="f" d="M103.44,159.23c.2-1,.2-2.5,0-3.4-.2-.9-.3-.2-.3,1.7s.1,2.6,.3,1.7Z"/><path class="f" d="M68.44,205.43c0-.4-1-2.2-2.1-3.9-3.1-4.6-4.2-8.4-4.2-15.1,0-4.9,.3-6.5,1.7-8.9,2-3.4,2-3.5,.6-3.5-1.5,0-6.2,4.3-7.6,6.8-3.1,5.9-.5,14.7,6.5,22,3.4,3.8,5.1,4.6,5.1,2.6Z"/><path class="f" d="M58.24,176.23q1.3-1.5-1-1.5-2.6,0-1.9,1.8c.6,1.6,1.3,1.5,2.9-.3Z"/><path class="f" d="M101.94,147.23c-1,1.2-3,3.1-4.4,4.3-2.5,2.2-2,3,.9,1.3,1.2-.7,1.8-.7,2.9,0,1.3,.8,1.4,.7,1.3-1.9,0-1.5,.2-3.4,.5-4.3,.4-1,0-.8-1.2,.6Z"/><path class="f" d="M664.14,201.93c-1.4,1.5-1.7,2.1-.8,2.1,2.3,0,5.1,3,5.1,5.4,0,2.9-3.6,6.6-6.3,6.6-2.5,0-2.5,1.8-.2,4.7,3.4,4.3,11.3,5.2,17.7,2,1.7-.9,3.1-2,3.1-2.6s-2.9-4-6.4-7.6c-5.4-5.5-6.2-6.7-5.6-7.9,.4-.8,1.2-1.4,1.8-1.4,1.6,0,4.9-2.9,6.2-5.4,1.8-3.4,1.5-10.8-.5-15-2.4-5.2-3.5-5.8-5.7-3.3-1.5,1.7-1.8,2.9-1.8,6.8s-.4,5.6-2.3,9.1c-1.3,2.4-3.2,5.3-4.3,6.5Z"/><path class="f" d="M657.84,183.73c-1.4-9.1-6.6-15-12.9-15-2.6,0-4,.5-5.7,1.9-2.6,2.2-3,4.1-.9,4.1,2.3,0,7.9,5.6,10.3,10.2,2,4,2.2,5.1,2.2,11.7v7.3l1.9-.2c1.4-.1,2.1-.9,3.4-4.3,2.2-5.5,2.6-9.8,1.7-15.7Z"/><path class="f" d="M668.94,176.43c.5-.6,.8-1.4,.6-1.7-.4-.6-4.1-1.5-4.1-1,0,.2,.6,1.1,1.3,2.1,1.2,1.6,1.4,1.7,2.2,.6Z"/><path class="f" d="M633.64,176.83c-2.9-1.5-5.8-1.3-5.8,.3,0,1.7-1.3,3-3.1,3.1-1.4,.1-1.8,.6-2,2.7-.7,7.6,6.5,16,17.9,20.7,4.7,2.1,6.4,2.2,7.2,.9,1.3-2.1-.5-10.5-3.5-16.3-2.2-4.3-7.2-9.6-10.7-11.4Z"/><path class="f" d="M641.74,215.63c-7.5,3.7-16.9,3.1-23.7-1.5-3-2.1-3.6-1.9-3.6,1.3s2.7,6.5,7.1,8.5c4.5,2.2,5.7,2.2,11.4,.4,5-1.5,13.7-7.1,13.7-8.7,0-1.9-1.1-1.8-4.9,0Z"/><path class="f" d="M660.04,175.33c4.4,6.1,3.1,19.4-2.7,27-1.6,2.1-1.8,2.7-.9,3.7,.9,1.1,1.5,.7,5-3.2,2.3-2.5,4.9-6.2,5.9-8.2,2.1-4.5,2.4-10.6,.6-14.4-1.4-3-6-7-8-7-1.3,0-1.3,.1,.1,2.1Z"/><path class="e" d="M710.24,152.13c-.1,55.3-.6,84.5-1.6,88.6-.5,2.3-1.2,3-3.9,4-2.9,1.2-9.9,1.2-83,.8l-601.2-.2c-1.4-.5-3.4-2-4.4-3.3l-1.8-2.4-.4-43.1c-.2-23.7-.5-50.3-.7-59.2-.1-8.9-.3-21.1-.3-27.2-.1-6.6-.4-11.1-.8-11.1-.5,0-.6,7.2-.4,19.3,.1,10.6,.5,42.1,.7,69.9,.3,31.3,.7,51.5,1.2,53,.8,2.6,5.4,6.6,6.9,6.1,.5-.2,1.8,.2,2.8,.7,2.3,1.1,3.6,1.2,3.8,.4,.3-.6,22.6-1.1,43.9-1,34.4,.1,62.9,.1,90.6,0l454.5-.5,88.8,.1,2.1-1.6c3.7-2.8,4.3-5,4.5-15.7,.1-5.3,.2-35.6,.3-67.3,.1-43.3,0-57.8-.7-58.5-.7-.7-.9,10.7-.9,48.2Z"/><path class="e" d="M6.44,95.53c-5.1-2.4-5-1.3-4.9-46.5,.1-22.4,.3-41.4,.5-42.3,.2-.8,1.7-2.5,3.3-3.6l2.9-2,71.8,.5c39.5,.2,79.1,.6,88,.8,8.8,.2,42.4,.6,74.6,.9,32.1,.3,61.5,.6,65.2,.7,11.2,.4,162.4,.4,163,.1,.3-.2,25.8-.6,56.8-.8s67.1-.7,80.2-.9c18.3-.3,24.1-.2,24.5,.5,.4,.7,1,.7,2.1,.1,1.1-.5,13.8-.7,41.7-.6l40.3,.3,1.9,1.8c1,1,1.9,2.6,1.9,3.6,0,2.1,1.8,1.9,2.1-.3,.1-.9-.9-2.5-2.5-4.1l-2.7-2.6-46.3,.1c-25.4,.1-81.5,.4-124.6,.8-131.2,1-266.8,.7-381.8-.9C71.84-.17,7.54-.37,5.64,.63c-.7,.4-2.2,1.6-3.2,2.7C.04,5.83,.14,4.03,.04,52.73c-.1,44-.4,40.7,5,44.1,1.2,.8,2.7,1.4,3.1,1.2,1.7,0,.9-1.3-1.7-2.5Z"/><path class="e" d="M515.94,218.43c.3-1-3.5-6.9-4.4-6.9-1.2,0-.6,1.6,1.8,4.6,1.3,1.6,2.5,2.6,2.6,2.3Z"/><path class="e" d="M15.58,156.84l-.02-.46c0,.17,.01,.32,.02,.46Z"/><path class="e" d="M537.34,220.83c2.1,1.5,6.9,1.5,8.4,.1,2.5-2.6,.7-8.9-2.6-9.1-1.9-.1-8.1,1.7-9.2,2.7-.9,.8,1.3,4.9,3.4,6.3Zm-.8-6.3c.9-.3,3-.8,4.5-1.1,2.5-.5,2.9-.3,3.7,1.4,.6,1.4,.6,2.4,0,3.8-.6,1.4-1.3,1.8-3.3,1.7-3.4-.1-4.2-.5-5.5-3-1.1-2.1-1-2.2,.6-2.8Z"/><path class="e" d="M499.24,211.63c-2,.1-3.1,1.1-3.7,3.4-.6,2.4,.8,6.1,2.5,6.5,3.8,1,7-.4,9-4,.9-1.6,1.6-3.1,1.6-3.3,0-.6-7.5-2.6-9.4-2.6Zm6.8,5.2c-.7,1.2-1.8,2.5-2.6,2.9-2,1-3.9,.9-5.5-.3-1.1-.8-1.3-1.6-.9-3.8l.5-2.8,3.7,.5c5.9,.8,6.1,1,4.8,3.5Z"/><path class="e" d="M500.44,205.43c-.7,1.3-.3,1.7,3.5,3.7,4.9,2.5,6.2,2.8,6.2,1.2,0-1.1-6.7-6.4-8.1-6.4-.4,0-1.2,.7-1.6,1.5Zm6.7,3.7c-1.2-.2-6-2.6-6-3.1,0-1.1,1.9-.5,4.1,1.3,1.3,1,2.1,1.8,1.9,1.8Z"/><path class="e" d="M218.04,209.83c2.2-1.2,4.3-2,4.7-1.8,1.3,.7,1.8-2,.6-3.2-.9-.9-1.5-.9-3.2-.2-3.7,1.6-7.1,4.9-6.6,6.3,.4,1.1,.9,1,4.5-1.1Zm-1.9-1c1.2-1.4,5.2-3.6,5.7-3.1,.2,.2-1.2,1.2-3.2,2.3-2,1.1-3.1,1.5-2.5,.8Z"/><path class="e" d="M215.54,214.93c-.3,1.8,2.3,5.4,4.6,6.3,2.2,.9,3.1,.9,5.2,0,2.9-1.1,3.8-3.4,2.7-6.9-.9-2.7-1.1-2.8-4-2.8-4.5,.1-8.2,1.6-8.5,3.4Zm5.3-1.5c4.4-.8,5.4-.4,6,2.3,.3,1.5,.1,2.4-1.1,3.4-2.2,1.9-4.9,1.7-7-.7-2.7-2.9-2.1-4.2,2.1-5Z"/><path class="e" d="M185.14,212.23c-5.3-1-6.9-.5-7.5,2.4-.7,3.6-.6,4.3,1,5.9,2.9,2.8,8.8,1.1,10.6-3,1.3-3.3,.6-4.3-4.1-5.3Zm.2,7.1c-4.1,2.2-6.7,1.1-6.7-2.9,0-1.5,.5-2.3,1.6-2.7,1.5-.6,7,.1,7.8,.9,.9,.9-.7,3.6-2.7,4.7Z"/><path class="e" d="M182.74,204.83c-1.9,1.5-1.3,2.5,2.8,4.5,4.8,2.3,5.9,2.5,5.8,1,0-1.4-1-2.5-4.7-4.7-2.2-1.4-3-1.5-3.9-.8Zm2.5,2.7c-1.2-.4-2.1-1-2.1-1.4,0-1.1,1.2-.8,3.1,.8,2,1.7,1.9,1.8-1,.6Z"/><path class="e" d="M15.04,100.53c-.02,.58-.04,1.76-.04,3.4l.06-3.81c-.01,.13-.02,.26-.02,.41Z"/><path class="e" d="M49.24,176.03c1.1-.9,1.2-1.2,.3-1.9-1.5-1.2-7.8,1.9-10.9,5.4-2.7,3.1-5.7,8.6-6.5,12-.9,3.4-.7,12.6,.3,16.6,.9,3.8,2.9,7.8,5.1,10.4,1.2,1.3,1.3,1.2,3.1-.8,2.2-2.8,2.8-5.4,1.5-6.9-.6-.6-1.9-2.8-2.8-4.8-1.5-3-1.7-4.5-1.4-9,.5-8.6,4.6-16.1,11.3-21Zm-10.3,32.5c2.2,4.1,2.3,4.9,1.5,6.6-1.5,3.2-2.6,2.7-5.1-2.5-2.4-4.8-2.5-5.5-2.5-13,.1-6.6,.4-8.5,1.8-11.6,1.9-4.2,6.8-9.8,9.9-11.4,3.1-1.6,3.2-1.3,.3,1.3-1.5,1.3-4,4.9-5.5,8-2.5,5.2-2.8,6.3-2.8,11.8s.2,6.6,2.4,10.8Z"/><path class="e" d="M708.36,123.3v21l-.5,24.53,.5,20.47-1,24v15l-1,10-1,4h-24l-154,1H26.36l-6.42-.65c6.36,1.37,26.01,1.25,89.5,1.38l450.8-.5c.7,0,33.5,.1,72.8,.1,55.6,0,71.7-.2,72.6-.9,.6-.5,1.5-1.8,1.9-2.8,1.16-2.71,1.87-128,.92-136.2l-.1,7.57v12Z"/><path class="e" d="M708.14,101.23h-9.7c-9.29-.06-10.07,3.65-10.04,3.98-.3,1.38-.76,8.74-.96,17.02-.4,15.9-1,22.1-3.1,28.5-1.1,3.2-1,3.7,.1,6,2.9,5.8,6.2,7.4,7.6,3.8l.8-2.1,.1,2.6c.1,1.4,.3,3.9,.6,5.5,.28,1.49,.37,2.19,.11,2.48l.71-.71-1-10h-1l-2,3h-2l-4-7,3-12,2-36,2.55-3,16.45-1,.03,.43c2.87-.01,4.95-.21,4.95-.7s-2.2-.8-5.2-.8Z"/><path class="e" d="M536.94,210.23c5.8-2.6,6.4-3.2,5-5.1-1-1.5-1.1-1.5-3.5-.2-4.4,2.4-6.8,4.7-6.3,6,.4,1.1,.9,1,4.8-.7Zm.9-3.3c2-1.7,3.7-2,2.4-.4-.5,.6-1.6,1.2-2.5,1.4q-1.7,.5,.1-1Z"/><path class="e" d="M723.24,85.43c-.2-9.7-1-48.7-1.2-60.6-.2-12.6-.5-15.3-1.6-14.2-.3,.2-.1,14.3,.3,31.4,.4,17.1,.7,36.4,.6,42.9l-.1,11.9-2.4,2.2c-1.4,1.2-3,2.2-3.6,2.2s-1.1,.3-1.1,.8c0,1.6,4.1-.1,6.5-2.7,2.6-2.7,2.8-4.3,2.6-13.9Z"/><path class="e" d="M17.36,240.3l-1-6v-24.37l-.58-48.34-.02-.43c-.52,11.88-.04,74.75,.68,77.57,.53,1.95,0,3.16,3.49,3.92l-1.57-1.35-1-1Z"/><path class="e" d="M209.74,216.73c1.2-1.7,2.5-3,2.8-3,.9,0,.8-2.1,0-2.6-.6-.3-6.1,7.1-6.1,8.2s1.3,0,3.3-2.6Z"/><path class="e" d="M15,103.94c-.04,11.49,.3,45.43,.56,52.42l-.02-29.09-.54-23.33Z"/><path class="e" d="M526.14,219.43c.5-.8,1.9-2.6,3.1-4,1.5-1.7,1.9-2.8,1.4-3.3-.8-.9-5.5,5.5-5.4,7.5,0,1,.2,1,.9-.2Z"/><path class="e" d="M622.84,178.53c.4,0,.4-.4-.2-1.1-1-1.3-1.9-1-1.1,.3,.2,.4,.8,.8,1.3,.8Z"/><path class="e" d="M589.04,157.43c.9,0,2.2,.5,2.9,1.2,1.7,1.5,4.2,.4,5.2-2.3,.6-1.6,.8-1.7,3.5-.9,3.6,1.1,9.9,7.3,15.2,15,2.2,3.2,4.1,5.8,4.5,5.7,1.5,0-6-11.7-10.8-16.7-2.7-2.8-8.9-5.8-12.2-5.8-2.3,0-2.7,.3-2.7,1.7,0,2.2-1.4,2.8-1.7,.7-.2-1.7-1.2-2.2-2-.9-.9,1.5-2.7,.8-2.5-.9,.1-1.1,.7-1.7,1.7-1.7,.8,0,1.5-.5,1.5-1.1,0-1.9-1.6-1.6-3.7,.6-1.8,1.9-2,2.5-1.3,3.8,.4,.9,1.5,1.6,2.4,1.6Z"/><path class="e" d="M30.88,98.07l3.48,2.23,1,4,1,17v20l3,14-1,4s-2,4-3,4h-2l-1-3-2-1v11l1.21,1.5s3.79-2.5,4.79-3.5l2-4,3-4,3,6,2.58,4.57-2.58,2.43-5,3-6,7-4,11v11l2,8,4,6,2,3-2,4v3l2,1,1-1-1-3,1-2h2l5,3,4,1,1.68,.81,4.32-.81h3l3-1s2-3,3-3l4-4,1,2,3,4,5-1,2-4v-2l3,1,7,4,7,1,5-1h4l2,1,11,3,12,2,24,1h20l26-1,2-3,2,1,1,2h313l1-2,3,1,3,1,9,1h39l26-1,11-3s4-1,7-3l6,1s2,3,13-2l8-4v4l3,3s0,2,5-1l.64-.64c-.53,.49-1.09,.88-1.56,1.07-1,.4-2.1,.8-2.4,.9-1.3,0-3.1-2-3.5-3.8-.5-2.3,2-6,4.1-6,2.4,0,2.4-1-.1-1.8-5.3-1.7-4-8.7,1.6-9.3,2.7-.2,5.4,1.6,5.2,3.6-.2,2.1,0,3,.8,3,.5,0,.8-.9,.8-1.9,0-1.1,.7-2.6,1.5-3.4,2.9-2.9,7.5-1.3,7.5,2.6,0,3-5.7,6.3-7.1,4.1-.7-1.2-2.5-.9-4.9,.8-2.6,1.8-2.8,3.7-.7,5,1.4,.9,1.4,1.1,.3,3.2-.26,.48-.62,.97-1.01,1.4,.62-.62,1.34-1.34,1.83-1.83l1-3s4,6,9,8c0,0,3,4,20-3h1l1,3h2v-2l-2-4s13-15,6-34c0,0-4-11-16-17l6-12s6,13,10,11l.26-.26c-.22,.2-.65,.17-1.37,.09-1.7-.3-4-3.2-7.8-9.9l-1.5-2.7-3.4,7.2-3.4,7.2,2.3,1c7.2,3,13,10.1,15.1,18.3,2.4,9.5,.1,22.3-5.1,28.2-2.1,2.4-2.2,2.6-1,4.4,.7,1,1.2,2.3,1.2,2.8s-.5,0-1.1-1.1c-1.3-2.5-1.5-2.5-4.8-.3-3.7,2.4-7.1,3.5-11.4,3.5-5.1,0-8.1-1.5-11.9-5.9-1.8-2.1-3.7-3.8-4.2-3.8-1.5,0-1.1-2.1,.5-3,2.3-1.3,3-1,3,1.4,0,5.3,8.5,10.6,15.2,9.5,7.6-1.2,14.9-8.1,17.7-16.7,3.8-11.5,.9-24.7-7-31.6-3.1-2.7-7.1-4.9-7.1-3.9,0,.4,.6,1,1.3,1.2,1.8,.6,7.1,5.5,9,8.3,2.9,4.1,4.2,10.4,3.8,18-.3,5.9-.7,7.5-2.8,11.5-1.3,2.5-2.7,4.6-3,4.6s-1-1.1-1.5-2.4c-.9-2.1-.8-2.7,.9-5.8,4.4-7.8,4.3-14.8-.1-24.2-2.8-5.9-10.5-14.2-10.5-11.3,0,.3,1.5,2.1,3.4,3.9,5.2,4.9,8.2,11.7,8.5,18.9,.2,5.3,0,6.3-2.1,10.6-2.8,5.6-2.8,6-.8,9.3,2.3,3.7,1.4,3.5-1.9-.5-1.6-1.9-4.3-4.8-6.1-6.4-3.7-3.2-4.1-4.7-1.4-5.4,3.1-.8,6.1-5,7.1-9.8,.5-2.4,1-4.8,1.2-5.3s0-.9-.4-.9-.7-.5-.7-1.1c0-1.9-3.4-8.1-5.6-10.1-1.9-1.8-2.1-1.8-2.9-.5-1.9,3.1-2.6,3.9-3.2,3.3-.3-.3,0-1.6,.8-2.9,1.4-2.2,1.4-2.3,0-3.4q-1.3-1.1,.3-.7c.9,.3,1.7,.1,1.7-.2s-2.3-.4-5.2-.2c-5.8,.5-9.4-.3-6.1-1.3,1-.3,4.4-.6,7.6-.6l5.7-.1,1.8-3.2c5.6-9.7,6.2-14.3,1.9-16.9-3.6-2.1-5.5-.3-9.6,9.3-3.8,8.7-4.6,10.1-6.3,10.1-.8,0-.8-.6,.4-3.3,2-4.7,4.6-13.6,4.9-17.1,.1-1.7,.9-4.1,1.6-5.3,3.3-5.6,6.9-4.7,10.6,2.6,1.4,2.8,2.8,4.9,3.1,4.7,1.5-.9,3-14.2,3-27.7,0-16.8,.2-18.4,2.7-20.9,2.2-2.2,4.2-2.5,17.5-3,5.1-.2,10-.6,10.7-.9,3.2-1.2,3.6-3.9,3.2-20.4-.2-8.6-.6-26-.9-38.8-.3-12.8-.6-24.5-.7-25.9-.1-1.4-.2-3.4-.3-4.3-.08-.72-.55-2.83-1.14-3.65-.26-.35-.64-.6-1.06-.71l-5-.34c-.1-.2-11-.4-24.2-.3-13.2,.1-27.3,.2-31.3,.2h-16.1c-20.8,0-48.5,.2-53.9,.4-6.5,.3-152,1.4-195.9,1.5-15,0-27.2-.3-27.2-.6s-.4-.4-.8-.1c-.9,.6-34.5,.6-82.4,0-86.3-1.1-121.9-1.4-222-2.3-48.3-.4-48.8-.4-50.5,1.1-1,.9-2,2.8-2.4,4.4-.9,4-.9,79.8,0,82.2,1.2,3.1,3.1,3.6,15.7,3.7,12.9,.2,14.4,.6,17.2,4.8,1.1,1.8,1.3,4.4,1.5,20.8,.2,17.3,1.2,27.8,2.9,30.6,.2,.4,1.4-1.1,2.6-3.3,2.5-4.6,4.6-6.6,6.9-6.6,3.8,.1,5.2,2.5,8.7,16,1.3,4.9,2.7,9.5,3.1,10.3,1.1,2,.9,3-.4,3-1.1,0-2.1-1.8-7.3-13.6-2.1-4.8-4.8-7-7.6-6.3-4.3,1.1-5.1,6.2-1.8,11.6,2.3,3.9,2.5,2.3,.3-2.1-2.2-4.3-2.1-5.3,.7-7.1,2.5-1.7,4.2-.9,6.3,2.7,1.3,2.3,6.1,13.2,6.1,13.9,0,.1-1.7,.3-3.7,.4-3.7,.2-4.5-.1-6-3-.4-.9-1.2-1.6-1.6-1.6s.3,1.4,1.5,3.2c2,3,2.4,3.2,4.9,2.9,3.4-.4,10.9,.5,10.9,1.3,0,1-10.1,1.4-10.7,.5-.4-.6-.9-.5-1.5,.1-.7,.7-.7,.9,.4,.9,.8,0,1.2,.3,.9,.7-.2,.4,.2,1.8,.9,3,.7,1.2,1,2.5,.7,2.8-.5,.6-1.9-.8-3.4-3.4-1-1.6-5.1,1.9-7.2,6.3-4,8.2-1.4,18.4,5.3,20.8,1.4,.6,2.6,1.4,2.6,1.9s-1.9,2.5-4.2,4.5c-4.3,3.6-8.5,8.8-8.5,10.3,0,.5,1.7,1.8,3.8,3,5.2,2.9,11.3,3.5,15.4,1.4,3.3-1.7,4.1-1.9,4-1.1-.1,.3-.4,.5-.8,.4-.4-.1-.7,.3-.7,.8,0,1.4-4.3,2.8-8.5,2.8-3.8,0-8.6-1.6-12-3.9-1.7-1.2-2.4-1.3-3.2-.6-1.6,1.3-2.1,3.7-1.1,4.9,.6,.8,.6,1.1,0,1.1-1.6,0-1.8-2.3-.5-5.2l1.3-2.9-2.7-3.5c-6.2-8.1-7.2-21.5-2.4-32.2,2.1-4.7,7.2-10,11.8-12.3l3.3-1.7-3.4-6.8-3.4-6.8-1.8,2.8c-1,1.5-2.3,3.9-3,5.3-1.3,2.8-4.2,5-5.4,4.3-.7-.4-.9-9.2-.2-10.4,.2-.4,.8,.4,1.4,1.7,1.4,3.3,3.2,2.8,6-2l2.3-3.9-1.8-6.1c-1.6-5.6-1.8-8.1-2.2-26.5-.2-11.5-.8-21.3-1.2-22.4-1.3-3.5-4.6-4.4-15.6-4.4-6.4,0-9.7,.3-9.4,.8,.18,.31,1.91,.54,4.57,.67v-.31l15.87,.08Zm635.56,69.06c.6-.9,2.2-4.4,3.5-7.7,1.3-3.3,3-6.7,3.8-7.5,1.3-1.3,1.6-1.4,3.5-.3,1.1,.6,2.2,1.8,2.3,2.7,.1,.8-1.1,4.5-2.8,8l-3,6.5h-4.2q-4.2,0-3.1-1.7ZM68.84,218.23c-.7,0-1.5,.6-1.9,1.4-.4,.8-1.3,1.6-2,1.8-1,.4-1.1,.3,0-1.2,.7-.9,1.2-2.6,1.2-3.7,0-2.2,1.3-2.8,2.9-1.2,1.2,1.3,1.1,2.9-.2,2.9Zm9.3,5.1c-.8,1.4-1.9,2.1-3.5,2.1-1.9,.2-2.6-.2-3.9-2.2-1.4-2.2-1.4-2.6-.4-3.7,2.8-3.1-1.6-7.9-5.5-5.8-2.5,1.4-5.7,.2-6.6-2.4-.9-2.6,1.1-5.9,3.6-5.9,2.2,0,5,2.9,5.1,5.3l.1,1.8,.6-1.9c1.2-4.1,2.2-5.2,4.8-5.2s4.6,1.6,3.6,2.6c-.3,.3,0,.4,.6,.3,2-.4,1.9,3.7-.1,5.4-1,.8-2.2,1.5-2.7,1.5-1.8,.1-.9,1.5,1,1.7,1.2,.1,2.5,1.1,3.2,2.3,1.1,1.9,1.1,2.2,.1,4.1Zm-10.9-42.7c2.6-8.7,11.8-13.9,17.2-9.6,2.2,1.7,2.6,4.4,.6,4.4-2.4,0-6.6,4.3-9.2,9.5-2.4,4.8-2.6,5.6-2.6,12.1s0,7-1.5,6.9c-4.2,0-7-14.6-4.5-23.3Zm35.9,9.5c-.2-.6,0-1.1,.5-1.1,1.7,0,3.7,1.5,5.2,4,4.4,7.2-1,16.7-11.1,19.5-2.4,.7-5,1.2-5.7,1.3-2.2-.1-9.9-2.1-11.6-3-1.6-.8-2.1-3.7-.7-3.7,.5,0,.6,.3,.4,.7-.3,.5,.4,.5,1.6,.1,1.1-.4,3.9-1.1,6.2-1.6,4.9-1.1,8.5-3.3,11.8-7,2.4-2.8,4.1-7.4,3.4-9.2Zm4.7,20.6c-.3,0-1.6,.9-2.9,1.9-4.1,3.2-8.4,4.3-13.9,3.8-5-.5-11.3-2.8-11.3-4.1,0-.4,1.4-.1,3.2,.7,2.3,1,4.9,1.4,9.2,1.4,6.8,0,11.2-1.5,15-5.2l2.2-2.2,8.7,8.6c4.8,4.7,8.7,8.6,8.7,8.6-.1,0-2-1.1-4.3-2.3-4.1-2.2-6-3.6-11.4-8.6-1.5-1.4-2.9-2.6-3.2-2.6Zm6.8,11c2.8,1.9,5.2,3.5,5.4,3.7,.9,.8-1.3,.2-7.5-2.2-5.1-1.9-4.8-1.6-3.8-3.4,.8-1.4,1-1.3,5.9,1.9Zm-21.8-18.7c-1.3,.7-4.1,1.7-6.4,2.2-5.9,1.4-6.2,1.2-1.5-.9,6.2-2.8,11-6.7,14.3-11.7,2.6-4,3-4.3,3-2.6,0,4.6-4,10.2-9.4,13Zm-9.1,.3c-5.5,2.5-6.9,2.7-7.7,1-.7-1.9,1.1-9.8,3.4-14.8,2.8-6,6.5-10.1,10.5-11.9,3.5-1.6,4.4-1.3,5.4,1.3,.5,1.2,1.4,1.8,2.8,2,1.8,.2,2.1,.6,2.3,3.1,.5,6.1-7.2,15-16.7,19.3Zm17.9,20.4c-1.9,.7-4,1.2-4.8,1.3-6.5-.7-8.7-1.5-14.9-5.5-4.4-2.9-5.5-4.4-4-5.3,.4-.3,2.7,.5,5.1,1.6,7.4,3.4,18.3,2.3,23-2.4,3.1-3.1,3.9,2.1,1,6.4-1.3,1.9-2.9,3.1-5.4,3.9Zm59.4,5.8c-.5,.7-22.7,.8-31.5,.3-10.6-.8-24.5-5-23.3-6.9,.3-.5,1.5-.2,3.3,.7,3.5,1.8,10.4,3.6,15.9,4.1q4,.4,1.5-.5c-7.6-2.7-18.6-10.7-17-12.3,.2-.2,1.9,1,3.8,2.7,1.9,1.6,5,3.9,6.9,5,4.2,2.4,12.5,5.5,14.7,5.4,1.5-.1,1.5-.2-.3-.7-1.1-.4-3.6-1.7-5.6-3.1-4.6-3.2-19.9-18.5-19-19.1,.4-.2,4.2,3,8.4,7.2,15.1,14.9,18.6,16.6,33.1,16.5,6.7-.1,9.5,.1,9.1,.7Zm5.7,.7c-2.1,0-3.8-.2-3.8-.7s1.5-.8,3.3-.8,3.5,.4,3.8,.8c.3,.4-1,.7-3.3,.7Zm34.7-9.8c-.5-2-2-5.3-3.2-7.2-2.8-4.4-2.6-6,.9-6h2.6l.2-4.3,.2-4.3h-2.2c-2.2,0-4,1.4-6.5,4.9-1,1.5-1.1,1.5-3.4-.8l-2.4-2.3,3.6-1.7c3-1.5,4.8-1.7,10.8-1.7,7.8,0,12.7,1,14.2,2.8,.8,1,.6,1.5-1.3,3.4l-2.2,2.2-1.8-2.8c-1.9-2.9-4.9-4.5-7-3.7-.8,.3-1.2,1.4-1.2,3.4,0,4.5,.5,5.4,2.9,4.9,1.3-.2,2.4,0,3,.8,.8,1,.7,1.6-.6,3.4-2,2.8-4.6,8.8-4.6,10.6,0,2.9-1.3,2-2-1.6Zm319.7,2.6c-.18,1.78-.25,3.16-.17,4.25-.35-.74-.64-1.64-.73-2.75-.3-4.1-1-6.1-3.5-10.7-3-5.4-3.1-5.7-1.7-6.4,1.8-1,3.3-1,2.7-.1-.2,.4,.3,.5,1.1,.3,1.3-.4,1.5-1.1,1.5-4.5,0-2.9-.3-4.2-1.1-4.5-2.2-.8-4.9,.5-6.8,3.4l-1.9,2.9-2.4-2.2c-2.3-2.2-2.3-2.3-.9-3.3,2.6-2,7.3-2.7,14.2-2.3,6.6,.4,10.9,1.3,13.1,2.7,.9,.6,.7,1.1-1.1,3-1.2,1.3-2.4,2.3-2.7,2.3s-1-1-1.5-2.3c-1.1-2.6-4.7-4.8-6.8-4.1-1.3,.4-1.5,1.2-1.5,4.6v4.1l2.6-.5c3.4-.6,4.3,1.1,2.3,4.5-3.4,5.7-4.3,8.1-4.7,11.6Zm73.8,6.9c-11,1.1-70.4,.8-71.7-.7-1.9-2,.2-10.9,4-16.9l2.2-3.5-1.9-1.9c-1.2-1.2-2.5-1.7-3.4-1.5-1.3,.4-1.5,0-1.5-2.5,0-4.5,2.6-3.7,5.9,1.8,.9,1.5,1.9,2.8,2.2,2.8s2-1.5,3.9-3.4l3.4-3.4-1.9-1.5c-2.9-2.2-6.4-3.1-14.5-3.5-5-.3-8.4-.1-10.5,.6-3.6,1.1-6.5,3-6.5,4.1,0,1.3,5.9,6.7,6.6,5.9,.4-.4,1.6-2,2.7-3.5,2.7-3.7,5-3.8,5-.2,0,2.2-.2,2.6-1.7,2.6-1,0-2.5,.8-3.4,1.7l-1.6,1.7,2.4,4.1c3.2,5.4,4.4,9.4,4.1,13.5l-.2,3.4h-156.6c-137.6,0-156.7-.1-157.3-1.1-1.3-2,0-7.7,3.2-14.1,3-6,3.1-6.2,1.7-7.7-1-1.1-2.1-1.5-3.4-1.3-1.8,.2-2,.1-1.9-2.4,.1-1.8,.5-2.7,1.3-2.9,1.3-.2,5.9,4.8,5.9,6.4,0,.6,.1,1,.3,1,.7,0,7.2-6.6,7.2-7.3,0-1.1-5.3-3.7-9.4-4.6-7.1-1.5-19.7,.6-22.5,3.7-1.2,1.4-1.1,1.6,2.2,4.8l3.5,3.3,1.5-2.8c2.8-5.3,6.3-6.3,6.4-1.8,.1,2.1-.1,2.4-1.9,2.4-2.2,0-4.4,1.7-4.4,3.5,0,.6,.7,2.1,1.6,3.3,4,5.6,6.5,15.3,4.3,16.9-1.3,1-23.5,1.3-24.1,.3-.3-.6,2.5-.8,9-.8,10.9,.1,13.1-.7,13.1-4.6,0-1.2-.3-3-.8-3.8-.6-1.1-.6-1.4,0-1,1.6,1,.8-1.7-1.5-4.8-1.6-2.4-2.5-3-3.1-2.4-.6,.7-.1,1.6,1.8,3.6,1.8,2,2.1,2.5,.9,1.9-.9-.5-1.8-1.2-2.1-1.6-.9-1.4-1.8-.8-3.1,1.9-1.7,3.7-4.1,5.3-8.4,5.9-6.1,.8-7.2-.5-6.1-7.4,.3-2.1,.5-3.9,.4-4-.7-.7-5.6,2.3-7.7,4.6-1.3,1.5-2.6,2.7-2.8,2.7s-.4-2.3-.4-5.2c0-4.4,.2-5.3,1.5-6,.8-.4,1.5-.5,1.5-.2s.3,.1,.7-.5c.5-.7,2.3-1.1,5.7-1.2,4.7-.2,6.3-.9,6.3-2.8,0-2-9-2.6-13.2-.9l-2.6,1.1,.2-4.7c.2-3.9,.5-4.7,1.7-4.9,2.2-.4,9.3,1.4,13.3,3.4,4.2,2.1,4.5,2.2,6.2,.3,2.2-2.3,8-3.8,15.2-3.9,8.7-.1,12.2,.6,16.3,3.2l3.4,2.2,3.4-2.1c4-2.6,8.9-4,12.4-3.7l2.6,.2v4.7c0,3.9-.2,4.6-1.1,4.2-3.3-1.4-6.7-1.9-9.6-1.6-4.1,.5-5.1,1.4-3.8,3.5,.8,1.3,1.7,1.6,5.5,1.6,3,0,5.3,.4,6.7,1.3,2,1.2,2.2,1.6,2.4,6.8l.2,5.5-2.9-3.1c-2.9-3.1-7.2-5.8-7.9-5.1-.3,.2-.1,1.5,.4,2.8,1.2,3.4,1,7.1-.3,8.2-1.9,1.6-9.8,.6-12-1.5-1.1-1-1.9-2.1-1.9-2.6s-.5-1.5-1.1-2.3q-1.1-1.4-3.1,.4c-3.9,3.5-5.3,8.5-3.1,10.4,.8,.7,38.5,.9,153.5,1l152.4,.1,1.3-1.6c1.7-2.1,1.1-5.6-1.5-8.4-2.4-2.5-4.3-2.9-5-.9-1.5,4.3-7.7,7.5-12.7,6.6-3-.6-3.8-2.7-2.6-7.3,.5-1.8,.7-3.4,.5-3.7-.7-1.2-5.1,1.4-7.9,4.5l-2.9,3.3v-6c0-5.8,.1-6,2.1-6.9,1.2-.5,4.4-1.1,7.3-1.2,4.9-.2,6.4-.9,6.4-3s-10-2.4-13.6-.6l-2.2,1.2,.2-4.7,.2-4.7h4.5c3.7,0,5.6,.5,9.7,2.5,3.3,1.6,5.3,2.2,5.6,1.7,.3-.4,2.5-1.7,4.9-2.8,4.2-1.9,4.8-2,13.9-1.6,9.6,.4,12.6,1.1,16,4.1,1.2,1,1.8,.9,6.8-1.6,4.1-2,6.4-2.7,9.3-2.7,2.1,0,3.9,.3,4.1,.6s.2,2.5,0,4.8l-.3,4.2-2.4-1c-6.3-2.6-15.5-.7-11.6,2.4,.5,.4,3,.9,5.5,1.2,2.6,.2,5.5,.8,6.6,1.3,1.7,.8,1.9,1.3,2,4.7,0,2.1,.2,4.8,.4,5.9,.5,2.8-.5,2.6-2.6-.5-.9-1.5-2.9-3.3-4.4-4.2-3.1-1.8-5.2-1.5-4.1,.6,.4,.7,.9,2.7,1.2,4.4,.6,3.9-.7,5.1-5.7,5-5.5,0-7.7-1.2-9.6-5.2l-1.7-3.4-2.6,2.5c-5,4.8-5.1,9.9-.2,10.7,1.3,.2,14.1,.4,28.3,.4h25.9l4.5-2.2c3.3-1.6,7.2-4.8,14.6-12,5.5-5.4,10.2-9.5,10.3-9.1,.5,1.2-16.8,17.6-21.7,20.6-5.1,3.1-5.1,3.2,.7,1.7,4.5-1.2,11.1-4.7,15.9-8.5,5.5-4.3,5.3-4.2,5.3-2.9,0,1.1-5.3,5.1-10.5,8-1,.6-3.1,1.7-4.5,2.5l-2.6,1.5,4.5-.5c3.8-.4,10.2-2.2,15.6-4.5,.8-.4,1.3-.3,1.3,.2,0,2-11.6,5.5-21.8,6.5Zm30.8-28.1c3.1,2.2,10.1,4.8,15.4,5.6,4.2,.6,4.4,2.7,.4,4.3-4.2,1.6-11.9,2.1-16.2,1.1-11-3-16.3-13.4-10.5-20.6,2.9-3.6,4.7-4,4.7-1.2,0,3.3,3,8.5,6.2,10.8Zm-4.5-11.5v-2.5l2.1,3.4c2.9,4.7,8.7,9.6,14.4,12.5,5.2,2.6,4.8,3-1.4,1.3-9.2-2.5-15.1-8.2-15.1-14.7Zm-12.1,25.5c-3.4,2.9-8,6.2-10.1,7.4-2.1,1.1-3.5,1.7-3.1,1.3,.4-.4,4.5-4.3,9.1-8.8l8.4-8.1,2.5,1.9c4.8,3.7,9.2,5.1,15.5,5.1,3.2,0,7.3-.6,9.1-1.2,4.3-1.5,4.8-.9,.8,1.1s-11.9,2.7-16.1,1.6c-2.7-.7-4.9-2-8.7-4.7-1-.8-2.2,0-7.4,4.4Zm-3.7,9.6c-1.9,.6-3.6,1-3.8,1.1-.2,0,2.3-1.7,5.5-3.8,3.3-2,6.2-3.5,6.6-3.3,2.3,1.4-1.1,3.8-8.3,6Zm41.2-9.8c0,1.6-8.7,7.2-13.7,8.7-5.7,1.8-6.9,1.8-11.4-.4-4.4-2-7.1-5.3-7.1-8.5s.6-3.4,3.6-1.3c6.8,4.6,16.2,5.2,23.7,1.5,3.8-1.8,4.9-1.9,4.9,0Zm1.2-11.1c-.8,1.3-2.5,1.2-7.2-.9-11.4-4.7-18.6-13.1-17.9-20.7,.2-2.1,.6-2.6,2-2.7,1.8-.1,3.1-1.4,3.1-3.1,0-1.6,2.9-1.8,5.8-.3,3.5,1.8,8.5,7.1,10.7,11.4,3,5.8,4.8,14.2,3.5,16.3Zm4.9-.8l-1.9,.2v-7.3c0-6.6-.2-7.7-2.2-11.7-2.4-4.6-8-10.2-10.3-10.2-2.1,0-1.7-1.9,.9-4.1,1.7-1.4,3.1-1.9,5.7-1.9,6.3,0,11.5,5.9,12.9,15,.9,5.9,.5,10.2-1.7,15.7-1.3,3.4-2,4.2-3.4,4.3Zm18-17.4c0-3.9,.3-5.1,1.8-6.8,2.2-2.5,3.3-1.9,5.7,3.3,2,4.2,2.3,11.6,.5,15-1.3,2.5-4.6,5.4-6.2,5.4-.6,0-1.4,.6-1.8,1.4-.6,1.2,.2,2.4,5.6,7.9,3.5,3.6,6.4,7,6.4,7.6s-1.4,1.7-3.1,2.6c-6.4,3.2-14.3,2.3-17.7-2-2.3-2.9-2.3-4.7,.2-4.7,2.7,0,6.3-3.7,6.3-6.6,0-2.4-2.8-5.4-5.1-5.4-.9,0-.6-.6,.8-2.1,1.1-1.2,3-4.1,4.3-6.5,1.9-3.5,2.3-5.2,2.3-9.1Zm-1.2-11.6c.2,.3-.1,1.1-.6,1.7-.8,1.1-1,1-2.2-.6-.7-1-1.3-1.9-1.3-2.1,0-.5,3.7,.4,4.1,1Zm-1.6,5.5c1.8,3.8,1.5,9.9-.6,14.4-1,2-3.6,5.7-5.9,8.2-3.5,3.9-4.1,4.3-5,3.2-.9-1-.7-1.6,.9-3.7,5.8-7.6,7.1-20.9,2.7-27-1.4-2-1.4-2.1-.1-2.1,2,0,6.6,4,8,7ZM14.44,93.53c0,.1-.4,.2-.7,.2-.8,0-.9-62.1,0-71.5,.4-4.4,.7-5.4,2.5-6.9,1.1-1,3-1.8,4.1-1.8h2l-2.3,1c-4.8,2-4.6,.9-5.1,41.7-.3,20.4-.5,37.2-.5,37.3Zm45.3,60.6c-2.1-8-3.2-11-4.7-12.6-3.5-3.7-8.2-2.3-11.4,3.4l-2.1,3.6-.8-4.7c-.5-2.6-1-13.3-1.2-23.7-.4-20.2-.8-22.1-4.4-24.5-1.6-1.1-7.4-1.9-15.2-2.2l-3.7-.1,.2-36c.1-19.8,.4-36.8,.6-37.7,.2-1,1.3-2.1,2.4-2.5,2.7-1,45.4-.9,151.7,.5,16.7,.2,53,.6,80.6,.8,27.7,.2,54.8,.6,60.4,.7,16.1,.4,137.9,.4,159,0,24.6-.5,77.7-1,163.2-1.6h67.9l1.6,1.6c1.4,1.4,1.7,2.5,1.7,7.8,0,6.3,.3,14.1,.6,18.2,.1,1.9,.3,2,.7,.8,.2-.9,.3-7.1,.1-13.8l-.4-12.3-2.2-1.9-2.2-1.9-68.3,.5c-37.5,.3-93.4,.8-124.1,1.1-98.3,.9-246.6,.5-328.9-1-9.9-.2-47.3-.5-83.2-.8-35.9-.2-66.2-.5-67.3-.6-1.2-.1-3.5-.2-5.3-.3-2.8-.2-3-.3-1.4-.9,1.1-.5,9.4-.6,20.3-.4,10.2,.2,48.9,.6,86,.8,37.2,.3,76.7,.6,87.8,.8,78.2,1.4,212.2,1.8,279.7,.9,23.5-.3,54.1-.7,67.9-.9,13.9-.2,50.5-.4,81.5-.4,62.2-.1,59.2-.4,60.9,4.6,.4,1.2,1,12.2,1.2,24.5,.2,12.2,.6,29.6,.8,38.6,.2,9.7,.1,16.3-.3,16.3-1,0-1.3-6.5-1.5-29.6-.1-12.7-.5-19.8-1-20.3s-.7,6.6-.5,24.4l.3,25.1-7.9,.4c-13.6,.8-14.5,1.9-14.8,17.2-.3,16.1-.8,27.9-1.4,29.8-.5,1.7-1.8,2.3-1.8,.9,0-1.7-4-6.6-6.1-7.5-2-.9-2.5-.8-4.3,.5-2.8,2.1-4.4,5.7-6.2,14.2-2.1,9.8-4.7,16.3-7.1,17.6-1.8,.9-1.8,1-.4,2.5,3.1,3.4,4.1,6.5,4,12.8-.1,3.4-.5,7.2-1.1,8.5-.9,2.2-1,1.7-.7-4.7,.4-8.2-.9-13.2-4.5-17.8-2.6-3.4-6.3-5.1-10.8-5.1-2.7,0-3.8,.4-5.9,2.4-3.3,3.1-3.8,5.4-1.3,5.7,1,.1,3.5,2,5.7,4.1,5,4.8,7.2,10.4,7.1,17.2l-.1,4.7-.7-4c-1.4-8.9-7.8-18.1-15.3-22.1-1.2-.6-3.1-2.2-4.1-3.4s-2.6-3.1-3.5-4.2c-1.8-2.1-4.7-9.2-4.7-11.5s2-3.4,4.1-2.3c2.1,1.1,4.2,.5,4.2-1.1,0-1.3-2.8-4.2-4.1-4.2-.5,0-1.3-.9-1.9-1.9-1-1.8-3-2.6-3-1.2,0,.4,1.7,2.3,3.9,4.2,2.1,2,3.2,3.3,2.4,3-4.6-1.7-5.9-1.1-7.1,2.9-.4,1.4-.7,1.7-.7,.8,0-.8,.4-2.8,1-4.4,.9-2.5,.9-3.2,0-5-.7-1.3-.8-2.2-.3-2.5,1.1-.7,.9-1.9-.4-1.9-1.6,0-2.2,2.1-1.1,4.1,.8,1.4,.8,2.5,0,5.5s-.8,4.4,0,7c1.1,3.8,6,12.4,8.2,14.4,2.2,2,2.1,0-.1-2.5-1.3-1.5-1.1-1.5,.8,.3l2.5,2.2-1.8,1.8-1.8,1.8-2.1-2.5c-1.2-1.4-3.8-4.9-5.8-7.8-7.5-10.8-12.5-15.1-18.5-15.9-2.8-.4-3.8-.9-4.4-2.3-.4-1-1.1-1.8-1.5-1.8-1.1,0-1.9,1.8-.9,2.1,.5,.1,.9,.9,.9,1.6,0,1.1,.8,1.5,4.2,1.8,6.2,.6,10.3,3.4,15.9,11,2.6,3.5,6.4,8.4,8.5,11,3.2,3.9,3.5,4.7,2.3,4.7-.9,0-2.1,.6-2.7,1.2-1,1.1-1.5,.8-5.4-3.4-6.9-7.4-13.3-9.5-18-5.8-1.2,.9-3,1.7-4,1.7-3.3,0-2.6,2.2,1.7,5.1,2.2,1.6,4.4,2.8,4.9,2.8,1.1,0,1.1-1.9,0-3.7-1.7-2.9,2.3-4.8,6.4-3.2,1.9,.8,8.6,7.4,10.4,10.4,1.7,2.8,3.5,3.5,2.1,.8-1.8-3.4-7.1-9.1-10.4-11.2-4-2.5-6.7-2.7-9.2-.7-1.6,1.3-1.7,1.7-.9,3.8l.9,2.3-2.9-2.1c-2.9-2.1-4-3.6-2-2.8,.6,.2,2.3-.6,3.9-1.9,2.5-1.9,3.3-2.2,5.6-1.8,1.5,.2,3.6,.9,4.6,1.4,1.7,.9,8.2,7.3,8.2,8.1,0,.2,.9,1.3,1.9,2.4,2.7,2.8,2.5,4.5-.6,5.1-1.4,.2-3.3,1.2-4.2,2.2-2.1,2.3-4,8.3-3.4,11.3,.4,2.2-.2,2.9-9.7,12.2-14.5,14.1-11.9,13.3-45.7,13.6-27.7,.2-29,.1-29-2.8,0-1.4,3.5-6.8,4.4-6.8,.4,0,1.1,1.1,1.6,2.3,1.6,3.8,4.6,5.4,10.6,5.5,6.6,.2,7.8-.9,7.2-6.4-.3-2.2-.1-3.6,.3-3.6s2.3,1.6,4.1,3.5c4.6,4.8,5.5,4.2,5-3.6-.2-3.5-.7-6.7-1.1-7.2-1.2-1.5-8.2-3.3-10.8-2.8-1.4,.3-2.6,.1-2.9-.3-1.4-2.4,7.1-2.6,11.4-.3,1.7,.9,3.2,1.4,3.4,1.1,.2-.3,.4-3.2,.4-6.4,0-5.6,0-5.9-1.9-6.6-3.2-1.2-10.6,.5-15.5,3.6l-2.9,1.8-2.6-1.6c-1.4-.9-4.3-2.2-6.4-3-7.6-2.8-24.3-.7-27.7,3.4-.7,.8-1.5,.6-4.7-1.1-5.2-2.9-12.5-4.4-15.1-3.2-1.8,.9-1.9,1.2-1.9,6.5,0,3.1,.3,5.8,.7,6,.4,.2,2.3-.3,4.2-1.2,2.7-1.2,4.3-1.5,6.8-1.1,5,.7,4.8,1.9-.2,1.9-3,0-5.4,.5-7.7,1.7l-3.3,1.7-.2,6.3c-.1,3.7,.1,6.6,.6,7.1,.5,.6,2-.4,4.6-3.1,2.1-2.1,4.1-3.9,4.5-3.9s.6,1.3,.3,3.2c-.9,6.1,2,8.4,9.4,7.2,4.1-.6,6-2,9-6.6l1.2-1.8,1.5,2.2c2.5,3.5,2.8,5.3,1.2,6.9-1.3,1.3-4.8,1.4-100.7,1.2-111.3-.2-162.9-.2-186.8-.1-8.9,0-16.6-.2-17.1-.5-1.3-.8-1-3.4,.7-6.2,1.5-2.5,3.7-3.4,3.7-1.6,0,.5,1,2,2.1,3.4,1.9,2.3,2.6,2.5,7.1,2.9,4,.3,5.4,.1,7-.9,1.9-1.2,2-1.6,1.6-5.8l-.4-4.5,2,1.8c1.1,.9,2.8,2.7,3.8,3.8,1,1.2,2.4,2.1,3.2,2.1,1.3,0,1.4-.6,1.4-6.6v-6.6l-2.4-1.4c-1.4-.9-4.4-1.6-7.5-1.8-6.1-.5-6.6-2-.8-2.3,2.5-.1,4.7,.2,6.2,1,3.8,1.9,4.5,1.1,4.2-4.8-.1-2.8-.5-5.6-.8-6.1-1.1-1.7-9.7-.5-14.6,2.1l-4.3,2.3-4.8-2.4c-4.6-2.3-5.2-2.4-13.9-2.4s-9.2,0-14.5,2.7q-5.4,2.7-7.2,1.3c-1-.8-2.2-1.4-2.7-1.4s-1.8-.5-2.9-1.1c-2.6-1.4-9.1-2-10.8-1.1-1.1,.6-1.3,1.8-1.3,6.7,0,5.3,.1,6,1.3,6,.7,0,1.7-.4,2.1-.8,1-1,8.8-1.8,10.5-1,1,.4,.1,.7-3.2,1.1-2.5,.3-5.9,1.2-7.5,2q-2.9,1.5-3.1,6.7c-.2,5.8,.2,8.6,1.5,8.6,.4,0,2-1.3,3.4-3,1.4-1.6,3.3-3.3,4.1-3.8,1.4-.8,1.5-.7,1,2.5-.6,4,.4,7,2.6,7.7,.9,.3,3.5,.3,5.7,0,4.7-.6,8.7-3.6,9.6-7l.5-2.1,2.2,2.4c2.2,2.4,2.7,4.9,1.5,6.8-.5,.9-5.3,1.1-26.8,1.3-14.2,.1-27-.1-28.5-.4-5.3-1-10.2-4.4-19.8-13.6l-9.8-9.3v-4.6c0-5.6-1.5-8.2-6.2-10.4-1.7-.8-3.1-1.8-3.1-2.1-.1-2,9.5-13.3,11.3-13.3,.5,0-.1,.8-1.3,1.7-3.7,2.9-9.8,10.8-9,11.6,.5,.5,.3,.7,3.4-3.8,3.1-4.6,9.3-9.5,12-9.5,2.3,0,3.8,1.3,3.8,3.2,0,.7,.4,1.3,.8,1.3,1.2,0,.9-2.8-.4-4.1-.7-.7-2.6-1.2-4.7-1.2-3.1,0-3.3-.1-1.6-.8,2.5-1,6.2-.2,7.9,1.6,.7,.8,2.2,1.5,3.3,1.5,1.7,.1,1.5,.4-2,2.6-2.1,1.4-3.6,2.7-3.2,3,.9,.6,7.5-3.7,8.1-5.2,.7-1.7-.4-2.6-2.2-1.9-1.3,.5-2,.2-3.4-1.2-4.4-4.7-14.4-.5-20.1,8.3-1.8,2.8-1.9,2.9-2.5,1.3-.3-1-1-1.7-1.4-1.7-.7,0,1.7-3.5,11.5-16.5,4.9-6.5,13.5-10.6,14.1-6.7,.3,2.6,2.4,3.6,4.1,2.1,.7-.7,2.4-1.4,3.6-1.5,3.1-.3,3.1-3.1,0-6.4-2.8-3-5.4-3.2-6.4-.5-.6,1.5-1.1,1.9-2.2,1.5-4.9-1.6-11.7,3.6-18.8,14-4.6,6.8-8.8,11.8-9.8,11.8-.3,0-.7-.5-1-1.2-.3-.8,.5-2.4,2.2-4.3,4.4-5.2,6.7-10.7,6.5-15.7-.1-2.4-.2-5.3-.2-6.4s.2-3.2,.5-4.5c.8-3.6-.5-3.1-5.8,2.3-4.8,4.9-6,8-2.6,6.9,4-1.2,4.7-.9,4.9,2.5,.4,5.7-6,15.9-11.9,18.9-6.4,3.3-12.9,13-14,20.7-.3,1.8-.7,3.2-1,3-.9-.6,.5-9.8,2.2-13.7,1.9-4.4,7.4-10,9.8-10s1.9-2.8-1-5.7c-2.1-2.2-3-2.6-5.8-2.6-9.1,0-15.5,10.2-14.7,23.1,.3,5.4,.3,5.6-.6,3.2-1.2-3.3-1.3-10-.3-13.7,.5-1.5,1.7-3.8,2.8-5.1l2-2.4-1.6-1.2c-2.5-1.9-4.4-6.5-7.3-17.7Zm564.8,14.6c-.9,0-5.3-8.8-4.7-9.4,.1-.1,1.3,1.9,2.6,4.6,1.2,2.6,2.2,4.8,2.1,4.8Zm-492.1-15.3c1.3-.5,3,.8,2.4,1.9-.3,.6-1.4,.8-2.7,.5-1.8-.4-2.2-.2-2.2,1,0,.8-.5,1.5-1.1,1.5-.7,0-1.1-.7-1.1-1.9,0-1.7-.4-1.9-3-1.9-1.7,0-3.9,.4-5.1,.8-2.8,1-8,6.1-10.9,10.6-2.5,3.9-3.7,4.9-1.4,1.3,2.6-4.6,6.6-9.2,9.8-11.5,2.8-1.9,3.9-2.3,7.7-2.3,4.1,0,4.4-.1,4.4-1.7,0-1.2,.4-1.7,1.5-1.7,1.6,0,2,1.1,.7,1.9-1,.7-.2,1.9,1,1.5Zm-29.3-6.8c-.3,.9-.5,2.8-.5,4.3,.1,2.6,0,2.7-1.3,1.9-1.1-.7-1.7-.7-2.9,0-2.9,1.7-3.4,.9-.9-1.3,1.4-1.2,3.4-3.1,4.4-4.3,1.2-1.4,1.6-1.6,1.2-.6Zm.3,9.2c.2,.9,.2,2.4,0,3.4-.2,.9-.3,.2-.3-1.7s.1-2.6,.3-1.7Zm-48.1,20.7q-.7-1.8,1.9-1.8,2.3,0,1,1.5c-1.6,1.8-2.3,1.9-2.9,.3Zm1.5,4.3c1.4-2.5,6.1-6.8,7.6-6.8,1.4,0,1.4,.1-.6,3.5-1.4,2.4-1.7,4-1.7,8.9,0,6.7,1.1,10.5,4.2,15.1,1.1,1.7,2.1,3.5,2.1,3.9,0,2-1.7,1.2-5.1-2.6-7-7.3-9.6-16.1-6.5-22Zm1.3,43.1c-1.3,.6-3.9,1-5.6,.7-3.4,0-11.1-3.1-11.1-4.4,0-.4,3-3.7,6.7-7.4,3.7-3.7,6.7-7.2,6.7-7.9s.5-1.2,1.1-1.2c1.3,0,1.6-1.9,.4-2.6-.4-.3-1,.1-1.2,.7-.3,.8-1.4,1.2-2.9,1.2-2.5,0-5.3-2.3-7.2-6-1.4-2.6-1.1-9.7,.4-12.8,1.5-3,4.1-5.9,5.2-5.9,1.6,0,3.4,4.3,3.4,8,0,4.5,1.8,9.4,5.1,14l2.6,3.6-1.9,.7c-5.4,2.1-3.9,9.9,2.2,11,1.7,.3,2.6,.9,2.6,1.7,0,1.8-3.6,5.4-6.5,6.6Z"/><path class="e" d="M691.91,103.3l-2.55,3-2,36-3,12,4,7h2l2-3h1l1,10-.71,.71-.04,.03-.26,.26c-4,2-10-11-10-11l-6,12c12,6,16,17,16,17,7,19-6,34-6,34l2,4v2h-2l-1-3h-1c-17,7-20,3-20,3-5-2-9-8-9-8l-1,3c-.49,.49-1.22,1.22-1.83,1.83l-.53,.53-.64,.64c-5,3-5,1-5,1l-3-3v-4l-8,4c-11,5-13,2-13,2l-6-1c-3,2-7,3-7,3l-11,3-26,1h-39l-9-1-3-1-3-1-1,2H205.36l-1-2-2-1-2,3-26,1h-20l-24-1-12-2-11-3-2-1h-4l-5,1-7-1-7-4-3-1v2l-2,4-5,1-3-4-1-2-4,4c-1,0-3,3-3,3l-3,1h-3l-4.32,.81-1.68-.81-4-1-5-3h-2l-1,2,1,3-1,1-2-1v-3l2-4-2-3-4-6-2-8v-11l4-11,6-7,5-3,2.58-2.43-2.58-4.57-3-6-3,4-2,4c-1,1-4.79,3.5-4.79,3.5l-1.21-1.5v-11l2,1,1,3h2c1,0,3-4,3-4l1-4-3-14v-20l-1-17-1-4-3.48-2.23-15.88-.08v.31l.06,1.8v.02l-.06,3.81h0l.54,23.34,.02,29.09h0v.02l.02,.46,.18,4.32,.02,.43,.58,48.34v24.37l1,6,1,1,1.57,1.35h0l6.42,.65h501l154-1h24l1-4,1-10v-15l1-24-.5-20.47,.5-24.53v-33l.1-7.57h0l-.07-1-.03-.43-16.45,1Z"/></g></g></g></svg>