<?xml version="1.0" encoding="utf-8"?>
<!-- Generator: Adobe Illustrator 26.2.1, SVG Export Plug-In . SVG Version: 6.00 Build 0)  -->
<svg version="1.1" id="레이어_1" xmlns="http://www.w3.org/2000/svg" xmlns:xlink="http://www.w3.org/1999/xlink" x="0px"
	 y="0px" viewBox="0 0 1736 977" style="enable-background:new 0 0 1736 977;" xml:space="preserve">
<style type="text/css">
	.st0{fill:#4A4E69;}
</style>
<path class="st0" d="M1725.6,965c-2.8,2.8-3,2.8-4.7,1.7c-1-0.7-2.5-1.2-3.4-1.2s-1.9-0.4-2.2-0.8c-0.3-0.5-0.6-5.7-0.7-11.7
	c-0.2-11.4-0.8-16.8-1.8-16.8c-0.3,0-0.4,3.5-0.2,7.7c0.3,6.7,0.2,8.2-1.2,11.3c-1.2,2.8-2.2,3.8-4.4,4.7c-1.6,0.6-3.4,1.4-4.1,1.8
	c-4,2.2-4.9-1.1-1.4-5.3c1.2-1.4,2.7-3.7,3.4-5.1c1.5-2.9,4.2-11.3,4.2-13.1c0-0.7,0.7-2,1.6-2.9c1.6-1.6,1.6-3-0.1-11.2
	c-0.4-1.9-0.8-4.2-1-5.2c-1.1-6.7-9-22.8-15.6-31.5c-0.8-1-3.7-5.1-6.6-9c-7.8-10.7-27.5-30.4-40.2-40.2c-7.8-6-33.7-19.5-47-24.4
	c-20.8-7.7-43-10.9-75.4-10.6c-18.3,0.1-25,0.8-35.2,3.2c-3.9,0.9-8.5,3.4-8.5,4.5c0,1.1-2.4,0.8-3.9-0.6c-1.3-1.2-1.4-1.1-1.4,0.4
	c0,2.6,1.9,6.3,4.4,8.7c3,2.8,3,5,0,7.5c-3,2.5-5.4,2.5-8.9-0.4c-5-4-5.8-11-2-19.1c1-2.1,2.8-4.6,4.1-5.5c2.7-1.9,4.3-1.5,3,0.8
	c-0.4,0.8-0.7,2.2-0.5,3.1c0.2,1.3,0.6,0.9,2-2.1c0.9-2.1,3.2-5.3,5.2-7.3c1.9-1.9,3.3-3.7,3-4c-0.5-0.5-10,4.1-13.3,6.3
	c-1.1,0.7-4.3,2.5-7.2,3.8c-2.9,1.4-7.1,3.7-9.4,5.2c-6.2,4-8.3,4.9-21.8,9.3c-12,3.9-23.6,6.5-40.9,9.1
	c-14.2,2.1-18.6,3.5-25.7,7.9c-1.4,0.9-1.8,0.8-3.1-0.4c-1.5-1.4-1.5-1.4-1.5,0c0,2.5,2.7,7.3,5.5,9.9c3.6,3.3,3.8,7.1,0.6,10.5
	c-2.7,2.8-4.7,2.5-9-1.5c-4.1-3.9-5.2-8-3.9-15.1c1.2-6.7,2.6-10.9,4.2-12.7c1.8-2,2.4-1.7,2.6,1.8c0.2,3.1,0.3,3,1.2-2.1
	c0.5-2.9,2-7,3.3-9.2c1.3-2.2,2.1-4.1,2-4.3c-0.4-0.4-6.6,4.6-10.1,7.9c-1.3,1.2-2.7,2.3-3.1,2.3c-0.4,0-3.1,1.3-5.9,2.9
	c-2.8,1.6-10.3,4.7-16.5,6.8c-11.2,3.8-13.5,4.4-28,7.5c-21.8,4.7-35.8,9.9-41.5,15.4c-4.8,4.7-6.9,2.7-6.3-6
	c0.4-5.2,1.4-8.5,4.1-12.6c3.1-4.8-0.6-3.3-14.3,6c-9.2,6.2-22.2,13.7-23.9,13.7c-0.3,0-2,0.7-3.8,1.4c-1.7,0.8-5.2,2-7.7,2.7
	c-2.5,0.7-8.5,2.6-13.4,4.2c-4.9,1.6-9.4,2.8-10,2.5c-0.8-0.3-1-1.2-0.8-3.1c0.3-2.2,0.1-2.6-0.9-2.3c-2,0.7-17.6,5-20.7,5.8
	c-1.7,0.4-3.7,1.1-4.5,1.4c-4.2,1.9-11.2,3-20.2,3c-15.6,0.1-25.9-2.2-25.9-6c0-1.4-0.1-1.4-4.2,0c-6.2,2.1-34.1,2.7-46.5,1.2
	c-19.1-2.4-31.9-9.9-35.8-20.6c-2.5-6.9-0.1-15.4,4.8-17c1-0.3,1.5-1.2,1.5-2.5c0-2.3,2.2-5.1,5.6-7.3c1.6-1,3.6-1.4,6.8-1.5
	c5.4,0,8.8,1.9,11.9,6.7c1.8,2.7,1.9,3.5,1.5,7.2c-0.6,5.2-3.4,8.2-7.5,8.2c-3,0-4-1.4-2.7-4.1c1.8-4-3.7-9.4-9.6-9.4
	c-3.1,0-5.6,1.2-3.7,1.8c0.6,0.2,2.9,0.5,5.2,0.8c2.2,0.2,4.3,0.8,4.6,1.3c0.3,0.5,0.4,2.8,0.2,5.1c-0.4,5.5,1.8,10.1,6.8,14.3
	c4.1,3.3,11.4,7.3,12.1,6.6c0.2-0.2-0.3-1.4-1.1-2.6c-2.2-3-2.9-6.8-1.3-7.5c0.8-0.3,1.9,0.1,2.9,1.1c2.8,2.7,9.8,5.4,17.9,7
	c6.6,1.3,9.8,1.5,21.6,1.2l13.9-0.3l9.4-3.2c16.8-5.7,29.3-11.6,28.7-13.4c-0.2-0.5-0.8-0.9-1.4-0.9c-1.3,0-6.7-3.3-9.1-5.5
	c-0.9-0.8-1.7-2.1-1.7-2.9c0-1.4,0.4-1.5,8-2.5c4.1-0.5,17.9-4.7,29.9-9c16.6-6,23.9-7.4,41.2-7.9c9-0.3,15-0.7,15.2-1.2
	c0.1-0.4-0.8-1.2-2.2-1.8c-5.7-2.5-10.2-9.3-9.4-14.4c0.3-2,0.5-2,8.5-0.9c6.4,0.9,18-0.2,24.9-2.3c5.6-1.7,22.1-7.8,25.4-9.4
	c8.6-4.2,22-9,31-11.2c9.6-2.4,19.5-3.3,32.7-3c8.5,0.2,12.4,0,12.4-0.5c0-0.4-1.8-1.7-4.1-2.8c-2.3-1.1-5.5-3.3-7.2-4.8
	c-3-2.7-6.3-7.9-5.5-8.7c0.2-0.2,3.3-0.2,6.9,0c5.2,0.3,9.3-0.1,20.7-2c13.4-2.3,15.2-2.4,32.6-2.3c17.6,0.1,22.1,0.4,37.2,3.1
	c7.3,1.3,18.4,4.5,23.9,6.8c5.8,2.5,8.5,2.6,8.1,0.3c-0.8-4.5-0.5-5.2,1.6-5.5c1.1-0.1,2.1,0.1,2.1,0.4c0,1.1,3.4,2.3,11.4,3.9
	c4.2,0.8,10.5,2.5,14.1,3.7c3.5,1.2,11.4,3.7,17.5,5.6c6.1,1.9,14.5,4.8,18.8,6.5c18,7.2,42.1,18.7,49.2,23.5
	c2.2,1.5,4.2,2.7,4.3,2.7c1.5,0,43,24.5,47.8,28.3c2,1.6,5.4,4.1,7.5,5.7c8.4,6.3,10.3,7.9,21.4,19.2c13.8,13.9,23.1,24.5,28.4,32.6
	c4,6,9.6,16.8,11.3,21.5c2.5,6.9,6.3,15.7,6.6,15.4c0.4-0.4-0.3-3.1-3.7-13.3c-1.2-3.6-2.2-7.5-2.2-8.7c0-1.2-0.7-4.3-1.5-6.9
	c-0.8-2.6-2.8-10.4-4.5-17.3c-3.2-13.2-9.2-32.1-12.5-39.4c-1.1-2.4-3.1-7.2-4.5-10.7c-1.4-3.5-3.4-8.1-4.4-10.3
	c-1-2.2-1.9-4.2-1.9-4.3c0-0.2-1.7-3.9-3.8-8.2s-3.8-8.1-3.8-8.3c0-0.9-6.3-12.9-11-21c-2.9-5-7-12.5-9.2-16.9
	c-2.2-4.3-4.4-8.4-4.9-9s-2.5-4.1-4.4-7.8c-1.9-3.7-4-7.4-4.5-8.2c-4.5-7.1-22-40.4-24.5-46.6c-1.4-3.4-3.5-8.2-6.3-14.3
	c-7.4-15.9-15-38.9-18.3-55.1c-5-25-4.3-40,2.5-54.7c2.5-5.4,9.1-9.8,14.8-9.8c4.7,0,11.2,7,17.2,18.4c5,9.6,8.5,14.3,13.6,18.1
	c4.3,3.3,8.6,5.3,9.5,4.5c0.3-0.3-1.1-5.3-3-11.2c-5.4-16.6-6.8-24-6.3-34.3c0.4-9.6,2.5-16.3,7.1-22.8c2.7-3.9,4.8-4.4,6.1-1.5
	c1.2,2.7,1.1,3.7-0.6,5.2c-2.3,2.1-5,8.6-5.6,13.6c-1.4,10.7-0.2,20.3,4.5,35.2c1.4,4.5,2.9,9.7,3.4,11.4c1,3.8,1.9,4,6,1
	c7.7-5.6,10.5-12.1,11-25.9c0.4-9.4,0.3-10-1.9-16.2c-2.1-6-5.5-12.2-10.7-20c-1.2-1.8-3.2-4.7-4.4-6.5c-1.2-1.8-2.6-4.1-3-5.1
	c-0.4-1-1.4-2.8-2.1-4c-2-3.3-7.3-15.9-8.7-20.6c-0.7-2.3-1.4-8.2-1.6-13.1c-0.5-11.6,1.1-18.9,6.9-30.9c2.3-4.7,4.1-8.9,4.1-9.4
	c0-0.5-0.7-3-1.4-5.5c-2.8-8.9-4-20.7-3.5-33.7c0.7-17.6,1.8-21.6,5-18.7c1.6,1.4,1.6,1.4,1.2-0.1c-6.2-22.2-8.8-37.7-8-47.4
	c1.6-19.1,6.5-30.3,14.7-33.7c3.3-1.4,4.7-1.3,7.5,0.3c2.8,1.6,8.5,6.5,8.5,7.4c0,0.4,1.2,1.2,2.5,1.8c2.1,1,2.7,1,3.8,0.2
	c1.1-0.8,1.2-1.2,0.4-2.1c-0.5-0.6-0.8-1.8-0.6-2.6c0.2-0.8-0.2-2-0.9-2.6c-2.5-2.3-11.2-21.3-12.9-28.2c-0.9-3.7-3.5-19.1-4-24
	c-0.3-2.3-0.6-10.6-0.7-18.4c-0.2-11.3-0.5-14.8-1.5-16.7c-0.7-1.3-1.2-3.6-1.2-5.2c0-1.6-0.6-6.9-1.2-11.8
	c-1.5-10.8-1.7-39.2-0.4-49.8c1.6-12.9,3.3-22.9,4.1-24.3c0.4-0.8,1.6-4.6,2.5-8.5c1-3.9,2.2-7.9,2.8-9c0.6-1.1,1.4-3.5,1.8-5.4
	c2.7-10.9,12.1-30.4,21.7-45.3c1.6-2.4,3.9-6.1,5.1-8.3s3-4.9,3.9-6.2c1.2-1.7,1.7-3.4,1.7-6.1c0-2.1,0.3-3.8,0.7-3.8
	c0.7,0,8.3,10.6,8.3,11.6c0,0.2-0.7,0.7-1.4,1.2c-1.8,1-4,0.2-3.5-1.2c0.7-1.9-2.3-1.1-3.6,0.9c-1.2,1.8-1.2,2.1-0.1,3.7
	c1.6,2.4,1.5,3.4-0.7,5.5c-1,1-2.6,3.1-3.5,4.7c-0.9,1.6-2.2,3.1-2.9,3.3c-0.7,0.2-1.7,1.3-2.1,2.4c-0.5,1.1-2,3.7-3.5,5.8
	c-3.2,4.6-6.9,12.1-10,20.4c-1.2,3.4-2.8,7.2-3.5,8.5c-1.9,3.6-4.8,13.1-6.3,20.6c-0.8,3.7-1.9,9.3-2.6,12.4
	c-2.3,10.3-3.5,21.3-3.8,34.4c-0.2,7.5-0.6,13.4-1.1,13.9c-0.4,0.5-0.5,1.3-0.1,1.6c0.8,0.9,2.3,11.4,1.8,12.8
	c-0.2,0.6-0.2,1.6,0.1,2.4c0.3,0.7,0.7,2.5,0.8,3.8c0.1,1.4,0.5,2.7,0.7,3c0.7,0.7,1.8-1.5,1.8-3.4c0-0.9,0.6-2,1.2-2.3
	c0.7-0.4,0.9-0.9,0.5-1.2c-0.9-0.5,1.6-10.7,4.5-18.6c3.9-10.6,12.5-21.8,18.9-24.9c7.4-3.5,11.1-8.5,13.5-18.5
	c1.1-4.6,1.1-5.3,0-9.4c-2.3-7.9-6.6-9.8-16.1-7.1c-6.1,1.8-9.6,1.6-13.9-0.5c-3.3-1.7-4.2-3.7-2.7-6.1c0.6-0.9,0.9-0.8,2.2,0.8
	c1.4,1.7,1.9,1.8,8.2,1.7c4.9-0.1,7.2-0.4,8.6-1.4c1.5-1,2.8-1.1,5.5-0.7c4.5,0.7,8.3,3.6,10.6,8.1c0.9,1.9,2,3.6,2.4,3.9
	c0.9,0.6,0.9,5.4,0,6c-0.4,0.3-0.8,1.4-0.8,2.5c0,1.1-0.8,3.7-1.9,5.8s-1.9,4.2-1.9,4.8c0,1.1-5.1,7.7-6.2,8.2
	c-0.3,0.1-2.1,1.6-4,3.2c-1.9,1.6-3.8,2.9-4.3,2.9c-1.7,0-7.2,5.3-8.8,8.5c-0.9,1.7-2.1,3.8-2.8,4.6c-0.7,0.8-1.9,3.2-2.6,5.2
	c-0.7,2.1-2.2,5.3-3.1,7.3c-1,1.9-1.8,4.5-1.8,5.8c0,1.2-0.7,7.2-1.6,13.3c-1.6,11.3-1.5,15,0.4,21.2c0.6,1.9,1.8,6.1,2.7,9.3
	c0.9,3.3,2.5,7.8,3.5,10c1,2.2,1.8,5.1,1.8,6.3c0,1.3,1.1,4.2,2.6,6.6c1.4,2.4,2.6,5.1,2.6,6.1c0,1,0.5,3.5,1.1,5.5
	c0.6,2.1,1.3,4.4,1.5,5.2c3.5,15,4.6,24.4,3.4,31.3c-0.7,4.3-0.7,5.6,0.2,7.2c0.6,1.1,2.9,5.5,5.1,9.9c2.2,4.3,4.5,9.2,4.9,10.9
	c0.9,3.2,3,16.7,3.1,19.9c0.2,4.8,0,7.3-0.7,9.4c-3.8,12.3-4,12.6-7.4,16.2c-4.4,4.6-7.6,5-11.2,1.4c-3.8-3.8-5.5-9.7-5.3-18.4
	c0.2-10.4,0.2-10.5-1.7-11.4c-2.3-1.1-5.2,0.5-9.3,4.9c-2.9,3.1-7.7,11.8-7.7,14c0,0.5-0.8,1.5-1.7,2.1l-1.7,1.1l2.5,7
	c2.2,6.3,6.6,19.6,8.4,25.8c1.6,5.5,0.2,18.6-2.4,22.2c-0.9,1.3-1.5,3.3-1.5,5.2c0,1.8-0.8,4.9-1.9,7.2c-2.2,4.7-2.2,4.8-0.7,7.9
	c2.2,4.6,8.8,23.4,10.2,29.1c2.1,8.4,2.4,12.7,1.4,19.6c-1.5,10.9-7.4,23.2-10.6,21.9c-0.7-0.3-1.6-1.8-2.2-3.4
	c-0.9-2.6-0.8-3,0.6-4.6c4.7-5.1,6.1-18.4,3.2-31.1c-2.9-12.7-8.3-27-10-26.5c-1.5,0.5-5,10.5-5.9,17.1c-1.1,7.5-0.5,19.6,1.2,25.2
	c2.6,8.6,8.7,21.5,13.4,27.9c4.7,6.4,6,8.6,11,17.8c3.4,6.4,4.3,9.3,5.7,18.1c0.8,5.5,0.9,8.5,0.4,10.2c-0.4,1.3-1.1,4.5-1.6,7.1
	s-1.5,6.2-2.2,8c-1.9,4.4-9.8,13.5-13.9,15.9c-3.7,2.2-3.8,2.6-1.1,9c0.7,1.7,1.7,4.5,2.3,6.4c0.6,1.9,1.3,3.7,1.6,4.1
	c0.3,0.4,1.1,2.8,1.8,5.4c0.7,2.6,2.2,7.8,3.5,11.6c1.3,3.8,3.1,10.2,4.2,14.1c1,3.9,2.7,9.3,3.7,12c3.5,9.6,9.3,31.9,12.5,48.8
	c0.4,2.3,1.1,5.5,1.4,7.1c0.3,1.6,1.8,9.4,3.3,17.2c1.5,7.8,3.4,17.3,4.2,21c0.8,3.7,1.5,7.7,1.5,9c0,1.2,0.4,4.1,0.7,6.4
	s1.1,7.2,1.6,10.9c0.5,3.7,1.1,8.4,1.4,10.5c4.9,34.1,7,60.8,4.9,61.3c-0.7,0.2-3.1-6.8-5.9-16.7c-0.6-2.3-1.3-6.2-1.6-8.6
	c-0.3-2.5-1.4-11.6-2.6-20.2s-2.7-21-3.4-27.4c-0.7-6.4-1.8-14.3-2.4-17.6s-1.9-10.6-2.9-16.1c-1-5.6-2.3-11.8-3-13.9
	c-0.6-2.1-1.7-6.8-2.3-10.5c-1.2-7-3.8-18.7-7.9-36.4c-1.3-5.6-2.6-11.3-3-12.7c-2.1-9-7.7-30-9.3-34.6c-1-3-3.1-9.5-4.6-14.5
	c-3.4-11.1-6.3-19.1-7.6-20.7c-0.6-0.8-1.8-1.1-3.3-0.8c-3.2,0.5-12.5-4.3-16.3-8.4c-3-3.2-6.1-7.8-14.7-21.8
	c-5.9-9.7-8.9-11.7-13.4-9.3c-6,3.2-8.1,9-8.6,23.2c-0.4,11.4,1,22.6,5.2,39.7c2.1,8.5,11.7,36.5,13.2,38.6c0.4,0.5,1.4,3,2.4,5.7
	c0.9,2.7,2,5.2,2.3,5.6c0.3,0.4,2.9,5.1,5.6,10.5c12.3,23.8,15.8,30.4,19.7,37.1c2.3,3.9,5.5,10,7.3,13.5c1.7,3.5,5.5,10.6,8.4,15.8
	c11.8,21.2,27.7,54,34.8,72c1.5,3.9,4.4,11,6.3,15.8c1.9,4.7,4.5,11.7,5.8,15.4c1.2,3.7,2.5,7.1,2.9,7.5c0.3,0.4,0.8,2.1,1,3.8
	s1.3,6,2.4,9.8c4.9,16.7,7.5,29.8,8.6,43.5c0.6,7.3,0.5,9.3-0.3,10.5c-0.9,1.3-0.9,1.7,0,2.3c0.8,0.5,1.3,3.7,1.8,11.2
	c0.4,5.8,1.3,13.1,1.9,16.4C1729,961.7,1728.9,961.7,1725.6,965L1725.6,965z"/>
<path class="st0" d="M1705.3,852.2c-0.4,0-0.8,0.1-0.8,0.3c0,0.2,0.3,0.5,0.8,0.8c0.4,0.3,0.8,0.1,0.8-0.3
	C1706.1,852.5,1705.7,852.2,1705.3,852.2L1705.3,852.2z"/>
<path class="st0" d="M1699.9,338.4c-0.1-2.5-2.2-10.4-3.2-12.5c-0.6-1.2-1.1-2.6-1.1-3.2c0-1.5-4.9-11.3-6.9-13.8
	c-1.6-2.1-1.8-2.1-5.1-1.2c-4.6,1.2-6.7,0.5-10.4-3.2c-4.1-4.2-6.7-5.8-9.2-5.8c-6.8,0-13.5,19.2-12.1,34.9
	c0.7,8.1,4.3,24.6,5.4,24.9c0.7,0.2,0.8-0.3,0.5-1.8c-0.3-1.7,0.4-3.3,3.3-7.7c4.5-6.9,9.2-11.3,13.9-13.1c5.1-1.9,7.6-0.7,10.1,4.7
	c1.7,3.6,1.8,4.5,1.1,7.9c-1.9,9.7,0.7,20,5.1,20c2.1,0,5.2-2.9,6.8-6.6c2.1-4.5,2.8-9.6,2.4-16.6
	C1700.1,342.1,1699.9,339,1699.9,338.4L1699.9,338.4z"/>
<path class="st0" d="M1685.9,283.7c-0.4-1.9-1.3-6.4-2-10.1c-0.7-3.7-1.5-7.1-1.8-7.5c-0.3-0.4-1-2.1-1.5-3.7
	c-0.5-1.7-1.3-3.7-1.9-4.5s-1.5-3.5-2.2-6s-1.6-5.1-2-5.8c-1.4-2.6-2.9-7.7-2.9-9.7c0-1.1-0.4-2.2-0.8-2.5c-0.4-0.3-0.7-1.2-0.6-2.1
	c0.1-1-0.2-1.7-1.1-1.9c-1.1-0.2-1.2,0.2-1,3.4c0.2,2,0.5,6.1,0.8,9.1c0.3,3,0.9,7.6,1.5,10.1c0.6,2.5,1.6,7.2,2.2,10.2
	c1.6,7.6,4.1,14.1,8.3,22.1c3.3,6.3,4.4,7.9,5.9,7.9C1687.4,292.7,1687.1,289.7,1685.9,283.7L1685.9,283.7z"/>
<path class="st0" d="M1659.5,394.7c-1.1-6.8-3.7-16.5-4.5-16.5c-0.9,0-0.9,28.9,0,33.5c0.4,2,0.9,5.1,1.1,7c0.5,3.7,1.5,5.9,2.3,5.1
	c0.5-0.5,1.5-12.2,1.7-20.4C1660.2,401.2,1659.9,397.3,1659.5,394.7L1659.5,394.7z"/>
<path class="st0" d="M1601.6,806c-4.6-2.3-9.8-4.7-11.4-5.3c-1.7-0.6-5.7-2.1-9-3.4c-3.3-1.2-7-2.4-8.2-2.7
	c-1.2-0.2-2.9-0.9-3.8-1.4c-2.4-1.6-36.2-10.5-48.4-12.8c-15.7-2.9-37.5-4.4-63.8-4.3c-31.8,0.1-52.5,1.8-72.4,5.9
	c-5.4,1.1-11.3,2.3-13.2,2.6c-4.8,0.9-12.8,2.8-19,4.7c-2.9,0.8-6.8,2-8.6,2.5c-10.8,3-42.1,12.7-45,13.9c-1.9,0.8-7.9,2.8-13.5,4.6
	c-5.6,1.7-10.8,3.6-11.6,4.1c-0.8,0.5-3.5,1.6-6,2.4c-2.5,0.8-5.5,2-6.7,2.6c-3.7,1.9-17.6,7.3-24.4,9.5c-7,2.3-31.5,11.6-34.5,13.1
	c-1,0.5-3.2,1.3-4.9,1.7c-6.1,1.5-20.3,5.6-21.6,6.3c-0.7,0.4-1.9,0.7-2.7,0.7s-3.4,0.7-5.8,1.5c-2.4,0.8-6.5,2-8.9,2.6
	c-2.5,0.6-7,1.8-10.1,2.6s-7.1,1.8-9,2.2c-1.9,0.4-7.2,1.5-11.8,2.4c-4.6,1-8.3,2.1-8.2,2.5c0.4,1.3,3.3,1.3,5.2,0
	c1-0.6,4.6-1.5,8.1-2c3.5-0.4,8.9-1.4,12.1-2.3c3.2-0.8,8.1-2,10.9-2.5c5.4-1.1,19.5-4.9,30.6-8.3c3.7-1.1,9.3-2.8,12.4-3.7
	c3.1-0.9,6.6-2.1,7.9-2.6c1.2-0.5,6.3-2.4,11.2-4.1c34.6-12.2,35.2-12.5,53.6-19.8c17.4-7,66.7-23.1,78.8-25.9c3.1-0.7,9-2.1,13.1-3
	c29.1-6.9,30.9-7.2,55.9-9.4c14.6-1.3,41.5-1.6,60-0.7c25.7,1.2,57.1,5.9,73.2,10.8c22.2,6.8,31.4,10,42.3,14.3
	c6.8,2.7,13.1,5.3,14,5.6c1.1,0.4,1.7,0.4,1.7-0.1C1610.1,810.5,1606.3,808.3,1601.6,806L1601.6,806z"/>
<path class="st0" d="M1705.4,876.5c-0.4,0.2-1.9-1.8-3.4-4.5s-4.1-6.8-5.9-9.1c-1.7-2.3-4.2-5.7-5.5-7.5c-5.2-7.4-29.6-30-39.6-36.7
	c-1.6-1.1-4.9-3.6-7.2-5.4c-4.6-3.7-10.5-7.8-19.4-13.5c-22.7-14.4-44.9-24.6-67.5-30.9c-4.7-1.3-9.5-2.9-10.7-3.4s-2.7-1-3.6-1
	c-1.7,0-14.8-4.3-16.1-5.3c-0.4-0.3-2.8-1-5.2-1.5s-5.7-1.4-7.1-1.9c-2.5-1-5.6-1.8-25.5-7c-6.5-1.7-7.9-2.3-8.1-3.6
	c-0.1-0.8,0.3-2,1-2.5c1-0.8,2.9-0.4,12.2,2.6c10.9,3.5,16.8,5.6,29.6,10.6c7.9,3.1,9.9,3.3,4.5,0.5c-2.2-1.1-3.6-2.3-3.3-2.6
	c0.7-0.7,8.7,0.8,17.4,3.3c3,0.9,9.9,2.7,15.3,4.1c20,5.3,37.2,12.9,61.1,27.1c11.7,7,16.3,9.8,26.7,16.8
	c10.5,7,30.5,24.2,40.5,34.9c14.3,15.3,14.1,15,17,24.4C1706.2,876.2,1706.2,876,1705.4,876.5L1705.4,876.5z"/>
<path class="st0" d="M1696.3,647.2c-1.4,3.2-3.4,4.2-4.2,2.2c-0.2-0.6,0.3-2.2,1.1-3.6c1.8-2.9,2.1-8.6,0.6-10.7
	c-1.8-2.4-3.7-1.2-5,3.3c-1.9,6.7-3.1,7.5-6.5,4.2c-2-2-2.5-4.9-0.7-4.9c0.7,0,1.1,0.7,1.1,1.8c0,2.2,1.4,3.3,2.3,1.8
	c0.4-0.6,0.7-2.2,0.7-3.7c0-3.6,2.5-7.5,4.7-7.5c3.5,0,7.3,6.3,7.3,12C1697.8,643.2,1697.1,645.5,1696.3,647.2L1696.3,647.2z"/>
<path class="st0" d="M1689.5,625.3c-1.3,1.2-1.9,1.2-4.3,0.5c-1.5-0.5-3.7-1-4.8-1.2c-2.2-0.4-4.2-4-3.4-6.1c0.6-1.5,2-0.7,2,1.1
	c0,2.1,1,2.5,1.9,0.7c0.9-1.6,0.9-1.6,2.1,0.6c2.2,4.3,4.9,3.8,5.5-1c0.3-2.2,0.1-3.2-0.8-3.9c-1-0.8-1.2-0.8-1.2,0.2
	c0,1.7-3.2,1.6-4.8-0.2c-1.3-1.5-1.7-3.9-0.6-3.9c0.4,0,0.8,0.7,1.1,1.5c0.5,2,2,1.9,2,0c0-2.7,2.3-2.7,4.6,0.1
	C1691.6,616.9,1692,623.1,1689.5,625.3L1689.5,625.3z"/>
<path class="st0" d="M1684.1,602.2c-1.3,3.6-4.1,5.7-6.8,5.1c-2.4-0.5-5.5-2.4-7.2-4.4c-0.7-0.9-0.8-1.4-0.2-2
	c0.6-0.6,1.4-0.2,3,1.5c3.1,3.4,6.1,3.1,8-0.7c1.4-2.8,1.4-5.6-0.1-7.9c-1.3-2.1-1-3,0.9-2.3c1.3,0.5,3.4,4.9,3.3,7
	C1685,599.2,1684.5,600.9,1684.1,602.2L1684.1,602.2z"/>
<path class="st0" d="M1678.4,596.3c-1.1,4.4-7.6,2.5-7.6-2.2c0-2.4,2.7-4.8,5-4.3C1677.4,590.1,1679,594,1678.4,596.3L1678.4,596.3z
	"/>
<path class="st0" d="M1675.4,592.7c-2-1.1-3.5,0.8-2.3,2.9c0.7,1.3,1.1,1.4,2.3,0.8C1677.2,595.4,1677.2,593.7,1675.4,592.7
	L1675.4,592.7z"/>
<path class="st0" d="M1670.1,74.9c-1.3,0.8-2.6,2.4-3.2,4c-1.2,3.6-1,11.8,0.4,15.2c1.1,2.6,1.1,2.9-0.2,4.5l-1.4,1.7l-1.5-3
	c-1.9-3.7-2.4-6.3-2.5-11.8c-0.2-7.6,5.5-16.8,9.4-15.3C1673.1,70.9,1672.5,73.5,1670.1,74.9L1670.1,74.9z"/>
<path class="st0" d="M1478.3,742.7c-0.2,0.6-1.1,1.8-1.9,2.5c-1.2,1.1-1.4,2-1,4.6c0.3,2.1,0.2,3.4-0.4,3.7c-1.1,0.7-5-3.1-6.8-6.6
	c-1.3-2.5-1.4-3.4-0.7-6.7c0.9-4,2.5-6.5,4.3-6.5c2.1,0,5.4,2.6,6.2,4.8C1478.9,740.8,1478.9,741,1478.3,742.7L1478.3,742.7z"/>
<path class="st0" d="M1465.5,740.6c-0.2,1.5-0.5,2.8-0.8,2.8c-0.3,0-2.8-0.8-5.8-1.8c-2.9-1-10.5-2.9-16.8-4.2s-12.2-2.6-13.1-3
	c-2.4-0.9-16.1-2.8-31.4-4.2c-23.3-2.1-50.7-0.5-63.4,3.8c-1.8,0.6-3.6,1.1-4,1.1c-0.4,0-2.3,1-4.1,2.3c-5.1,3.5-6.9,1.7-3.6-3.6
	c1.5-2.5,1.3-2.7-1.8-2.2c-6.1,1.1-20.6,2.8-29.8,3.4c-8.8,0.6-15.1,1.3-27.4,2.7c-7.1,0.8-22.6,4-24.7,5.1c-1.1,0.6-3,1.7-4.4,2.4
	c-2.8,1.6-4,1-2.5-1.4c3.9-6.1,6.8-11.2,6.6-11.4c-0.2-0.2-5.4,1.3-8.1,2.4c-1.3,0.6-3.8,1.3-17.6,5.3c-15.9,4.6-34.6,6.9-59.5,7.3
	c-14.4,0.2-16.6,0.4-19.8,1.8c-2,0.9-4,1.6-4.4,1.6c-0.5,0-0.7-2.1-0.5-5.5c0.2-4.7,0.6-5.9,2.5-8.4c2.2-2.9,2.2-2.9,0.4-2.3
	c-7.2,2.1-10.4,2.6-18.7,3.1c-16.1,0.9-39.6-3.9-59.5-12.1c-3.7-1.6-20.6-6.2-22.5-6.2c-0.3,0-0.4,2.1-0.2,4.7
	c1,10.5,1.1,9.9-1.9,10.6c-3.7,0.9-6.4,0.1-9.3-2.8c-6.6-6.6-4.6-18.2,3.8-22.2c1.9-0.9,3.4-1.8,3.4-1.9c0-0.1-1.8-0.6-4-1.1
	c-7.2-1.5-19.4-8.7-30.6-18.1c-1.8-1.5-5.4-4.3-8-6.2c-3.7-2.7-18.9-15.8-27-23.3c-0.6-0.5-0.8-1.5-0.6-2.2c0.4-1,1.5-0.4,6.3,3.6
	c8.3,6.9,16.4,12,27.6,17.4c13.3,6.4,19.8,9.1,27.8,11.6c3.7,1.2,9.1,3,12,4.1c17.5,6.7,53.6,14.3,83.2,17.6
	c30.1,3.4,56.8,4.5,108.9,4.6c34.9,0,92.7,1.1,100,1.8c2.8,0.3,21.9,1.7,34.3,2.5c4.2,0.3,7.7,0.3,7.7,0.1c0-0.6-3.8-1.4-8.6-1.8
	c-2.1-0.2-9.1-0.8-15.8-1.4c-6.6-0.6-14.9-1.3-18.6-1.5c-3.6-0.2-7.8-0.6-9.4-0.8c-5.2-0.7-40.1-2-62.8-2.3
	c-12.4-0.2-33.6-0.7-47.2-1.2c-13.6-0.5-28.5-1-33-1.1c-4.5-0.1-11.8-0.4-16.1-0.7c-4.3-0.2-14.3-0.8-22.1-1.2
	c-14.1-0.7-19.5-1.3-33.4-3.4c-3.9-0.6-10-1.4-13.5-1.9c-19.6-2.6-55.1-10.9-61.7-14.3c-0.8-0.4-5.3-2.2-10.1-4
	c-14.5-5.4-28.4-11.9-34-15.8c-2-1.4-3.8-2.5-4-2.5c-0.9,0-8.4-5.7-10.5-7.9c-1.2-1.3-3.3-2.9-4.5-3.6c-1.2-0.6-3.1-2-4.1-3.1
	c-2.1-2.2-3.1-2.5-3.1-0.8c0,0.6-0.3,1.1-0.7,1.1c-1.1,0-10.9-11.8-13.1-15.8c-4.2-7.7-5.2-18.1-2.4-24.7c1.2-2.9,4.4-7.5,7.5-10.8
	c1.1-1.2,2.2-2.7,2.4-3.5c0.5-1.6,4.7-2,6.1-0.6c0.5,0.5,2.4,1.1,4.4,1.5c4.6,0.9,11.2,5.4,13.5,9.3c1.9,3.2,2.3,7.4,1,9.3
	c-0.7,1-0.9,0.9-1.7-0.3c-1.5-2.5-4.5-5-7.2-6.1c-3.2-1.4-10.7-1.4-13.9,0c-2.7,1.1-6,4.9-6.8,8c-0.5,1.7-0.3,1.6,2-0.9
	c3.9-4.3,7.1-5.9,11.9-5.9c5.2,0,9.3,1.8,13.8,6.2c3.1,3,3.5,3.8,3.5,6.7c0,1.8-0.5,5-1.1,7c-2.4,8.1-13.2,10.6-16.5,3.7
	c-0.7-1.4-1.2-3-1.2-3.7c0-1.8,2.1-2.3,3.6-1c1.7,1.5,5.1,0.9,6.6-1.2c1.4-1.9,1.5-6.5,0.2-6.5c-0.5,0-1.5,1-2.2,2.2
	c-1.4,2.4-3.2,2.8-5.4,1.1c-2.7-2-6.3-1.4-9.1,1.5c-2.8,2.9-4.2,7.2-2.5,7.8c0.5,0.2,2.9,2.2,5.3,4.5c6.3,6.1,9,8.2,15.5,11.6
	c3.2,1.7,7.3,3.8,9.1,4.8c1.8,1,3.9,1.7,4.6,1.7c0.7,0,2.3,0.5,3.4,1.1c1.2,0.6,3,1.1,4.1,1.1c1.1,0,4.4,0.8,7.4,1.9
	c3,1,6.4,1.9,7.5,1.9c1.1,0,2.2,0.2,2.5,0.5c0.8,0.8,5.9,2.5,7.5,2.5c0.8,0,1.8,0.5,2.2,1c0.5,0.6,3.2,1.9,6,3
	c2.8,1.1,6.2,2.8,7.5,3.7c1.3,1,3.4,2.2,4.6,2.9c1.2,0.6,3.3,1.7,4.5,2.4c3.2,1.8,6.4,1.6,6.4-0.2c0-1.2-0.4-1.4-2.1-1.1
	c-4.5,0.9-10.6-4.5-10.6-9.4c0-3.4,1.8-5.3,5-5.3c3,0,4.1,1.5,3.9,5c-0.3,4.5-0.1,4.9,1.6,3.2c1.6-1.6,4.1-1.4,5.6,0.4
	c1.2,1.5,8.3,2.7,18.4,3c5.2,0.2,10.6,0.7,12,1.1c1.4,0.4,3.8,0.8,5.1,0.8s4.3,0.5,6.4,1.1c2.1,0.6,6.2,1.4,9.1,1.8
	c4.9,0.7,8.2,1.6,26.1,6.9c8.4,2.5,13.2,3.3,15.9,2.6c2.6-0.7,2.4-1.9-0.7-5c-3.8-3.7-7-9.6-7.2-13.5c-0.3-3.9,1.1-4.7,4.4-2.4
	c2.7,1.9,11.2,3.7,21.6,4.5c4.5,0.4,10.6,1.2,13.5,1.8c2.9,0.6,10.1,2,16.1,3.1c6,1.1,12.2,2.4,13.9,2.9s4.3,1.4,6,1.9
	c1.7,0.5,4,1.4,5.2,1.9s6.1,2.5,10.8,4.4c4.7,1.9,9.7,4,11.2,4.8c4.2,2.1,7.4,2.5,8.7,1.1c1.5-1.5,1.5-1.8-0.7-7.1
	c-1.5-3.5-1.7-4.8-1.1-6c0.9-1.6,1.6-1.8,2.7-0.7c0.9,0.9,8.4,3.6,14.2,5c2.5,0.6,5.5,1.5,6.8,1.9c1.2,0.4,9.2,1.9,17.6,3.3
	c8.5,1.4,16.4,2.9,17.6,3.4s3.6,1.1,5.2,1.5s3.5,1,4.2,1.3c0.6,0.3,2.6,0.9,4.4,1.2c1.8,0.3,4.7,1.2,6.3,2c1.7,0.8,3.7,1.4,4.4,1.4
	c1.2,0,1.2-0.1,0.1-1.8c-2.3-3.6,1.1-7,3.6-3.5c1.5,2.1,6.4,4.4,12.3,5.6c6,1.3,23.8,5.2,31.5,7c2.9,0.7,6.8,1.4,8.6,1.6
	c1.9,0.2,3.9,0.6,4.5,1c2.3,1.2,22,6,24.8,6c1.6,0,3,0.3,3.3,0.6c0.4,0.7,2.9,1.4,12.1,3.5c9.1,2.1,35.5,10.2,39.6,12.2
	c1.1,0.5,2,1.4,1.9,1.9C1465.9,737.4,1465.7,739.1,1465.5,740.6L1465.5,740.6z"/>
<path class="st0" d="M948.8,644.6c-3.4-4.5-3.3-4.4-3.3-3.1c0,1.1,5.9,8.3,6,7.3C951.5,648.4,950.3,646.6,948.8,644.6z"/>
<path class="st0" d="M1386.4,741.4l-39.8-0.3l-2.9-2.3c-1.6-1.3-2.7-2.6-2.5-3c0.6-0.9,34.9-0.9,46.5,0c21,1.7,37.4,3.9,38.3,5.3
	C1426.1,741.5,1408.3,741.6,1386.4,741.4L1386.4,741.4z"/>
<path class="st0" d="M1355.1,762.9c-0.4,0-2.7-0.9-5.1-1.9c-10.2-4.5-14.8-9.1-15.7-15.6c-0.4-2.7-0.2-3.6,1.1-4.9
	c0.9-0.9,2.3-1.6,3.2-1.6c2,0,5.9,4.1,5.9,6.3c0,3.8,1.8,7.7,5.4,11.5c2.1,2.2,4.2,4,4.8,4c0.6,0,1,0.5,1,1.1
	S1355.5,762.9,1355.1,762.9z"/>
<path class="st0" d="M1326.7,743c-2.8,0.3-7.8,0.8-11.1,1.3c-6.5,0.9-16.4,1.9-24.8,2.5c-2.9,0.2-6.3,0.6-7.5,0.8s-8.5,0.9-16.1,1.5
	s-17.2,1.7-21.3,2.3c-10.9,1.6-12.3,1.5-12.9-0.8c-0.3-1.3-0.1-2.3,0.7-3.1c2.3-2.3,22.4-5.5,41.8-6.7c3.5-0.2,8.4-0.7,10.9-1.1
	c2.5-0.4,7.2-0.7,10.5-0.8c3.3,0,8-0.3,10.5-0.6c5.4-0.7,9.6,0,11.4,1.8c1,1,2,1.2,4.2,0.9c9.5-1.5,8.9-1.5,8.9,0.1
	C1331.8,742.4,1331.2,742.6,1326.7,743z"/>
<path class="st0" d="M1326,763.9c-0.3,0.3-1.5,0.5-2.7,0.5s-5,0.8-8.3,1.8c-11,3.2-16.9,4.2-33.4,5.8c-14.6,1.4-21.2,1.6-66.1,1.6
	c-27.4,0-52.4-0.1-55.5-0.4c-3.1-0.2-7.4-0.5-9.6-0.5c-3-0.1-3.9-0.4-3.9-1.2c0-0.8,0.8-1.1,2.5-1.1c1.4,0,4.3-0.4,6.6-0.8
	c2.5-0.5,16.5-0.8,35.9-0.8c35.8,0,68.4-0.9,82.5-2.1c5.2-0.4,17.9-1.5,28.3-2.3c10.4-0.8,19.9-1.7,21.1-1.9
	C1325.5,762,1327.1,762.9,1326,763.9L1326,763.9z"/>
<path class="st0" d="M1272.9,782.4c-0.6,0.5-3.4,1.6-6.2,2.4c-2.8,0.8-6.2,1.8-7.7,2.2c-1.4,0.4-7.2,0.9-12.8,1.1
	c-10.8,0.4-12.1,0.1-13.1-3.2c-0.4-1.5-0.2-1.7,1.6-1.7c2.3,0,29.9-2,35.7-2.6C1274.2,780.2,1274.9,780.8,1272.9,782.4L1272.9,782.4
	z"/>
<path class="st0" d="M1263.3,870.2c-0.5,1-1.8,2.1-2.9,2.5c-2.4,0.9-4.8-0.5-7.9-4.5c-1.8-2.4-2.1-3.4-2.1-7.7
	c0.1-7.3,3.2-15.1,6-15.1c0.7,0,0.8,0.8,0.5,2.6c-0.6,3.8,1.8,12.9,4.2,15.7C1264,866.8,1264.3,868.1,1263.3,870.2z"/>
<path class="st0" d="M1240.4,692.7c-2.1,1.3-11-6.6-12.3-11c-0.8-2.6-0.7-3.3,0.6-5.7c1.8-3.3,4.7-4.4,7.6-3c2,1,2.1,1.2,2.1,7
	c0,4,0.5,6.9,1.3,8.8C1241.2,692,1241.3,692.2,1240.4,692.7L1240.4,692.7z"/>
<path class="st0" d="M1233.8,806.4c-1.6,0-8.1-4.3-10.5-6.9c-4.2-4.5-5.5-9.8-3.5-13.9c1.9-3.9,4.8-4.9,7.4-2.4
	c1.6,1.5,1.9,2.3,1.5,4.1c-1.6,7.5-1.4,8.8,2.1,14.1C1232.7,804.2,1234,806.4,1233.8,806.4z"/>
<path class="st0" d="M1232.2,740c-2,2.9-2.4,6.8-1.5,14.3c0.3,2.9-2.1,4.3-5.6,3.3c-7.3-2.1-6.3-12.2,1.8-18.8
	c3.1-2.5,7.5-4,7.4-2.6C1234.2,736.6,1233.3,738.4,1232.2,740L1232.2,740z"/>
<path class="st0" d="M1214.9,756.1c-1.5,0.4-5.1,1.1-8,1.6s-11,2-18,3.4c-7,1.4-17.6,3.4-23.6,4.4c-6,1-12.1,2.1-13.5,2.3
	c-1.4,0.3-3.3,0.7-4.1,1.1c-3.1,1.3-11.7,3-15.2,3c-4.7,0-12.8-1.3-15.1-2.5c-2.2-1.1-2.1-2.5,0.1-2.2c5.3,0.5,11.1,0.3,12.6-0.6
	c1-0.5,3-2,4.5-3.3c2.4-2.1,3.5-2.5,9.7-3.3c3.9-0.5,12.3-1.9,18.7-3.1c6.4-1.2,14.6-2.5,18.3-3c3.7-0.4,6.9-1,7.3-1.2
	c0.7-0.4,27.8-4.2,28-3.9c0.1,0.1,0.4,1.7,0.6,3.4C1217.7,755.4,1217.6,755.4,1214.9,756.1L1214.9,756.1z"/>
<path class="st0" d="M1204.9,793.7c-6.3,0-16.4-0.5-22.3-1.1c-25.8-2.6-33.4-3.5-34.4-3.8c-0.6-0.2-4.6-0.9-9-1.5
	c-19.2-2.6-35.2-5.5-50.3-9c-4.3-1-12.6-2.9-18.4-4.1c-11.2-2.4-18-4-40.1-9.3c-7.6-1.8-18.4-4.2-24-5.3c-5.5-1.1-10.9-2.3-12-2.7
	c-1-0.4-4.6-1.2-7.9-1.8c-3.3-0.6-7.7-1.6-9.8-2.2c-5.6-1.6-28.7-6.2-35.4-7c-3.2-0.4-10.6-1.4-16.4-2.3c-5.8-0.8-12-1.7-13.9-1.9
	c-1.9-0.2-5.4-0.7-7.9-1.1c-14.8-2.3-43.6-5-59.6-5.6c-6-0.2-13-0.6-15.6-0.8c-4.4-0.4-6.9-1.6-6.9-3.4c0-0.4-1.5-1.4-3.3-2.2
	c-5.9-2.6-13.2-0.4-16.3,4.9c-0.8,1.4-1.8,2.6-2,2.7c-0.3,0-2,0.3-3.8,0.7c-4.3,0.8-4.9,0.5-6.8-3.4c-0.9-1.8-1.9-3.3-2.2-3.3
	c-1,0-2.6-4.5-1.8-5.2c1.6-1.5,10.3-2,29.2-1.9c11.1,0.1,23.5,0.4,27.4,0.7c3.9,0.3,11.7,0.6,17.2,0.8c9.7,0.3,13.4,0.6,19.9,1.5
	c1.7,0.2,5.8,0.4,9.2,0.4c3.4,0,6.1,0.3,5.9,0.6c-0.2,0.3,1.1,0.6,2.8,0.7c4.9,0.2,14.4,1.4,15.3,2c0.9,0.5,12.4,1.9,19.4,2.3
	c2.1,0.1,4.3,0.5,4.9,0.9s3.4,1.1,6.3,1.6s6.6,1.2,8.3,1.6c8.6,2,11.6,2.6,15.8,2.7c2.5,0.1,5.6,0.7,6.9,1.4
	c1.3,0.7,3.1,1.2,3.9,1.2s3.5,0.5,5.8,1.2c2.4,0.6,8.4,2,13.3,3c5,1,10.7,2.4,12.8,2.9c8.2,2.3,22.2,5.6,23.6,5.6
	c0.8,0,2.1,0.3,2.8,0.7c0.7,0.4,3.5,1.2,6.2,1.8c2.7,0.6,8.9,2.2,13.9,3.5c4.9,1.3,10.3,2.7,12,3c21.2,4.6,28.7,6,34.1,6.7
	c3.5,0.5,6.6,1,6.9,1.1c1,0.6,19.2,3.9,24.3,4.4c2.9,0.3,7.8,1,10.9,1.6c5.2,1,10.4,1.6,27.4,3.3c7.3,0.7,18.1,1.4,34.5,2.2
	l10.5,0.5l0.2,5.4l0.2,5.4L1204.9,793.7L1204.9,793.7z"/>
<path class="st0" d="M1188.2,880.5c-2.8,2.8-4.5,2.8-7.4,0.3c-1.1-1-1.3-1.9-0.9-5c0.9-6.8,2-10.2,3.9-11.4c2.1-1.4,4-0.3,4,2.3
	c0,0.9,0.7,3.8,1.5,6.4l1.5,4.8L1188.2,880.5z"/>
<path class="st0" d="M1149.4,838.3c-5.8-0.7-13.2-4.5-14.4-7.3c-1.7-4.1,0.5-10.4,3.7-10.3c1.9,0,4.3,2.9,5,6
	c0.8,3.8,3.6,7.1,7.2,8.6c1.3,0.6,2.4,1.6,2.4,2.3C1153.3,838.6,1152.7,838.7,1149.4,838.3z"/>
<path class="st0" d="M1134.2,686.1c-5.5-1.3-13.1-7.6-15.5-12.8c-2.7-5.9-1.4-12.8,2.8-15.4c3.1-1.9,4.3-1.3,6.4,3.4
	c1.1,2.4,1.3,4.2,0.9,8.6c-0.5,6.7,0.5,9.5,4.7,13.8l2.9,2.9L1134.2,686.1z"/>
<path class="st0" d="M1131.8,762.7c-0.5,1.3-4.3,3.2-6.4,3.2c-2.5,0-7.1-4.1-8.1-7.2c-1-3.2-0.5-8.3,1.2-11.7
	c2.5-4.9,10.8-11.9,8.9-7.5c-2,4.6-1.2,9.6,2.3,15.5C1132.2,759.2,1132.6,760.7,1131.8,762.7z"/>
<path class="st0" d="M1098.4,765.9c-1.1,0-12.7-2.7-15.9-3.7c-12.4-3.9-15.9-5.2-21.9-8.1c-8.8-4.3-15.2-10.5-15.2-14.7
	c0-2,0.5-3,1.8-3.9c2.5-1.7,4.7-0.8,6.3,2.5c1.6,3.4,3,5,9.3,9.8c7.5,5.8,20.6,12.1,32.3,15.5
	C1098.9,764.4,1100.8,765.9,1098.4,765.9L1098.4,765.9z"/>
<path class="st0" d="M1088.6,783.5c-4.2,1.3-10.3,2.9-15.9,4.2c-16.3,3.7-40.7,10.4-42.7,11.7c-2.4,1.6-13.3,5.6-15.2,5.6
	c-0.9,0-2.8,0.5-4.1,1.1c-1.4,0.6-5.2,1.9-8.5,3c-15.6,4.9-18.4,5.9-25.5,9.1c-2.1,0.9-6,2.4-8.6,3.3c-5.8,1.9-6.1,2-14.4,5.9
	c-3.6,1.7-9.3,4-12.8,5s-7.9,2.6-10,3.4c-6.8,2.5-16.6,5.1-25.6,6.7c-4.9,0.9-10.6,1.9-12.6,2.3c-2.1,0.4-5.9,1-8.6,1.4
	c-6.9,1-12.7,2.9-15.5,5c-2.9,2.2-4.4,2.3-5.5,0.4c-1.5-2.9-0.3-8.5,2.7-12c3.7-4.4,0.1-6.3-7.4-3.9c-12.8,4.2-20.9,4.8-33.2,2.4
	c-8.9-1.7-17-4.6-23.6-8.4c-5.4-3.2-10.3-4.2-12.8-2.9c-3.9,2.1-5.3-4.2-2.6-11.8c1.5-4.1,6.5-8.9,11.1-10.4c1.3-0.4,2.5-1.3,2.6-2
	c0.3-1.4-1.9-2.1-7.3-2.1c-7.2,0-12.7-1.4-20.1-4.9c-10.3-4.9-19-12.7-25.2-22.3c-5.9-9.2-6.9-10.5-11.3-14.9
	c-2.8-2.8-6.3-5.3-9.2-6.7c-3.5-1.6-4.7-2.5-4.5-3.5c0.4-2.1,5.5-4.1,10.6-4.1l4.6,0l-4.7-4.9c-2.6-2.7-5.8-6.8-7.1-9.1
	c-8.9-15.7-26.3-30.4-43-36.2c-5.5-1.9-7.5-2.2-14-2.2c-12.2,0-18,2.2-24.6,9.1c-4.6,4.9-6.9,10.5-7.9,19.4
	c-0.6,5.7-1.3,6.8-4.2,6.8c-2.7,0-5.5-2.8-8-8.1c-1.6-3.4-1.8-4.8-1.5-9.2c0.5-6.5-0.3-6.6-6.9-1.6c-9.4,7.2-11.1,8.1-15.8,8.1
	c-4.7,0-6.7,1.1-6.7,3.7c0,0.9-0.5,2.3-1,3c-1.5,2-2.3,0.2-2.2-4.9c0.1-6.3,3.6-12.8,10.2-19.6c13.3-13.5,36.4-19.8,63.2-17.2
	c4.9,0.5,10.6,1.4,12.6,2.1c3.9,1.3,5.8,0.8,2.3-0.5c-12.3-4.7-37.6-5.4-53.9-1.5c-6,1.4-12,4.2-18.3,8.4c-1.8,1.2-3.5,2.2-3.8,2.2
	c-0.3,0-1.9,1.8-3.5,3.9c-8.5,10.8-10.4,15.1-10.3,23.3l0.1,5.8l-1.7-1.1c-1-0.7-2.1-2.5-2.6-4.4c-1.1-4.4-1.2-13.4-0.1-17.9
	c1.3-5.9,5.6-14.1,9.1-17.6c3.8-3.9,10.8-7.4,16-8.1l3.7-0.5l-1.7-1.4c-1.9-1.5-3.8-1.8-3.8-0.6c0,1.1-3.6,0.9-6.3-0.4
	c-4.8-2.4-6.7-7.8-4-11.9c2.8-4.3,7.7-2.5,6.8,2.6c-0.3,1.7,0,3.7,0.7,5.5c1.4,3.4,3,3.8,2.3,0.6c-0.3-1.2-0.1-2.4,0.3-2.7
	c1.4-0.9,15.4-2.7,24.1-3.2c9.8-0.5,20.5,0.6,26.4,2.7c2.2,0.8,5.4,1.8,7.2,2.4c1.8,0.5,3.6,1.4,4,1.9c0.4,0.5,1.9,1.2,3.2,1.4
	c3.2,0.6,6.5,1.9,8.8,3.4c1,0.7,3.4,2.2,5.2,3.4s4.9,3.4,6.8,4.9c3.9,3.2,7.2,5.1,18,10.5c4.3,2.2,8.5,4.5,9.4,5.2
	c0.8,0.7,2.7,1.9,4.2,2.7s6.5,4,11.2,7.2l8.6,5.8l0.4-5.9c0.4-7.1,1.7-9.1,4.9-7.6c1.1,0.5,2.6,2,3.4,3.4c1,1.7,2.8,3,5.4,4.2
	c2.1,0.9,5.2,2.8,6.8,4.2s4,3,5.3,3.6c4.2,2,10.2,8.2,14.1,14.7c3.9,6.5,12.7,21.8,12.7,22.2c0,0.1,1,1.7,2.3,3.6
	c2.8,4.1,8.9,9.5,10.5,9.2c1.3-0.3,1.3-1.5-0.4-8c-1.4-5.4-0.8-10,1.7-12.4c1.1-1.1,1.4-1,3.8,1.8c3,3.6,10.5,8.7,17.7,12
	c7.9,3.7,15.1,8.8,23.4,17c12.5,12.2,16.6,15.3,21.8,16.5c4.7,1,5.3-3.5,0.8-6.2c-4.9-3-11.6-14.1-9.6-16c0.6-0.6,1.4-0.6,2.9,0.4
	c1.1,0.7,3.7,1.4,5.8,1.7c6.4,0.8,14.9,2.8,16.5,3.8c0.8,0.5,2.6,1.2,3.8,1.4c1.3,0.3,5.1,2.2,8.6,4.2c3.4,2,6.5,3.7,6.8,3.7
	c0.3,0,2.6,1,5.1,2.2s4.8,2.2,5.1,2.2s3.4,1.2,7,2.6c12.1,4.8,30.2,7,46.5,5.6c11.7-1,15.5-1.7,33.8-6.6c19.5-5.2,25.3-6.7,28.9-7.5
	c7.7-1.7,17-3.9,21.8-5c2.9-0.7,6.4-1.2,7.9-1.2c2.3,0,12.2,1.6,18.2,2.9C1089.6,781.8,1090.2,783,1088.6,783.5L1088.6,783.5z"/>
<path class="st0" d="M969.9,811.3c-11.4,2.6-30.4,5.5-38.6,6c-9.2,0.5-26.6-0.4-41.9-2.3c-10.3-1.3-11.8-1.6-25.6-5.4
	c-17-4.7-27.6-8.8-42-16.1c-22.9-11.6-32-19-71.6-57.7c-15.2-14.8-18.6-18.1-25.9-23.9c-1.8-1.4-4.9-4-7-5.8c-2.1-1.7-5-3.7-6.5-4.4
	s-5.7-2.9-9.4-4.9c-3.7-2-7.1-3.5-7.5-3.3c-0.4,0.2,0,0.7,1.1,1.1c1,0.4,4.2,2.5,7.1,4.6c2.9,2.1,7.6,5.4,10.5,7.4s5.6,3.9,6.1,4.3
	c0.5,0.4,3.3,2.9,6.4,5.6c10.4,9.2,15.3,13.9,22.8,21.7c11.4,11.9,27.1,27,34.9,33.6c18,15.1,41.4,28.3,63.2,35.7
	c26.9,9.1,55.2,13.3,82.7,12.3c13.8-0.5,21.9-1.6,30.8-4c3.7-1,8.5-2.3,10.6-2.8C977.6,810.9,977.5,809.6,969.9,811.3L969.9,811.3z"
	/>
<path class="st0" d="M685.6,689.4c-0.6,0-0.9,0.3-0.7,0.8c0.3,0.4,1,0.8,1.6,0.8c0.6,0,0.9-0.3,0.7-0.8
	C686.9,689.8,686.2,689.4,685.6,689.4z"/>
<path class="st0" d="M1056,778.1c-2,0.6-5.4,1.5-7.7,2c-2.3,0.5-7.1,1.5-10.7,2.3s-13.1,2.3-21,3.4c-7.9,1-20.7,2.7-28.3,3.7
	c-7.6,1-19.6,2.6-26.6,3.4l-12.8,1.6l-7.1-1.8c-3.9-1-7-2.1-6.9-2.5c0.1-0.4,3-1,6.4-1.3c3.4-0.3,8.9-0.9,12.2-1.4
	c13.1-1.8,48.4-6.1,68.2-8.2c11.5-1.2,23.7-2.6,27-3c7.5-0.9,10.8-1,10.8-0.1C1059.6,776.7,1057.9,777.5,1056,778.1L1056,778.1z"/>
<path class="st0" d="M972.2,757.7c-1.4,0-1.9-0.4-1.9-1.5c0-1.8,2.6-2.1,3.3-0.3C974.3,757.6,974.2,757.7,972.2,757.7L972.2,757.7z"
	/>
<path class="st0" d="M958.6,752.5c-2.6,0.2-10.4-0.2-14.2-0.8c-6.7-1.1-36.4-3.7-42.2-3.8c-2.8,0-6.7-0.3-8.8-0.7
	c-3.5-0.6-24.7-1.6-57.6-2.7l-13.4-0.4l0.2-2l0.2-2l17.6,0.1c9.7,0.1,22.2,0.5,27.8,0.9s14.9,1.1,20.6,1.6c5.8,0.4,16.6,1.6,24,2.6
	c7.4,1,16.5,2.2,20.2,2.6c13.3,1.4,24.8,3.1,25.5,3.8C959.1,752.2,959.1,752.4,958.6,752.5L958.6,752.5z"/>
<path class="st0" d="M874.4,787.2c-1,0.6-6.1-3.4-9.2-7.1c-7.4-9.1-8.8-19.9-3.3-25c2.3-2.2,4.8-2,7.7,0.6c4.4,4,5,8.1,1.3,10.3
	c-1.9,1.1-2.7,2.3-3.3,4.6c-1,3.9,0.4,7.8,4.5,12.8C873.8,785.2,874.8,787,874.4,787.2z"/>
<path class="st0" d="M866.8,863.4c-1.7,1.7-5.9,2-9.5,0.7c-2.8-1-5.5-5.6-5.5-9.5c0-6.3,4.7-14.5,8.3-14.5c1.6,0,1.7,0.8,0.7,4.5
	c-0.6,2-0.5,3.6,0.4,6.5c1,3.4,1.5,4,3.7,4.7C868.6,857.1,869.5,860.7,866.8,863.4L866.8,863.4z"/>
<path class="st0" d="M819.5,742.9c-1.8,2.2-3,2.5-5.2,1.1c-2.2-1.4-5.4,0.1-7,3.2c-1.3,2.6-1.3,5.7,0,12.3c1,5.1-3.4-1.7-5.4-8.4
	c-1.6-5.3-1.3-10.4,0.8-14.9c2.2-4.8,5.4-7,10.2-6.9c3.9,0,5.3,0.9,6.6,4.1C821.2,738,821.3,740.7,819.5,742.9L819.5,742.9z"/>
<path class="st0" d="M798.4,744c-0.5,0.5-1.5,0.9-2.2,0.9c-1.6,0-3.7-2.8-3.1-4.2c0.6-1.5,3.5-1.3,5,0.3
	C799.5,742.7,799.6,742.9,798.4,744L798.4,744z"/>
<path class="st0" d="M789.2,806.4c-3.3,3.1-5.9,9.4-5.9,14.2c0.1,5.6,0.8,8.7,2.6,10.3c2.2,2,1.8,5.3-0.8,6.7
	c-2.9,1.5-3.3,1.5-6.4-0.5c-5.5-3.6-6.7-11.7-3.1-21.2c2.9-7.7,8.1-12.4,13.5-12.4C791.5,803.4,791.6,804.2,789.2,806.4L789.2,806.4
	z"/>
<path class="st0" d="M773.1,814.4c-0.9,2.2-1.1,2.3-8.1,3.2c-13.5,1.8-50.4,0.6-68.4-2.3c-22.5-3.6-49.5-12-65.6-20.3
	c-20.4-10.5-28.4-15.2-38.8-22.7c-4-2.9-9.4-6.8-11.9-8.7c-2.6-1.9-5.5-4.2-6.6-5.3c-3.2-3.2-16.4-14.2-17-14.2
	c-1.3,0-10.9-9.8-10.3-10.5c0.4-0.4,2.3-0.3,4.6,0.2c3.3,0.8,5.3,2.1,13.1,8.7c19.5,16.6,42.5,33,54.7,39c3.5,1.7,6.9,3.5,7.5,3.9
	c0.6,0.4,2,1.1,3,1.5s4.1,1.8,6.8,3c4.3,1.9,11.3,4.5,21.7,7.9c1.9,0.6,4,1.5,4.8,1.9c1.8,1,15.9,4.5,23.3,5.8
	c2.9,0.5,7.6,1.4,10.5,2c21.1,4.3,34.6,4.7,74.6,2.3c2.1-0.1,2.7,0.1,2.8,1.3C773.7,812.1,773.4,813.5,773.1,814.4L773.1,814.4z"/>
<path class="st0" d="M748.9,696.3c-0.5,0.6-1.8,1.7-3,2.4c-2.1,1.3-3.6,5-3.6,9c0,3.1-2.1,2.6-3.5-0.8c-2.9-6.9-1.8-13.8,2.7-17.5
	c3.2-2.6,5.6-2.8,7.2-0.5C750,690.8,750.2,694.7,748.9,696.3L748.9,696.3z"/>
<path class="st0" d="M738.7,770.9c-4.6,1.5-12.6,6.2-15.4,9c-2.8,2.8-3.4,3.9-3.8,7.1c-0.4,3.3,0.4,6.8,2.3,9.6
	c0.5,0.8,2.5-1.8,2.5-3.3c0-2.1,1.8-2.9,3.4-1.4c2.8,2.8-0.1,8.5-4.3,8.5c-1.5,0-2.7-0.9-5-3.8c-4.7-5.9-5-11.9-0.9-17.6
	c2.9-4,11.7-10.7,15.3-11.7c1.6-0.4,3.3-0.9,3.8-1.2c1.2-0.5,3.4,1.6,3.4,3.2C740.1,770,739.5,770.7,738.7,770.9L738.7,770.9z"/>
<path class="st0" d="M729.4,742.3c-0.5,0.2-2.2,0.7-3.7,1.1c-6.1,1.9-8.9,5.8-8.9,12.6c0,5-0.8,6.2-4.2,6.2
	c-7.9,0-11.1-9.7-5.5-16.8c3.7-4.7,14.4-7.7,20.4-5.7C730.3,740.5,731.1,741.7,729.4,742.3L729.4,742.3z"/>
<path class="st0" d="M724.5,735.4c-0.3,0.2-2.3,0.6-4.5,0.9c-4.1,0.6-14.1,4.9-14.6,6.4c-0.2,0.5-6.2,1.6-15.6,2.7
	c-8.4,1-22.3,2.6-30.7,3.7c-8.5,1-18.2,2.1-21.7,2.3c-8.1,0.6-31.2,3.1-40.5,4.5l-7.1,1l-4.3-2.6c-5.3-3.2-9-6.8-8.7-8.4
	c0.2-1,3-1.5,16.7-2.8c9.1-0.9,21.1-2.3,26.7-3.2c5.6-0.9,10.8-1.4,11.4-1.1c0.6,0.2,5.5-0.1,10.9-0.8c5.4-0.7,12.4-1.4,15.6-1.5
	c15-0.6,33.4-2.5,41.5-4.2c5.9-1.2,22-1.8,23.9-0.8C725,732.2,725.7,734.7,724.5,735.4L724.5,735.4z"/>
<path class="st0" d="M701.6,755.8c-0.5,0.2-4.5,0.9-8.8,1.5c-23.8,3.7-45.2,8.9-67,16.3l-8.9,3l-4.1-2c-2.3-1.1-4-2.4-3.8-2.9
	c0.3-0.9,7.2-3.9,12.6-5.4c25.3-7.2,36.2-9.8,53.2-12.7c6.4-1.1,13.3-2.3,15.4-2.7c2.1-0.4,5.7-0.9,8.1-1.2l4.3-0.5v3.1
	C702.6,754.2,702.2,755.6,701.6,755.8L701.6,755.8z"/>
<path class="st0" d="M698,731c-5.2,1.1-9.5,1.5-27.3,2.6c-19,1.2-22.9,1.2-22.9,0.1c0-0.3,0.5-1.8,1.2-3.3l1.2-2.8l8.8,0.5
	c4.8,0.3,15.6,0.5,24,0.6c10.2,0.1,15.5,0.5,16,1C699.6,730.4,699.3,730.7,698,731L698,731z"/>
<path class="st0" d="M646,731.9c-2.2,3.3-5.8,5-9,4.1c-1.4-0.4-3.5-0.5-4.7-0.4c-4,0.6-9-5-11.3-12.4c-2.3-7.6-0.3-9.5,2.1-2.1
	c1.9,5.7,5.4,8.4,10.4,8.1c2.1-0.1,5.9-6,5.9-9.2c0-2.6,0.2-2.9,1.9-2.9c1.2,0,2.7,0.9,4.1,2.4c1.9,2,2.2,3,2.1,6.2
	C647.7,728.3,647.1,730.3,646,731.9L646,731.9z"/>
<path class="st0" d="M623.3,735.4c-0.3,0.3-3.6,0.5-7.5,0.5c-6.5,0-7-0.1-7-1.5c0-2.1-1-1.9-2.1,0.6c-1.8,4.1-10.9,6.1-15.9,3.5
	c-4.8-2.5-8.6-7.9-9.5-13.4c-0.6-3.7,0.8-3.5,4.7,0.7c2.5,2.7,3.6,3.4,5.7,3.4c3.9,0,5.9-1.8,5.9-5.2c0-2.5,0.3-2.9,2-3.4
	c5-1.3,8.5,1.7,8.5,7c0,1.6,0.3,3.2,0.8,3.4c0.4,0.3,0.8-0.2,0.8-1c0-2,1.6-2.5,6.5-1.9c3.5,0.4,4.4,0.9,5.9,2.9
	C623.9,733.5,624.2,734.5,623.3,735.4L623.3,735.4z"/>
<path class="st0" d="M599.7,783.8c-0.5,0.5-1.4,0.9-2.1,1c-2.4,0.1-13.9,8.1-23.3,16.2c-7.2,6.2-25.2,24.5-27.6,28.2
	c-0.7,1.1-2.5,3.3-4,4.9c-1.5,1.6-3,3.5-3.4,4.2c-1.6,2.9-18.2,19.7-23.3,23.5c-5.8,4.4-8.5,7.5-10.3,11.8c-0.6,1.5-1.3,2.8-1.6,2.8
	c-0.2,0-0.9-1.2-1.5-2.7c-1.3-3.2-1.5-10.3-0.3-13.7c0.5-1.3,0.6-2.9,0.4-3.6c-0.7-1.8-2.4-0.1-4.7,4.5c-2.4,4.8-3.7,6.4-9.7,12.6
	c-6.2,6.2-11.8,9.2-22,11.5c-10.8,2.4-16.6,4.9-18.7,7.9c-2,2.8-2.7,2.8-4.1,0.2l-1.1-2.1l0,1.9c0,1.1,0.6,2.5,1.4,3.3
	c1.3,1.2,1.6,1.2,3.2,0.1c2.4-1.7,4-1.5,5.8,0.8c2.7,3.5,1.8,7.6-2.2,9.6c-2.9,1.5-4.7,1.4-8.1-0.3c-4.9-2.5-6.9-9.7-4.1-15.4
	c1.3-2.7,2-3.2,2.9-1.9c0.9,1.5,1.9,0.7,1.9-1.4c0-3.3,2-8.3,4.9-12c2.3-3,3.3-5.3,2.2-5.3c-0.2,0-2.5,1.4-5.1,3.2
	c-6.5,4.4-10.2,6-19.3,8.3c-8.2,2.1-29.6,3.9-31.2,2.6c-0.4-0.3-2.3-0.8-4.1-1.1c-1.8-0.3-4.9-1-6.7-1.7c-2.3-0.8-5.5-1.2-9.9-1.2
	l-6.6,0.1v-2.6c0-1.6,0.7-3.5,1.9-5c2.6-3.5,2.6-5-0.2-3.5c-3.8,2-10.7,3.4-16.3,3.4c-4.7-0.1-7.6-0.6-13.1-2.5
	c-3.9-1.3-8.4-3.2-9.9-4.2c-1.5-1-3.1-1.8-3.4-1.8s-1.3-0.7-2.1-1.5c-2.2-2.4-10-7.8-15.2-10.4c-5.2-2.6-5.9-4.3-2-5.5
	c1.2-0.4,2.7-0.8,3.3-1c0.6-0.2-1.4-1.8-4.7-3.7c-7.6-4.3-19-12.9-28.6-21.4c-2.6-2.3-5.5-4.7-6.6-5.5c-2-1.4-2-2.8-0.1-2.8
	c0.6,0,3.2,1.2,5.8,2.8c5.6,3.2,9.8,5.5,25,13.3c6.2,3.2,12.4,6.4,13.9,7.2c16.1,8.5,52.8,20.8,69,23.2c3.1,0.5,8.7,1.3,12.4,1.9
	c9.2,1.4,28.1,1.5,40.6,0.1c5.7-0.6,12.1-1.3,14.2-1.6c7.8-0.9,23.3-5.5,39.3-11.6c13.2-5.1,20-8.6,35.4-18.3
	c5.5-3.4,20.8-14.8,22.2-16.5c1.6-1.9-0.2-1.3-3.3,1.2c-3.6,2.9-20.4,14.2-21.1,14.2c-0.5,0-5.6,3.2-8.1,5
	c-1.1,0.8-9.5,4.9-14.9,7.4c-9.2,4.1-11.6,5-20.7,8c-5.2,1.7-11,3.7-13,4.4c-3.5,1.4-6.2,1.9-18.5,3.6c-17.8,2.5-44.9,3.1-54.5,1.1
	c-3.2-0.7-7.8-1.4-10.1-1.5c-2.3-0.2-6.7-1-9.8-1.8c-3.1-0.8-9.1-2.5-13.4-3.7c-8.6-2.3-18.5-5.9-23-8.2c-1.6-0.8-4.6-2-6.8-2.6
	c-2.2-0.6-5.9-2.2-8.2-3.4c-2.4-1.2-5.8-2.8-7.6-3.4s-3.7-1.4-4.1-1.8c-1.7-1.4-24.3-12.8-25.4-12.8c-0.6,0-2-0.8-3.1-1.8
	c-4.6-4.2-22.1-12.3-32.8-15.1c-2.5-0.6-7.2-1.2-10.6-1.2c-6.9,0-11.1,1.3-13.8,4.3c-1.2,1.4-2.8,2-6.4,2.5c-2.6,0.4-5,0.4-5.3,0.1
	c-0.9-0.9,2.2-4.4,5.6-6.6c1.7-1,5.2-2.8,8-3.9c4.5-1.8,5.9-2,14.7-1.9c5.4,0,11.9,0.4,14.6,1c5,1,20,5.8,21.4,6.8
	c0.4,0.3,7.1,3.8,14.8,7.8c12.2,6.3,14.1,7,14.1,5.7c0-1-0.5-1.5-1.4-1.5c-2.2,0-4.6-3.5-4.6-6.7c0-3.4,1.8-5.2,4.5-4.6
	c2.2,0.6,2.9,3.1,1.2,4.5c-0.6,0.5-1.2,1.8-1.2,2.7v1.8l1.5-1.5c1.7-1.7,2.7-1.9,3.4-0.7c0.8,1.3,4.1,2.3,10.3,3
	c10.8,1.2,23.5,6.6,30.2,12.7c2.2,2,6.1,4.7,8.7,6c7.1,3.5,9.2,3.1,6.2-1.3c-2.5-3.7-3.2-7.4-1.5-8c0.7-0.3,1.9,0.1,2.8,0.9
	c1.2,1.1,3.5,1.5,11.8,2c17.3,1,20.2,1.6,44,9.3c12.9,4.1,18.7,5.1,18.3,2.9c-0.1-0.7-2.3-2.5-4.8-4c-8.6-5-16.6-15.7-13.8-18.5
	c0.9-0.9,1.5-0.8,4,0.5c2.8,1.5,3.2,1.5,7.9,0.6c2.7-0.6,8.5-1,13.2-0.9c7.2,0.1,9.1,0.4,15,2.5c3.7,1.3,7.7,2.4,9,2.5
	c3.9,0.2,2.6-1.9-2.8-4.5c-2.9-1.4-5.1-3-5.1-3.6c0-0.6,0.3-1.2,0.6-1.2c0.3,0,1.6-0.2,2.9-0.3c3-0.3,10-1.9,11.5-2.7
	c1.8-0.9,14.9-2.1,27.3-2.5c13.4-0.4,19.3-1.2,31.6-4.2c10.1-2.5,11.2-2.9,25.8-9.9c23.4-11.3,26.7-12.9,28.5-13.4
	c1.4-0.5,2.7-0.1,5.4,1.7C600.8,782,601,782.4,599.7,783.8L599.7,783.8z"/>
<path class="st0" d="M571.5,733.9c-5.3-0.1-10.1-0.4-10.7-0.7c-1.3-0.6-5.4-1.2-19.5-2.8c-6.9-0.8-17.7-1.2-33.9-1.3
	c-22.6-0.1-23.8-0.2-23.8-1.5c0-2.2,2.4-2.9,9-2.9c3.9,0,5.9-0.3,5.6-0.8c-0.3-0.4-1.6-0.8-3-0.8c-4.2,0-10.4-1.6-11.4-2.8
	c-0.5-0.7-0.9-2.5-0.9-4.1c0-3.3,0.1-3.4,7.9-1.7c5.9,1.3,22.8,4.4,33,6c3.7,0.6,9.8,1.2,13.6,1.5c3.8,0.2,8.6,0.7,10.9,1.2
	c2.2,0.4,7.4,1,11.5,1.2c4.1,0.2,10,0.6,13.1,0.9c5.5,0.5,5.6,0.6,6.9,3.1c0.7,1.4,1.3,3.3,1.3,4.1C581,734,580.6,734,571.5,733.9
	L571.5,733.9z"/>
<path class="st0" d="M571.5,760.7c-1.9,0-49.8,7-56.8,8.3c-4.5,0.8-10.6,1.8-13.5,2.2c-17.2,2.4-26.3,3.8-29,4.5
	c-4.7,1.3-5.4,0.7-4.9-4.3c0.2-2.3,0.8-4.5,1.1-4.9c0.8-0.8,5.3-2.1,9.3-2.6c5.1-0.7,2.9-1.5-3.9-1.5c-3.7,0-7-0.2-7.4-0.5
	c-1-0.6-3.5-8.6-2.8-9.3c0.3-0.3,4.3-0.6,8.9-0.6c20-0.3,59.1-3.3,77-6c2.4-0.4,3.3,0.1,9.4,5c3.7,3,8,6,9.5,6.8
	C571.1,759.1,572.8,760.7,571.5,760.7z"/>
<path class="st0" d="M535.4,720.2c-3.8,0-8-2-17.5-8.4c-20.7-14-32.9-20.1-47.2-23.6c-8-1.9-24.3-1.7-32.9,0.4
	c-15,3.8-25.7,11.7-31.4,23.4c-6.5,13.4-7.5,30.3-2.7,45.3c2.1,6.3,3.8,9.1,8.9,14.5c3,3.1,3,3.3,1.6,4.3c-2.6,1.9-4.6,1.3-7.8-2.4
	c-4.1-4.6-6.4-9-8.8-16.3c-4.6-14.2-2.7-32.7,4.9-48.1c3.2-6.4,4.5-8.2,8.8-12.1c9.4-8.4,16-11.9,28-14.8c10-2.5,25.1-2.7,32.5-0.5
	c12.9,3.9,20.3,6.5,25.8,9.2c5.5,2.7,13.9,8,15.8,10.1c0.9,1,2.1,1.9,2.6,1.9c1.1,0,6.4,3.4,9.3,6.1c1.2,1,4.4,3.4,7.2,5.2
	C538,717.8,539.2,720.2,535.4,720.2L535.4,720.2z"/>
<path class="st0" d="M516.3,884.3c-1.2,2.2-3.9,3.8-6.7,3.8c-4.6,0.1-11.7-7.7-11.7-12.7c0-2.1,1.8-1.9,2.9,0.3c1,2.1,4.2,3.2,5.7,2
	c0.6-0.5,1.4-1.9,2-3.1s1.5-2.2,2.2-2.2c1.4,0,4.5,1.9,5.9,3.6C517.6,877.5,517.5,882,516.3,884.3L516.3,884.3z"/>
<path class="st0" d="M481.6,727.4c-1.4,2.8-4,4.2-7.1,3.6c-1.7-0.3-2.3-0.2-2.3,0.6c0,1.8-4,5.1-6.2,5.1c-1.1,0-3-0.9-4.3-2
	c-1.9-1.6-2.8-1.9-5-1.4c-2.2,0.4-3,0.2-4.5-1.2l-1.8-1.7v1.9c0,1.1,1.1,3.3,2.6,5.1c2.7,3.2,3.1,4.1,2,4.8
	c-0.6,0.4-2.1-0.6-6.6-4.3c-2-1.7-2.5-1.9-2.5-0.9c0,0.7,2.4,3.6,5.4,6.5c9.4,9.2,12.8,16,12.7,25.4c0,7.1-1.5,10.9-6.4,16.3
	c-4.3,4.8-6,5.7-13.2,7.3c-4.7,1.1-6.1,1.1-9.7,0.3c-9.1-2-12.4-4.5-7.4-5.6c2.7-0.6,4.4-0.6,12.8,0c5.3,0.4,6.1,0.3,9.1-1.5
	c3.6-2.1,7.1-6.2,8.7-10c0.5-1.4,1-4.7,1-7.5c0-6.3-1.7-10.3-6.7-15.9c-8.5-9.4-12.3-16.3-12.3-22.7c0-2.9,1.5-7.4,3.2-9.4
	c0.5-0.6,0.9-3.6,0.9-6.7c0-5.2,0.2-5.8,2.2-7.4c1.2-1.1,3.1-1.8,4.4-1.8c1.3,0,3.1-0.7,4.2-1.5c2.6-2,6.2-1.9,10.5,0.4
	c2,1,4.8,2.1,6.4,2.3c1.8,0.3,3.9,1.4,5.8,3.1c2.7,2.4,3,3,3,6.4c0,2,0.5,4.9,1.1,6.4C483,724.7,483,724.5,481.6,727.4L481.6,727.4z
	"/>
<path class="st0" d="M478.6,722.1c-0.6-0.6-1.6-1.2-2-1.2c-0.6,0-0.6,0.3,0.1,0.9c1.3,1.3,1.1,3.6-0.2,4.1c-1.4,0.6-1.5,1.8,0,1.8
	c1,0,3.4-2.7,3.4-3.9C479.8,723.5,479.3,722.7,478.6,722.1L478.6,722.1z"/>
<path class="st0" d="M475.7,710.8c-2.5-2.5-3.9-2.4-2,0.1c0.9,1.1,1.6,2.8,1.6,3.8c0,1.1,0.4,1.8,1.1,1.8
	C478.2,716.4,477.8,712.8,475.7,710.8z"/>
<path class="st0" d="M471.6,716.8c-0.4-0.3-0.8,0.4-0.8,1.7c0,1.2-0.4,2.5-0.9,3c-0.7,0.7-0.7,0.9,0,0.9
	C471.7,722.4,473.1,717.7,471.6,716.8L471.6,716.8z"/>
<path class="st0" d="M468.5,714.2c-0.8,0-1.5,0.3-1.5,0.8c0,0.4,0.9,0.8,1.9,0.8c1.1,0,1.7-0.3,1.5-0.8
	C470.2,714.5,469.3,714.2,468.5,714.2z"/>
<path class="st0" d="M468.2,725.8c-1.2-1.6-1.3-1.3-1.1,2.5c0.1,1.6-0.3,2.8-1.2,3.4c-1.9,1.4-0.1,2.1,1.8,0.7
	C469.6,731.1,469.8,728,468.2,725.8L468.2,725.8z"/>
<path class="st0" d="M463.7,706.3c-1.8-1.8-6.4-2.6-6.4-1.1c0,0.4,0.8,0.8,1.8,0.8c2.1,0,4.9,2.6,4.9,4.6c0,0.7,0.3,1.4,0.8,1.4
	C466.3,711.9,465.5,708.1,463.7,706.3L463.7,706.3z"/>
<path class="st0" d="M462.5,714.9c-1.3-2.4-2.1-1.6-1.7,1.7c0.4,3.1,0.4,3.1-1.6,2.6c-1.2-0.3-2-0.2-2,0.3c0,0.4,0.8,1,1.9,1.2
	C462.6,721.5,464.4,718.3,462.5,714.9L462.5,714.9z"/>
<path class="st0" d="M458.1,726.2c-0.4,0-0.9,0.3-1.2,0.8c-0.3,0.4-1.1,0.8-2,0.8c-0.9,0-1.4,0.4-1.2,0.9c0.4,1.3,2.7,1.6,4,0.5
	C458.9,728.1,459.2,726.2,458.1,726.2L458.1,726.2z"/>
<path class="st0" d="M452.8,708.9c-0.7-1.4-3-2.1-3-0.9c0,0.8,2.4,3.2,3.1,3.2C453.7,711.2,453.7,710.6,452.8,708.9z"/>
<path class="st0" d="M451,715c-1.1-1-2.2-1.5-3-1.2c-1.9,0.7-1.5,1.8,0.6,1.8c2.7,0,2.9,1,0.4,3.4c-2.9,2.8-6.1,11.7-4.6,12.7
	c0.4,0.2,0.9-0.6,1.2-1.9c0.4-2,0.8-2.3,2.3-2c2.1,0.4,2.3-0.7,0.7-2.9c-1.5-2-1.4-2.6,0.3-2.6C452.7,722.4,454,717.8,451,715
	L451,715z"/>
<path class="st0" d="M470.2,806.4c-1.4,1.8-1.6,1.8-2.9,0.5c-1.9-1.8-3.6-1.6-5,0.4c-1.6,2.3-1.5,4.1,0.3,5.6c1.6,1.4,2,3.2,0.7,3.2
	c-1.6,0-7.7-5.7-8.7-8c-2.4-5.8-0.1-12.3,5.1-14.3c2.4-0.9,3-0.9,5.5,0.3C470.6,796.8,473.1,802.9,470.2,806.4z"/>
<path class="st0" d="M456.6,774c-0.3,1.3-1,2.9-1.5,3.5c-0.9,1.1-13.1,4.3-23.3,6.1c-7,1.2-9.8,1.8-30,6.2
	c-7.6,1.7-18.1,3.8-23.2,4.7c-5.2,0.9-10.4,1.9-11.6,2.3c-3,0.8-27.1,5-38.6,6.7c-3.1,0.4-7.7,1.1-10.2,1.5
	c-2.5,0.4-5.1,0.5-5.8,0.3c-1.6-0.6-3.7-4-3.2-5.2c0.4-1.1,5.4-2.3,14.4-3.4c12.4-1.5,34.2-5.5,39-7.1c1.9-0.6,5.8-1.5,8.8-1.9
	c3-0.4,10.8-2.1,17.4-3.7c6.6-1.6,13.9-3.3,16.1-3.8c2.3-0.5,9.5-2.2,16.1-3.7c14.6-3.5,28.9-6.6,33.2-7.2
	C457.6,768.7,457.8,768.9,456.6,774L456.6,774z"/>
<path class="st0" d="M451.1,762.5c-15.3,1.8-39.8,3-41.5,2.1c-0.8-0.4-2.1-2.5-2.8-4.6c-1.2-3.3-1.2-4-0.4-4.8
	c0.8-0.7,6.3-1.1,21.4-1.5l20.3-0.5l3.5,3.6c1.9,2,3.5,4,3.5,4.4C455.1,761.6,453.3,762.2,451.1,762.5L451.1,762.5z"/>
<path class="st0" d="M441.1,721.7c-1.8,1.5-4.9,0-6.8-3.4c-2.5-4.5-3.3-5.5-5-5.9c-1.3-0.3-1.3-0.6-0.5-1.6c1.2-1.5,5.3-1.5,8.6-0.1
	C441.6,712.5,443.9,719.4,441.1,721.7L441.1,721.7z"/>
<path class="st0" d="M436.5,708.5c-4.9-1.1-7.5-0.7-9,1.1c-1.4,1.7-1.5,1.7-8.4,0.8l-7-1l0.5-2.3c0.7-3.8,2.2-4.4,9.4-3.8
	c6.8,0.5,14.8,2.2,16.3,3.5C440.2,708.3,439.4,709.1,436.5,708.5L436.5,708.5z"/>
<path class="st0" d="M436.6,733.6c-3,2.4-7.8,2-7.8-0.7c0-2,5.8-6.9,7.7-6.6c1.3,0.2,1.7,0.8,1.9,3
	C438.6,731.5,438.3,732.3,436.6,733.6z"/>
<path class="st0" d="M429.3,811.9c-0.8,1.2-1.3,1.3-2.6,0.6c-2.5-1.4-4.4-1-5.8,1.2c-1.1,1.7-1.2,2.5-0.5,5.3c1.4,5.4,1.2,6-1.4,3.6
	c-2.9-2.8-5.5-9.7-5-13c0.5-3,3.6-7.3,5.7-8c1.9-0.6,6.8,1.5,8.4,3.7C430.1,807.8,430.5,810.3,429.3,811.9z"/>
<path class="st0" d="M425.2,733.5c-2,2.2-2.6,2.4-7,2.4c-2.6,0-6.4,0.3-8.5,0.6c-5.4,0.7-7.1,0.4-7.1-1.7c0-0.9,0.4-2.2,0.9-2.9
	c1.2-1.5,8-2.7,16.7-3C428,728.8,428.9,729.6,425.2,733.5L425.2,733.5z"/>
<path class="st0" d="M402.1,704.9c-1.9,3.1-2,3.1-5.4,2.8c-1.9-0.2-9.6-0.9-17-1.6c-17.4-1.6-85.9-1.9-94.9-0.4
	c-3.1,0.5-8,1.1-10.9,1.3c-14.9,0.9-53.3,6.9-60.9,9.4c-1.2,0.4-5.9,1.4-10.5,2.2c-4.6,0.8-11.5,2.4-15.3,3.5
	c-6.4,1.9-7.3,1.9-11.3,1.1c-6.7-1.4-6-2.4,4.5-6.3c6.2-2.3,46.2-11,58.6-12.7c4.7-0.7,10.5-1.5,12.8-1.9s10.4-1.4,18-2.3
	c7.6-0.9,14.3-1.7,14.9-1.9c0.6-0.2,8.3-0.7,17.2-1.2c18.7-1,51.7-0.9,70.1,0.1c12.1,0.7,30.2,2.7,31.4,3.5
	C404.3,700.9,404.2,701.5,402.1,704.9L402.1,704.9z"/>
<path class="st0" d="M396,765.8c-0.7,0.3-19.4,0.5-41.6,0.4c-41.1-0.1-56.9-0.9-74.5-3.7c-3.7-0.6-9.2-1.3-12.2-1.6
	c-6.2-0.5-7.5-2.1-2.2-2.8c1.8-0.2,6.7-1,11.1-1.6c4.3-0.7,9.5-1.4,11.4-1.6c2-0.2,3.6-0.7,3.6-1.1c0-1.5-8.3-0.7-38.6,3.5
	c-9.1,1.3-9.8,1.4-20.6,2.5c-4.7,0.5-10.9,1.2-13.7,1.6c-2.8,0.4-6,0.7-7.2,0.7s-2.5,0.4-3,0.9c-0.7,0.7-1.1,0.7-1.5,0
	c-0.4-0.7-2.2-0.7-7.3-0.2c-22.5,2.3-63.9,3.6-99.3,3.1c-12.3-0.2-14.3-1-9.2-4c2.1-1.2,4.6-1.3,25.7-1.3c25.2,0,37.8-0.5,71.6-3
	c12-0.9,24.5-1.7,27.7-1.9c3.3-0.2,9-0.7,12.8-1.1c3.7-0.4,9.1-0.9,11.9-1.1c8.4-0.6,13.5-1.5,24.2-4.5c2.1-0.6,5.1-1.1,6.8-1.1
	c3.5,0,19.2-1.8,30.7-3.4c4.5-0.7,10.8-1.2,13.8-1.2c3.1,0,6-0.3,6.6-0.8c0.6-0.5,4.5-1.3,8.7-1.8c4.2-0.5,14.5-2,22.8-3.2
	c8.3-1.3,17.5-2.5,20.2-2.7c2.8-0.2,6.8-0.8,8.8-1.2c2.1-0.4,4.9-0.7,6.4-0.5c2.5,0.2,2.6,0.4,2.6,2.9v2.6l-4.9,0.9
	c-2.7,0.5-10.6,1.6-17.6,2.5c-7,0.9-19.2,2.6-27,3.8c-7.8,1.2-18.6,2.7-24,3.3c-5.4,0.6-12.5,1.4-15.8,1.8s-6.8,0.7-7.8,0.7
	c-1.9,0-2.9,0.6-2.2,1.3c0.7,0.7,27.1,2.7,30.2,2.3c1.6-0.2,4.7,0,6.8,0.5c2.8,0.7,7.5,0.8,18,0.5c7.8-0.3,21.4-0.6,30.2-0.8
	l15.9-0.3l0.9,3.1c0.5,1.7,1.1,3.4,1.5,3.8C397.7,763,397.4,765.2,396,765.8L396,765.8z"/>
<path class="st0" d="M373.4,891.2c-1.2,2.2-1.8,2.6-3.8,2.4c-7.6-0.6-12-8.3-8.3-14.6c0.9-1.5,2.1-2.9,2.7-3.2
	c1.2-0.5,2.2,1.2,1.5,2.4c-0.2,0.4-0.1,1.6,0.3,2.7c0.6,1.6,1.2,1.9,3.7,1.9c2.2,0,3.3,0.4,4.1,1.7
	C375.2,886.8,375.1,888,373.4,891.2L373.4,891.2z"/>
<path class="st0" d="M362,820.7c-1.2,1.5-1.4,2.6-1,5.4c0.5,4,0,4.4-2.9,1.9c-1.5-1.3-2.1-2.7-2.5-5.9c-0.5-3.9-0.3-4.4,1.4-6.2
	c2.2-2.2,3.7-2.4,5.3-0.8C363.9,816.7,363.8,818.4,362,820.7L362,820.7z"/>
<path class="st0" d="M302.9,847.7c-1,0-1.5,4.6-0.7,6.7c0.8,2.1-0.3,3.8-2.5,3.8c-4.4,0-6.2-8.2-2.4-11.2c2.3-1.8,6.3-2.1,6.3-0.4
	C303.6,847.2,303.3,847.7,302.9,847.7L302.9,847.7z"/>
<path class="st0" d="M297.2,808.2c-1.4,1.4-3.8,1-7.7-1.2c-4.5-2.7-3-4.1,4.7-4.5c3.7-0.2,3.8-0.2,4,2.1
	C298.3,806.1,297.9,807.5,297.2,808.2z"/>
<path class="st0" d="M263.1,813.5c-1.5,0.9-25.5,1.9-48.4,1.9c-27.2,0-38.8-0.4-51.8-1.9c-8.7-1-14.2-1.5-24.3-2.3
	c-2.6-0.2-5-0.5-5.3-0.7c-0.3-0.2-3.2-0.5-6.5-0.8c-3.2-0.2-7.4-0.7-9.3-1.1c-1.9-0.4-5.2-0.9-7.5-1.1c-9-1-36.6-6.3-42.8-8.2
	c-1.9-0.6-8.1-2.3-13.9-3.8c-13.6-3.6-14.7-4.4-9.4-7.1c3.1-1.6,6-1.9,7.2-0.9c0.4,0.4,3.2,1.4,6.3,2.3c3.1,0.9,6.1,1.8,6.7,2
	c2.8,0.9,27.1,5.7,31.5,6.3c2.7,0.3,8.3,1.2,12.4,1.8c4.1,0.7,11.9,1.7,17.3,2.2c5.4,0.6,10.3,1.2,10.9,1.5
	c1.4,0.5,16.3,1.6,49.1,3.5c31.7,1.9,45.2,2.3,45.8,1.4c0.2-0.4-0.6-0.7-1.8-0.7c-3.1,0-3.5-1.2-1.2-3.4c1.9-1.8,6-3.4,8.8-3.4
	c1.8,0,1.7,1.7-0.3,3.4c-0.9,0.8-1.9,2.1-2.3,2.9c-0.8,1.4-0.5,1.4,11.2,0.9l11.9-0.5l3.1,2.3C264.1,812.7,264.2,812.9,263.1,813.5
	L263.1,813.5z"/>
<path class="st0" d="M260.1,837.9c-0.3,1.4-1.5,4.2-2.7,6.2c-1.7,2.8-2.6,3.6-4.1,3.6c-1.4,0-2.4,0.8-3.8,2.8
	c-3,4.6-5.3,5.8-11.5,6.1c-4,0.2-6.2-0.1-8.1-1c-3.5-1.7-9.6-7.7-9.6-9.5c0-1.8,0.5-1.8,3.5,0c5,3,12.5,2.7,15.1-0.6
	c1.4-1.9,1.1-5.9-0.5-7.6c-2.2-2.2-1.9-4.8,0.9-7.1c1.9-1.6,2.9-1.9,5-1.6c5,0.8,8.6,6,8.5,12c-0.1,2.7,0.1,3.5,0.7,2.9
	c1.2-1.2,1-7.9-0.4-10.8c-1.8-3.7-6.8-6.8-10.3-6.4c-3.3,0.4-4.1,0-4.8-2.6c-0.5-2.1,0.3-4.2,2.3-6.2c1.4-1.4,10.2-1.7,13.6-0.4
	C259.4,819.8,262.1,828.3,260.1,837.9L260.1,837.9z"/>
<path class="st0" d="M255.6,749c-3.7,2.3-29.5,3.3-38.3,1.6c-17.7-3.5-43.3-11.6-64.1-20.2c-3.3-1.4-9.7-4-14.2-5.8
	c-8.8-3.5-39.5-18.7-47.6-23.5c-9.3-5.6-15.4-9.6-17.4-11.5c-1.1-1-2.5-1.7-3.1-1.5c-0.7,0.3-1.2-0.1-1.5-1
	c-0.2-0.8-2.4-2.4-4.8-3.6c-2.4-1.2-4.9-2.8-5.5-3.5c-0.6-0.7-2.2-1.9-3.7-2.6c-1.5-0.8-3.9-2.4-5.3-3.7c-1.4-1.3-5.5-4.4-9-7
	c-7.6-5.6-25.5-23.3-28.6-28.2c-3.1-4.9-2.9-5.6,1.9-7.2l4.1-1.4l2.4,2c1.3,1.1,4.8,4.9,7.7,8.4c5.9,7,22.5,21.6,28.9,25.4
	c4,2.3,5.7,3.6,16.1,11.2c2.5,1.8,6.5,4.4,9,5.7c2.5,1.3,4.8,2.8,5.3,3.4c1.1,1.3,26.4,15.4,27.7,15.4c0.6,0,1.3,0.4,1.6,0.8
	c0.3,0.4,2.7,1.8,5.5,3.1c2.7,1.3,9.9,4.6,15.8,7.5c5.9,2.8,11.1,5.1,11.4,5.1c0.7,0,10.4,3.7,16.5,6.4c6.7,2.9,17.6,6.4,29.2,9.4
	c34,8.8,43.1,10.9,52.7,12c3.6,0.4,6.9,0.9,7.3,1.2C256.5,747.4,256.5,748.5,255.6,749L255.6,749z"/>
<path class="st0" d="M237.5,829.9c-1,0.7-2.7,1.2-3.9,1.2c-2,0-2.1,0.2-1.7,2.2c0.7,3.3,3.5,8.9,4.7,9.3c2.3,0.9,1,2.6-2.5,3.4
	c-4.2,1-7.2,0.3-11.6-2.6l-2.9-1.9l-3.4,2c-2.8,1.6-3.9,1.9-6.6,1.5c-1.8-0.3-3.8-1.1-4.5-1.9c-1.2-1.3-1.2-1.5,0-3.4
	c1-1.5,1.3-3.8,1.4-9.3c0.1-4,0.6-8.6,1.1-10.1c1-2.8,1-2.8,4.5-2.6l3.5,0.2l0.5,4.3c0.6,5.6,1.4,6.4,1.4,1.5c0-6.2,0-6.2,7.9-6.2
	c7.5,0,9.3,0.8,9.3,3.9c0,2,1.3,4.5,3.2,6C239.2,828.7,239.2,828.7,237.5,829.9L237.5,829.9z"/>
</svg>
